<?xml version="1.0" encoding="utf-8"?>
<svg viewBox="0 0 512 512" xmlns="http://www.w3.org/2000/svg" xmlns:xlink="http://www.w3.org/1999/xlink">
    <style>:root>svg{display:none}:root>svg:target{display:block}</style>
    <svg fill="none" viewBox="0 0 8 14" id="arrow-right" xmlns="http://www.w3.org/2000/svg">
        <path d="M8 6.97a.948.948 0 00-.274-.641L1.724.295A1.027 1.027 0 00.76.029a.988.988 0 00-.721.67c-.1.331-.009.689.238.938L5.616 7 .278 12.363a.944.944 0 00-.238.938c.1.332.374.587.721.67.347.084.714-.018.963-.266l6.002-6.034a.946.946 0 00.273-.7V6.97z"
              fill="currentColor"/>
    </svg>
    <svg fill="none" viewBox="0 0 37 40" id="cart" xmlns="http://www.w3.org/2000/svg">
        <path d="M10.745 21.8L3.268 2.725H1.407S.441 2.618.112 1.928C-.244 1.185.289.181 1.138.025c.118-.022.15-.02.269-.025h2.849l.132.005c.117.017.147.017.26.048.426.117.763.434.941.83L13.787 21.8h17.744l2.373-13.626H12.8l-.135-.005c-.12-.016-.15-.016-.266-.049-1.058-.297-1.368-1.967-.25-2.519.199-.098.422-.14.651-.15h22.785c.835.037 1.507.75 1.405 1.585l-2.848 16.35c-.143.64-.721 1.11-1.404 1.139 0 0-21.85-.006-22.804 0-1.076.02-1.838 1.451-1.026 2.29.266.273.65.433 1.049.436h11.388c1.1.032 1.863 1.454 1.037 2.295-.224.229-.533.38-.859.418-.078.01-.098.01-.178.01h-8.564s-3.069.116-3.887-.145c-1.694-.539-3.118-1.998-3.208-3.738-.113-2.181 1.847-4.275 4.263-4.29h.797-.001z"
              fill="currentColor"/>
        <circle cx="13.5" cy="35.5" r="3.4" stroke="currentColor" stroke-width="2.2"/>
        <circle cx="27.5" cy="35.5" r="3.4" stroke="currentColor" stroke-width="2.2"/>
    </svg>
    <svg viewBox="0 0 32 32" id="cross" xmlns="http://www.w3.org/2000/svg">
        <path d="M31.5 2.428c0-.517-.201-1.004-.568-1.37-.732-.732-2.007-.732-2.74 0L16 13.251 3.807 1.058c-.732-.732-2.007-.732-2.74 0A1.923 1.923 0 00.5 2.428c0 .518.202 1.004.568 1.37L13.26 15.991 1.068 28.183a1.923 1.923 0 00-.568 1.37c0 .518.202 1.004.568 1.37.732.732 2.007.732 2.74 0L16 18.731l12.193 12.192c.366.366.852.568 1.37.568.517 0 1.003-.202 1.37-.568.366-.365.567-.852.567-1.37 0-.517-.201-1.004-.568-1.37L18.74 15.991 30.932 3.798c.367-.365.568-.852.568-1.37z"
              stroke="currentColor"/>
    </svg>
    <svg fill="none" viewBox="0 0 42 38" id="favorite" xmlns="http://www.w3.org/2000/svg">
        <mask id="da" maskUnits="userSpaceOnUse" x="0" y="0" width="42" height="38" fill="#000">
            <path fill="#fff" d="M0 0h42v38H0z"/>
            <path fill-rule="evenodd" clip-rule="evenodd"
                  d="M33.14 1.428c3.27.916 6.923 3.994 7.712 8.803.754 4.603-.753 14.182-19.323 26.608a.952.952 0 01-1.06 0c-4.344-2.906-7.753-5.657-10.419-8.224-.378-1.316.002-1.616 1.39-1.234 2.46 2.35 5.59 4.879 9.558 7.569 17.209-11.667 18.67-20.297 17.993-24.424-.657-4.005-3.672-6.56-6.37-7.317-6.48-1.825-10.678 3.86-10.854 4.104a.949.949 0 01-.768.39h-.002a.947.947 0 01-.769-.392c-.15-.208-3.289-4.462-8.302-4.462-.802 0-1.651.108-2.545.36-2.699.756-5.716 3.311-6.373 7.316-.402 2.45-.05 6.49 3.907 11.811.186 1.228-.414 1.643-1.542 1.02C1.053 17.506.697 12.98 1.15 10.23c.789-4.809 4.444-7.886 7.715-8.803C14.895-.27 19.3 3.516 21 5.337c1.702-1.82 6.11-5.608 12.14-3.91z"/>
        </mask>
        <path fill-rule="evenodd" clip-rule="evenodd"
              d="M33.14 1.428c3.27.916 6.923 3.994 7.712 8.803.754 4.603-.753 14.182-19.323 26.608a.952.952 0 01-1.06 0c-4.344-2.906-7.753-5.657-10.419-8.224-.378-1.316.002-1.616 1.39-1.234 2.46 2.35 5.59 4.879 9.558 7.569 17.209-11.667 18.67-20.297 17.993-24.424-.657-4.005-3.672-6.56-6.37-7.317-6.48-1.825-10.678 3.86-10.854 4.104a.949.949 0 01-.768.39h-.002a.947.947 0 01-.769-.392c-.15-.208-3.289-4.462-8.302-4.462-.802 0-1.651.108-2.545.36-2.699.756-5.716 3.311-6.373 7.316-.402 2.45-.05 6.49 3.907 11.811.186 1.228-.414 1.643-1.542 1.02C1.053 17.506.697 12.98 1.15 10.23c.789-4.809 4.444-7.886 7.715-8.803C14.895-.27 19.3 3.516 21 5.337c1.702-1.82 6.11-5.608 12.14-3.91z"
              fill="currentColor"/>
        <path d="M40.852 10.231l.493-.08-.493.08zM33.14 1.428l-.136.48v.001l.136-.481zM21.529 36.839l-.279-.415.279.415zm-1.06 0l-.279.416.278-.416zM10.05 28.615l-.48.138.037.129.096.093.347-.36zm1.39-1.234l.346-.361-.091-.087-.122-.034-.132.482zm9.558 7.569l-.28.414.28.19.28-.19-.28-.414zm17.993-24.424l.494-.08-.494.08zm-6.37-7.317l-.135.481.136-.481zM21.767 7.313l.406.293-.406-.293zm-.77.39l-.001.5v-.5zm-.769-.392l.407-.29-.002-.002-.405.292zM9.381 3.21l.135.481h.001l-.136-.481zm-6.373 7.316l-.493-.081.493.08zm3.907 11.811l.494-.075-.018-.123-.075-.1-.4.298zm-1.542 1.02l-.402.297.065.088.095.052.242-.437zM1.15 10.23l-.494-.081.494.08zm7.715-8.803L9 1.908l-.135-.481zM21 5.337l-.365.341.365.392.365-.391L21 5.337zm20.346 4.813c-.824-5.026-4.64-8.242-8.07-9.204l-.27.963c3.108.872 6.6 3.811 7.353 8.403l.987-.162zM21.807 37.255C40.459 24.774 42.144 15.027 41.344 10.15l-.987.162c.71 4.33-.619 13.74-19.108 26.112l.556.831zm-.809.245c.281 0 .564-.081.809-.245l-.557-.831a.451.451 0 01-.252.076v1zm-.808-.245c.244.163.527.245.808.245v-1a.453.453 0 01-.252-.076l-.556.831zm-10.487-8.28c2.69 2.591 6.124 5.36 10.487 8.28l.556-.831c-4.322-2.893-7.708-5.625-10.349-8.17l-.694.72zm.828-.498c-.09-.312-.121-.52-.118-.654.002-.128.034-.115-.003-.084-.025.022-.007-.015.163-.012.165.004.403.045.735.136l.265-.964c-.362-.1-.692-.165-.977-.171-.28-.007-.594.042-.84.255-.258.223-.337.534-.343.82-.006.281.057.603.157.95l.96-.276zm10.748 6.06c-3.948-2.678-7.056-5.19-9.493-7.517l-.69.723c2.483 2.371 5.635 4.917 9.622 7.62l.56-.827zm17.219-23.93c.63 3.846-.643 12.31-17.78 23.93l.56.827c17.28-11.716 18.929-20.511 18.207-24.919l-.987.162zM32.487 3.69c2.533.71 5.39 3.127 6.011 6.917l.987-.162c-.693-4.22-3.867-6.915-6.728-7.717l-.27.962zM22.172 7.605c.07-.097 1.121-1.524 2.93-2.7 1.8-1.171 4.321-2.077 7.383-1.215l.271-.962c-3.418-.963-6.236.061-8.2 1.338-1.954 1.271-3.09 2.809-3.195 2.955l.811.584zm-1.174.599c.464 0 .902-.222 1.174-.598l-.81-.586a.449.449 0 01-.364.184v1zm-.002 0h.002v-1h-.002v1zm-1.175-.602c.271.38.71.6 1.174.602l.002-1a.447.447 0 01-.363-.184l-.814.582zM11.925 3.35c2.36 0 4.295 1.001 5.672 2.05 1.377 1.05 2.166 2.123 2.225 2.205l.81-.585c-.091-.127-.946-1.285-2.43-2.415-1.482-1.13-3.625-2.255-6.277-2.255v1zm-2.409.341a8.848 8.848 0 012.409-.341v-1c-.848 0-1.743.114-2.68.378l.271.963zm-6.016 6.916c.623-3.79 3.48-6.206 6.015-6.916l-.27-.963c-2.863.802-6.039 3.497-6.731 7.717l.986.162zm3.815 11.432c-3.887-5.227-4.192-9.132-3.814-11.432l-.987-.162c-.427 2.601-.029 6.775 3.999 12.19l.802-.596zm-.895.373c.088.585-.058.71-.062.713-.005.003-.046.03-.174.013-.131-.019-.32-.081-.57-.219l-.484.875c.586.324 1.261.512 1.784.163.53-.356.592-1.052.494-1.695l-.988.15zM.655 10.15C.18 13.044.578 17.705 4.971 23.653l.804-.594c-4.247-5.751-4.56-10.143-4.133-12.748l-.987-.162zM8.73.945C5.297 1.907 1.48 5.123.655 10.15l.987.162C2.396 5.719 5.89 2.78 9 1.908L8.73.945zm12.635 4.051C19.635 3.143 15.045-.83 8.729.946l.27.962c5.746-1.615 9.965 1.98 11.635 3.77l.73-.682zm11.91-4.05c-6.317-1.778-10.91 2.197-12.641 4.05l.73.683c1.672-1.79 5.894-5.388 11.64-3.77l.271-.963z"
              fill="currentColor" mask="url(#da)"/>
    </svg>
    <svg fill="none" viewBox="0 0 39 24" id="hamburger" xmlns="http://www.w3.org/2000/svg">
        <path d="M18.28 2H37M37 12H10.14M37 22H2" stroke="#fff" stroke-width="3" stroke-linecap="round"/>
    </svg>
    <svg fill="none" viewBox="0 0 40 40" id="link" xmlns="http://www.w3.org/2000/svg">
        <circle cx="20" cy="20" r="18.75" stroke="currentColor" stroke-width="2.5"/>
        <path d="M10.405 20.595h19.19m0 0l-7.714-7m7.714 7l-7.714 7" stroke="currentColor" stroke-width="2"
              stroke-linecap="round"/>
    </svg>
    <svg fill="none" viewBox="0 0 20 25" id="location" xmlns="http://www.w3.org/2000/svg">
        <path d="M10.042 25a.624.624 0 01-.384-.133 34.649 34.649 0 01-3.736-3.432 29.722 29.722 0 01-3.06-3.827c-.903-1.359-1.604-2.694-2.083-3.969C.264 12.272.002 10.967 0 9.759c0-1.317.265-2.595.787-3.798a9.68 9.68 0 01.922-1.658 9.87 9.87 0 011.222-1.444A10.05 10.05 0 016.11.767 10.155 10.155 0 0110.005 0a10.133 10.133 0 015.587 1.667 9.997 9.997 0 012.7 2.636c.36.522.671 1.08.921 1.658A9.495 9.495 0 0120 9.759c0 .332-.026.684-.077 1.046a.607.607 0 01-.688.508.599.599 0 01-.52-.671c.043-.307.065-.604.065-.883 0-2.287-.914-4.439-2.572-6.06a8.83 8.83 0 00-6.203-2.509A8.841 8.841 0 003.793 3.7C2.134 5.32 1.221 7.472 1.22 9.76c-.004 2.06.942 4.618 2.666 7.2 1.55 2.33 3.74 4.703 6.163 6.68 2.301-1.838 4.874-4.857 6.554-7.692a.615.615 0 01.834-.218.595.595 0 01.304.518.581.581 0 01-.082.296 32.593 32.593 0 01-3.438 4.71c-1.265 1.446-2.582 2.699-3.807 3.622a.612.612 0 01-.372.124zm8.445-10.825v-.003.003a.62.62 0 01-.562-.364.58.58 0 01-.003-.455v-.001a.617.617 0 01.794-.327.591.591 0 01.336.776.608.608 0 01-.565.371z"
              fill="#D8315B"/>
        <path d="M10 14.623c-.7 0-1.377-.134-2.015-.397a5.181 5.181 0 01-1.647-1.083 5.027 5.027 0 01-1.109-1.605 4.91 4.91 0 01-.407-1.967c0-.681.137-1.343.407-1.966A5.021 5.021 0 016.339 6a5.162 5.162 0 011.646-1.083A5.261 5.261 0 0110 4.52c.7 0 1.377.134 2.015.397.617.254 1.17.618 1.646 1.083a5.02 5.02 0 011.11 1.605c.27.623.407 1.285.407 1.966 0 .682-.137 1.344-.407 1.967a5.027 5.027 0 01-1.11 1.605 5.174 5.174 0 01-1.646 1.083 5.262 5.262 0 01-2.015.397zm0-8.913c-1.056 0-2.05.402-2.799 1.131a3.793 3.793 0 000 5.46A3.99 3.99 0 0010 13.432a3.99 3.99 0 002.799-1.13 3.796 3.796 0 000-5.46 3.986 3.986 0 00-2.8-1.132z"
              fill="#D8315B"/>
    </svg>
    <svg viewBox="0 0 512 512" id="logout" xmlns="http://www.w3.org/2000/svg">
        <g data-name="ARROW 48" fill="currentColor">
            <path d="M307.69 347.47a24 24 0 00-24 24v58.47a33.93 33.93 0 01-33.89 33.9H82.06a33.93 33.93 0 01-33.89-33.9V82.06a33.93 33.93 0 0133.89-33.9H249.8a33.93 33.93 0 0133.89 33.9v50.54a24 24 0 0048 0V82.06A82 82 0 00249.8.16H82.06A82 82 0 00.17 82.06v347.88a82 82 0 0081.89 81.9H249.8a82 82 0 0081.89-81.9v-58.47a24 24 0 00-24-24z"/>
            <path d="M504.77 238.53l-85.41-85.35a24 24 0 00-33.6-.33c-9.7 9.33-9.47 25.13.05 34.65l44.47 44.5h-208a24 24 0 00-24 24 24 24 0 0024 24h208l-44.9 44.9a24 24 0 0033.94 33.95l85.45-85.41a24.66 24.66 0 000-34.91z"/>
        </g>
    </svg>
    <svg fill="none" viewBox="0 0 34 23" id="mail" xmlns="http://www.w3.org/2000/svg">
        <path d="M31.682 0H2.318C1.005 0 0 .997 0 2.3v18.4C0 22.003 1.005 23 2.318 23h29.364C32.996 23 34 22.003 34 20.7V2.3C34 .997 32.995 0 31.682 0zm.773 20.777l-11.746-7.744 11.746-10.58v18.324c0-.077 0 0 0 0zM1.545 20.7V2.53l11.669 10.503L1.545 20.7c0 .077 0 0 0 0zm15.919-6.9a.751.751 0 01-1.082 0L2.705 1.533H31.14L17.464 13.8zm-3.014.307l1.005.92c.463.383 1.004.613 1.545.613.54 0 1.082-.23 1.546-.613l1.004-.92 11.127 7.36H3.323l11.127-7.36z"
              fill="#D8315B"/>
    </svg>
    <svg fill="none" viewBox="0 0 41 40" id="order" xmlns="http://www.w3.org/2000/svg">
        <path fill-rule="evenodd" clip-rule="evenodd"
              d="M39.043 7.273l.923.366a1.338 1.338 0 01.798.567c.02.027.037.054.055.081.147.231.203.552.173.837.01.529.006 1.059.002 1.59-.002.287-.004.574-.004.862v18.579c0 .273-.08.521-.215.729-.118.192-.281.369-.457.446l-.016.007-.016.007c-.523.257-1.062.488-1.6.718-.24.103-.48.206-.718.312-1.227.54-2.45 1.082-3.676 1.626h-.001l-1.11.492c-.918.409-1.839.816-2.759 1.224l-2.753 1.22-4.578 2.028-1.907.843a1.253 1.253 0 01-.608.186l-.075.006c-.246.01-.48-.06-.682-.184l-.004-.002a.11.11 0 00-.008-.004l-.007-.003a358.34 358.34 0 00-1.173-.52h-.001l-.001-.001-.002-.001c-.387-.171-.773-.342-1.158-.514-1.224-.54-2.445-1.081-3.668-1.623l-.007-.003-1.11-.493c-.918-.408-1.837-.815-2.755-1.221l-.002-.001H9.92l-.001-.002-2.753-1.22c-1.53-.676-3.054-1.352-4.579-2.028L.68 31.335c-.424-.186-.672-.74-.672-1.175v-.036a61.397 61.397 0 01-.004-1.719c.002-.287.004-.575.004-.862v-2.037c.513-1.53 2.21-1.522 2.711.022V29.271c.284.125.567.255.85.384.276.126.552.252.828.374 1.227.54 2.45 1.082 3.676 1.626l1.11.492 2.76 1.224c.918.407 1.836.813 2.752 1.221 1.485.656 2.966 1.313 4.447 1.969l.002-.545V18.328c-.224-.098-.447-.2-.67-.301l-.05-.023h-.002l-.912-.404c-1.583-.704-3.161-1.403-4.74-2.102l-.027-.012c-1.846-.821-3.69-1.638-5.535-2.454l-4.487-1.99-.002.539v7.348c-.501 1.544-2.198 1.552-2.711.022V8.963c0-.48.262-.934.672-1.175.129-.075.257-.124.385-.151l.075-.03L2.16 7.2l1.697-.674c1.66-.662 3.315-1.32 4.976-1.978l2.77-1.101h.002l.003-.002 2.737-1.088 2.161-.857h.002l.002-.002h.003l2.153-.855c.397-.154.794-.313 1.191-.472l.013-.005c.341-.134.62-.243 1.025-.1.526.185 1.045.4 1.562.613.244.1.489.202.734.3.8.316 1.6.635 2.401.953l2.376.942c.92.367 1.84.732 2.76 1.097h.002l2.777 1.103c1.525.604 3.054 1.212 4.583 1.82l.953.377v.001zM22.06 18.239l-.195.087c0 .288-.003.576-.005.865-.003.288-.005.575-.005.863V36.553l.316-.138c1.226-.54 2.45-1.082 3.674-1.626l1.112-.492c.919-.409 1.84-.817 2.76-1.224.918-.407 1.835-.813 2.752-1.221 1.53-.676 3.054-1.352 4.578-2.028l1.229-.543.003-.88c.002-.288.005-.575.005-.863V11.05l-.166.073-.642.285-2.518 1.116c-.825.365-1.65.73-2.476 1.098l-.605.267v4.976c0 .762-.618 1.33-1.353 1.36-.73.033-1.353-.648-1.353-1.36V15.09c-.732.325-1.464.65-2.197.973-.717.319-1.435.636-2.154.954h-.002v.001h-.001a1286.282 1286.282 0 00-2.757 1.222zm7.881-6.984l.605.251 1.918-.851c1.227-.542 2.451-1.085 3.675-1.627-1.335-.528-2.67-1.059-4.004-1.59l-5.521-2.19c-1.19-.476-2.38-.948-3.57-1.42l-.995-.395-.954-.378-.58-.23c-.424.179-.856.344-1.287.509-.24.091-.479.183-.716.276-1.2.474-2.4.95-3.6 1.427l1.989.823 1.985.822 2.795 1.155h.001c.911.377 1.822.754 2.735 1.13l2.263.938h.001a5041.92 5041.92 0 003.26 1.35zM26.952 13.1l.186-.083-2.119-.877h-.002a7240.186 7240.186 0 01-4.778-1.976l-.004-.002-2.734-1.13-2.264-.938-2.305-.954-.955-.396-.666-.276L8.2 7.702a1294.1 1294.1 0 01-3.344 1.33c1.075.474 2.148.95 3.223 1.426l1.109.492 2.76 1.224h.002l2.75 1.22c1.53.676 3.054 1.352 4.579 2.028l1.198.53c.322-.145.646-.284.97-.422.24-.104.48-.207.719-.312 1.226-.54 2.45-1.083 3.676-1.626l1.11-.492z"
              fill="currentColor"/>
    </svg>
    <svg fill="none" viewBox="0 0 32 32" id="phone" xmlns="http://www.w3.org/2000/svg">
        <path d="M20.503 2.252a13.083 13.083 0 019.245 9.245M19.147 7.3a7.824 7.824 0 015.554 5.553M9.575 16.103a13.655 13.655 0 006.37 6.354 1.306 1.306 0 001.291-.098l4.084-2.728a1.291 1.291 0 011.241-.114l7.644 3.283a1.29 1.29 0 01.785 1.356A7.84 7.84 0 0123.213 31 22.214 22.214 0 011 8.786 7.84 7.84 0 017.844 1.01a1.29 1.29 0 011.356.784l3.283 7.66a1.306 1.306 0 01-.098 1.225l-2.728 4.15a1.307 1.307 0 00-.082 1.273v0z"
              stroke="#D8315B" stroke-width="1.5" stroke-linecap="round" stroke-linejoin="round"/>
    </svg>
    <svg fill="none" viewBox="0 0 13 17" id="rub" xmlns="http://www.w3.org/2000/svg">
        <path d="M7.99 9.978c2.765 0 5.01-2.24 5.01-4.998C13 2.22 10.756 0 7.99 0H3.681a1.08 1.08 0 00-1.077 1.075v6.753H1.077A1.08 1.08 0 000 8.903a1.08 1.08 0 001.077 1.075h1.527v1.81H1.077A1.08 1.08 0 000 12.861a1.08 1.08 0 001.077 1.075h1.527v1.988A1.08 1.08 0 003.68 17a1.08 1.08 0 001.077-1.075v-1.989h3.897a1.08 1.08 0 001.077-1.074 1.08 1.08 0 00-1.077-1.075H4.776v-1.81H7.99zM4.776 2.15h3.232a2.84 2.84 0 012.837 2.83 2.84 2.84 0 01-2.837 2.83H4.776V2.15z"
              fill="#CCD0D4"/>
    </svg>
    <svg fill="none" viewBox="0 0 30 30" id="search" xmlns="http://www.w3.org/2000/svg">
        <path d="M11.786 0C5.288 0 0 5.287 0 11.786 0 18.284 5.287 23.57 11.786 23.57c6.498 0 11.785-5.287 11.785-11.785S18.284 0 11.786 0zm0 21.429c-5.317 0-9.643-4.326-9.643-9.643 0-5.317 4.326-9.643 9.643-9.643 5.317 0 9.643 4.326 9.643 9.643 0 5.317-4.326 9.643-9.643 9.643zM29.686 28.171l-6.43-6.429a1.07 1.07 0 10-1.515 1.515l6.43 6.429a1.069 1.069 0 001.515 0 1.07 1.07 0 000-1.515z"
              fill="#fff"/>
    </svg>
    <svg fill="none" viewBox="0 0 26 26" id="star" xmlns="http://www.w3.org/2000/svg">
        <path d="M12.077 1.22c.341-.821 1.505-.821 1.846 0l2.81 6.755a1 1 0 00.843.613l7.293.585c.887.07 1.246 1.177.57 1.756l-5.555 4.76a1 1 0 00-.323.991l1.698 7.117c.206.865-.735 1.549-1.494 1.085l-6.244-3.814a1 1 0 00-1.042 0l-6.244 3.814c-.76.464-1.7-.22-1.494-1.085L6.44 16.68a1 1 0 00-.323-.992L.56 10.928c-.675-.578-.316-1.684.57-1.755l7.294-.585a1 1 0 00.843-.613l2.81-6.755z"
              fill="currentColor"/>
    </svg>
    <svg viewBox="0 0 42 40" id="user" xmlns="http://www.w3.org/2000/svg">
        <path d="M29.92 19.751c1.908-2.1 3.08-4.864 3.08-7.9C33 5.318 27.616 0 21 0 14.383 0 9 5.317 9 11.852s5.383 11.852 12 11.852c2.332 0 4.505-.671 6.35-1.814 6.524 2.428 11.017 8.326 11.588 15.147H3.063A17.712 17.712 0 019.18 25.11c.626-.538.69-1.473.146-2.09a1.513 1.513 0 00-2.117-.144C2.627 26.819 0 32.52 0 38.519 0 39.338.672 40 1.5 40h39c.83 0 1.5-.662 1.5-1.481 0-8.128-4.77-15.386-12.08-18.768zM12 11.851c0-4.901 4.037-8.888 9-8.888s9 3.987 9 8.889c0 4.902-4.037 8.889-9 8.889s-9-3.987-9-8.89z"
              fill="currentColor"/>
    </svg>
</svg>