<svg width="164" height="137" viewBox="0 0 164 137" fill="none" xmlns="http://www.w3.org/2000/svg">
<path d="M142.618 46.6967C149.876 63.3097 162.337 79.1496 161.479 93.5142C160.563 107.961 146.221 120.735 130.917 128.051C115.555 135.449 99.149 137.332 85.6327 133.511C72.0341 129.632 61.4081 120.106 47.1926 112.728C33.0018 105.49 15.3038 100.458 7.17227 89.1216C-0.901646 77.7028 0.673116 60.0373 9.03846 47.74C17.3215 35.385 32.4774 28.4559 45.4929 22.4813C58.5084 16.5067 69.4658 11.5444 83.3618 7.29044C97.3156 2.95416 114.15 -0.591454 123.641 6.1765C133.131 12.9445 135.22 30.1083 142.618 46.6967Z" fill="#FFE044"/>
<path d="M88.5 32C98.4454 32 107.983 35.9509 115.017 42.9833C122.049 50.0158 126 59.554 126 69.5C126 79.446 122.049 88.9833 115.017 96.0167C107.984 103.049 98.446 107 88.5 107C78.554 107 69.0167 103.049 61.9833 96.0167C54.9509 88.9843 51 79.446 51 69.5C51 59.554 54.9509 50.0167 61.9833 42.9833C69.0158 35.9509 78.554 32 88.5 32ZM88.5 101.23C96.9155 101.23 104.987 97.8869 110.937 91.9361C116.888 85.9853 120.231 77.9151 120.231 69.499C120.231 61.083 116.888 53.0124 110.937 47.0619C104.986 41.1111 96.916 37.7682 88.5 37.7682C80.084 37.7682 72.0134 41.1111 66.0629 47.0619C60.1121 53.0127 56.7692 61.083 56.7692 69.499C56.7692 77.9151 60.1121 85.9856 66.0629 91.9361C72.0137 97.8869 80.084 101.23 88.5 101.23Z" fill="#2C302E" stroke="#FFE044" stroke-width="1.5"/>
<path d="M88.5 46.4228C89.2649 46.4228 89.9989 46.7267 90.5398 47.2675C91.0806 47.8084 91.3845 48.5424 91.3845 49.3073V75.2685C91.3845 76.2994 90.8347 77.2516 89.9422 77.7667C89.0498 78.2819 87.9501 78.2819 87.0577 77.7667C86.1653 77.2516 85.6154 76.2994 85.6154 75.2685V49.3073C85.6154 48.5424 85.9193 47.8084 86.4602 47.2675C87.001 46.7267 87.735 46.4228 88.5 46.4228Z" fill="#2C302E" stroke="#FFE044" stroke-width="1.5"/>
<path d="M88.5 83.9225C89.4594 83.927 90.3537 84.4086 90.8856 85.207C91.4181 86.0055 91.5185 87.0157 91.1541 87.9029C91.0163 88.257 90.8109 88.5809 90.5482 88.8552C90.0067 89.4012 89.2695 89.7083 88.5 89.7083C87.7305 89.7083 86.9933 89.4012 86.4518 88.8552C86.1968 88.5744 85.992 88.2525 85.8459 87.9029C85.5375 87.2049 85.5375 86.4091 85.8459 85.7111C86.1086 84.9861 86.6791 84.4156 87.4041 84.1529C87.7505 84.0055 88.1233 83.927 88.5 83.9225Z" fill="#2C302E" stroke="#FFE044" stroke-width="1.5"/>
</svg>
