<svg width="164" height="136" viewBox="0 0 164 136" fill="none" xmlns="http://www.w3.org/2000/svg">
<path d="M143.618 45.6967C150.876 62.3097 163.337 78.1496 162.479 92.5142C161.563 106.961 147.222 119.735 131.917 127.051C116.556 134.449 100.149 136.332 86.6328 132.511C73.0342 128.632 62.4082 119.106 48.1927 111.728C34.0018 104.49 16.3039 99.458 8.17236 88.1216C0.0984534 76.7028 1.67321 59.0373 10.0386 46.74C18.3216 34.385 33.4775 27.4559 46.493 21.4813C59.5085 15.5067 70.4659 10.5444 84.3619 6.29044C98.3156 1.95416 115.15 -1.59145 124.641 5.1765C134.131 11.9445 136.22 29.1083 143.618 45.6967Z" fill="#E1E4E8"/>
<mask id="path-2-outside-1_1290_49" maskUnits="userSpaceOnUse" x="28" y="18" width="112" height="97" fill="black">
<rect fill="white" x="28" y="18" width="112" height="97"/>
<path fill-rule="evenodd" clip-rule="evenodd" d="M83.9994 19C66.2526 19 51.0016 29.808 44.437 45.2054H37.1148C32.6461 45.2054 29 48.8638 29 53.3371V70.8836C29 75.3568 32.6469 79.0153 37.1148 79.0153H45.5965H45.5958C45.6134 79.0137 45.6311 79.0122 45.6479 79.0107C45.694 79.0076 45.74 79.0037 45.7861 78.9976C45.9111 78.9838 46.0339 78.9569 46.1536 78.9163C46.1781 78.9124 46.2019 78.9078 46.2265 78.9032C46.4421 78.8173 46.6393 78.6876 46.8035 78.5234C46.8104 78.5165 46.8165 78.5104 46.8234 78.5035C46.97 78.3531 47.0889 78.1774 47.1718 77.984C47.1787 77.9687 47.1856 77.9541 47.1917 77.9388C47.2278 77.8474 47.2562 77.7538 47.2769 77.6579C47.2815 77.6364 47.2853 77.615 47.2899 77.5927C47.3045 77.5083 47.3137 77.4224 47.3153 77.3364C47.3168 77.3234 47.3183 77.3103 47.3191 77.2973C47.3191 77.2934 47.3183 77.2888 47.3183 77.2842C47.3168 77.1929 47.3084 77.1016 47.2922 77.0111C47.2861 76.9796 47.28 76.9482 47.2723 76.9175C47.2539 76.8338 47.2293 76.751 47.1986 76.6712C47.1971 76.6673 47.1956 76.665 47.194 76.6581C47.1894 76.6497 47.1848 76.6405 47.181 76.632C45.3671 72.0076 44.4355 67.0823 44.4355 62.1125C44.4355 57.0276 45.3877 52.17 47.1211 47.7042C47.1717 47.6052 47.2124 47.5016 47.2431 47.395C53.0662 32.7619 67.3179 22.4389 84.0005 22.4389C100.683 22.4389 114.936 32.7629 120.758 47.395H120.759C120.789 47.5009 120.83 47.6044 120.88 47.7027C122.613 52.1682 123.566 57.0269 123.566 62.1116C123.566 67.1503 122.622 72.0027 120.887 76.4799C120.817 76.6065 120.763 76.7415 120.727 76.8819C116.045 88.5855 105.934 97.6639 93.1567 100.707C91.6405 98.1623 88.8643 96.4473 85.7062 96.4473C80.9352 96.4473 77.0349 100.361 77.0349 105.137C77.0349 109.913 80.935 113.826 85.7062 113.826C90.4772 113.826 94.3775 109.913 94.3775 105.137C94.3775 104.74 94.3514 104.349 94.2977 103.966C107.695 100.657 118.364 91.2098 123.557 79.0157H130.885C135.354 79.0157 139 75.3565 139 70.884V53.3376C139 48.8643 135.354 45.2059 130.885 45.2059H123.563C116.999 29.8069 101.748 19.0005 84.0006 19.0005L83.9994 19ZM83.9994 32.0072C67.4312 32.0072 53.9677 45.51 53.9696 62.1137V62.116C53.9758 66.8909 55.1306 71.5867 57.305 75.8276L51.9323 91.9983H51.9315C51.7266 92.6159 51.8886 93.2965 52.3489 93.7561C52.8101 94.2157 53.4907 94.3761 54.1083 94.1697L70.1655 88.8002C74.4354 91.0285 79.1758 92.21 83.9975 92.2147V92.2139H83.999C100.565 92.2139 114.027 78.7148 114.029 62.1134C114.03 45.5092 100.567 32.0069 83.999 32.0069L83.9994 32.0072ZM83.9994 35.4447C98.7046 35.4447 110.594 47.3624 110.592 62.1137C110.59 76.8626 98.7034 88.7767 84.0014 88.7767C79.502 88.7729 75.0777 87.6235 71.1415 85.4375V85.4382C70.7203 85.2042 70.2192 85.1574 69.7619 85.3109L56.2782 89.8202L60.7915 76.2337H60.7922C60.9426 75.7818 60.8981 75.2877 60.6702 74.8687C58.5365 70.9579 57.4147 66.572 57.4078 62.1131V62.1124V62.1108C57.4078 47.3603 69.2961 35.4438 84.0001 35.4438L83.9994 35.4447ZM37.1142 48.6437H43.1443C41.7525 52.8822 40.9966 57.4092 40.9966 62.1119C40.9966 66.6926 41.7278 71.2381 43.152 75.5793H37.1142C34.4954 75.5793 32.4361 73.5176 32.4361 70.8851V53.3387C32.4361 50.7054 34.4954 48.6444 37.1142 48.6444V48.6437ZM124.854 48.6437H130.884C133.502 48.6437 135.562 50.7054 135.562 53.3379V70.8843C135.562 73.5176 133.502 75.5786 130.884 75.5786H124.85C126.248 71.3208 127.001 66.7892 127.001 62.1111C127.001 57.4084 126.245 52.8822 124.853 48.6429L124.854 48.6437ZM68.9826 59.4802C67.5784 59.5193 66.4298 60.6894 66.4298 62.1058C66.4298 63.5437 67.616 64.743 69.0509 64.743C70.485 64.743 71.6713 63.5445 71.6713 62.1058C71.6713 60.6679 70.485 59.4802 69.0509 59.4802C69.0317 59.4802 69.0056 59.4794 68.9826 59.4802ZM83.9317 59.4802C82.5275 59.5193 81.3789 60.6894 81.3789 62.1058C81.3789 63.5437 82.5651 64.743 83.9992 64.743C85.4333 64.743 86.6203 63.5445 86.6203 62.1058C86.6203 60.6679 85.4341 59.4802 83.9992 59.4802C83.98 59.4802 83.9539 59.4794 83.9317 59.4802ZM98.8802 59.4802C97.476 59.5193 96.3274 60.6894 96.3274 62.1058C96.3274 63.5437 97.5136 64.743 98.9477 64.743C100.383 64.743 101.568 63.5445 101.568 62.1058C101.568 60.6679 100.382 59.4802 98.9477 59.4802C98.9286 59.4802 98.9025 59.4794 98.8794 59.4802H98.8802ZM85.7066 99.8853C88.6155 99.8853 90.9404 102.214 90.9404 105.137C90.9404 108.061 88.6147 110.389 85.7066 110.389C82.7977 110.389 80.4728 108.061 80.4728 105.137C80.4728 102.214 82.7977 99.8853 85.7066 99.8853Z"/>
</mask>
<path fill-rule="evenodd" clip-rule="evenodd" d="M83.9994 19C66.2526 19 51.0016 29.808 44.437 45.2054H37.1148C32.6461 45.2054 29 48.8638 29 53.3371V70.8836C29 75.3568 32.6469 79.0153 37.1148 79.0153H45.5965H45.5958C45.6134 79.0137 45.6311 79.0122 45.6479 79.0107C45.694 79.0076 45.74 79.0037 45.7861 78.9976C45.9111 78.9838 46.0339 78.9569 46.1536 78.9163C46.1781 78.9124 46.2019 78.9078 46.2265 78.9032C46.4421 78.8173 46.6393 78.6876 46.8035 78.5234C46.8104 78.5165 46.8165 78.5104 46.8234 78.5035C46.97 78.3531 47.0889 78.1774 47.1718 77.984C47.1787 77.9687 47.1856 77.9541 47.1917 77.9388C47.2278 77.8474 47.2562 77.7538 47.2769 77.6579C47.2815 77.6364 47.2853 77.615 47.2899 77.5927C47.3045 77.5083 47.3137 77.4224 47.3153 77.3364C47.3168 77.3234 47.3183 77.3103 47.3191 77.2973C47.3191 77.2934 47.3183 77.2888 47.3183 77.2842C47.3168 77.1929 47.3084 77.1016 47.2922 77.0111C47.2861 76.9796 47.28 76.9482 47.2723 76.9175C47.2539 76.8338 47.2293 76.751 47.1986 76.6712C47.1971 76.6673 47.1956 76.665 47.194 76.6581C47.1894 76.6497 47.1848 76.6405 47.181 76.632C45.3671 72.0076 44.4355 67.0823 44.4355 62.1125C44.4355 57.0276 45.3877 52.17 47.1211 47.7042C47.1717 47.6052 47.2124 47.5016 47.2431 47.395C53.0662 32.7619 67.3179 22.4389 84.0005 22.4389C100.683 22.4389 114.936 32.7629 120.758 47.395H120.759C120.789 47.5009 120.83 47.6044 120.88 47.7027C122.613 52.1682 123.566 57.0269 123.566 62.1116C123.566 67.1503 122.622 72.0027 120.887 76.4799C120.817 76.6065 120.763 76.7415 120.727 76.8819C116.045 88.5855 105.934 97.6639 93.1567 100.707C91.6405 98.1623 88.8643 96.4473 85.7062 96.4473C80.9352 96.4473 77.0349 100.361 77.0349 105.137C77.0349 109.913 80.935 113.826 85.7062 113.826C90.4772 113.826 94.3775 109.913 94.3775 105.137C94.3775 104.74 94.3514 104.349 94.2977 103.966C107.695 100.657 118.364 91.2098 123.557 79.0157H130.885C135.354 79.0157 139 75.3565 139 70.884V53.3376C139 48.8643 135.354 45.2059 130.885 45.2059H123.563C116.999 29.8069 101.748 19.0005 84.0006 19.0005L83.9994 19ZM83.9994 32.0072C67.4312 32.0072 53.9677 45.51 53.9696 62.1137V62.116C53.9758 66.8909 55.1306 71.5867 57.305 75.8276L51.9323 91.9983H51.9315C51.7266 92.6159 51.8886 93.2965 52.3489 93.7561C52.8101 94.2157 53.4907 94.3761 54.1083 94.1697L70.1655 88.8002C74.4354 91.0285 79.1758 92.21 83.9975 92.2147V92.2139H83.999C100.565 92.2139 114.027 78.7148 114.029 62.1134C114.03 45.5092 100.567 32.0069 83.999 32.0069L83.9994 32.0072ZM83.9994 35.4447C98.7046 35.4447 110.594 47.3624 110.592 62.1137C110.59 76.8626 98.7034 88.7767 84.0014 88.7767C79.502 88.7729 75.0777 87.6235 71.1415 85.4375V85.4382C70.7203 85.2042 70.2192 85.1574 69.7619 85.3109L56.2782 89.8202L60.7915 76.2337H60.7922C60.9426 75.7818 60.8981 75.2877 60.6702 74.8687C58.5365 70.9579 57.4147 66.572 57.4078 62.1131V62.1124V62.1108C57.4078 47.3603 69.2961 35.4438 84.0001 35.4438L83.9994 35.4447ZM37.1142 48.6437H43.1443C41.7525 52.8822 40.9966 57.4092 40.9966 62.1119C40.9966 66.6926 41.7278 71.2381 43.152 75.5793H37.1142C34.4954 75.5793 32.4361 73.5176 32.4361 70.8851V53.3387C32.4361 50.7054 34.4954 48.6444 37.1142 48.6444V48.6437ZM124.854 48.6437H130.884C133.502 48.6437 135.562 50.7054 135.562 53.3379V70.8843C135.562 73.5176 133.502 75.5786 130.884 75.5786H124.85C126.248 71.3208 127.001 66.7892 127.001 62.1111C127.001 57.4084 126.245 52.8822 124.853 48.6429L124.854 48.6437ZM68.9826 59.4802C67.5784 59.5193 66.4298 60.6894 66.4298 62.1058C66.4298 63.5437 67.616 64.743 69.0509 64.743C70.485 64.743 71.6713 63.5445 71.6713 62.1058C71.6713 60.6679 70.485 59.4802 69.0509 59.4802C69.0317 59.4802 69.0056 59.4794 68.9826 59.4802ZM83.9317 59.4802C82.5275 59.5193 81.3789 60.6894 81.3789 62.1058C81.3789 63.5437 82.5651 64.743 83.9992 64.743C85.4333 64.743 86.6203 63.5445 86.6203 62.1058C86.6203 60.6679 85.4341 59.4802 83.9992 59.4802C83.98 59.4802 83.9539 59.4794 83.9317 59.4802ZM98.8802 59.4802C97.476 59.5193 96.3274 60.6894 96.3274 62.1058C96.3274 63.5437 97.5136 64.743 98.9477 64.743C100.383 64.743 101.568 63.5445 101.568 62.1058C101.568 60.6679 100.382 59.4802 98.9477 59.4802C98.9286 59.4802 98.9025 59.4794 98.8794 59.4802H98.8802ZM85.7066 99.8853C88.6155 99.8853 90.9404 102.214 90.9404 105.137C90.9404 108.061 88.6147 110.389 85.7066 110.389C82.7977 110.389 80.4728 108.061 80.4728 105.137C80.4728 102.214 82.7977 99.8853 85.7066 99.8853Z" fill="#2C302E"/>
<path fill-rule="evenodd" clip-rule="evenodd" d="M83.9994 19C66.2526 19 51.0016 29.808 44.437 45.2054H37.1148C32.6461 45.2054 29 48.8638 29 53.3371V70.8836C29 75.3568 32.6469 79.0153 37.1148 79.0153H45.5965H45.5958C45.6134 79.0137 45.6311 79.0122 45.6479 79.0107C45.694 79.0076 45.74 79.0037 45.7861 78.9976C45.9111 78.9838 46.0339 78.9569 46.1536 78.9163C46.1781 78.9124 46.2019 78.9078 46.2265 78.9032C46.4421 78.8173 46.6393 78.6876 46.8035 78.5234C46.8104 78.5165 46.8165 78.5104 46.8234 78.5035C46.97 78.3531 47.0889 78.1774 47.1718 77.984C47.1787 77.9687 47.1856 77.9541 47.1917 77.9388C47.2278 77.8474 47.2562 77.7538 47.2769 77.6579C47.2815 77.6364 47.2853 77.615 47.2899 77.5927C47.3045 77.5083 47.3137 77.4224 47.3153 77.3364C47.3168 77.3234 47.3183 77.3103 47.3191 77.2973C47.3191 77.2934 47.3183 77.2888 47.3183 77.2842C47.3168 77.1929 47.3084 77.1016 47.2922 77.0111C47.2861 76.9796 47.28 76.9482 47.2723 76.9175C47.2539 76.8338 47.2293 76.751 47.1986 76.6712C47.1971 76.6673 47.1956 76.665 47.194 76.6581C47.1894 76.6497 47.1848 76.6405 47.181 76.632C45.3671 72.0076 44.4355 67.0823 44.4355 62.1125C44.4355 57.0276 45.3877 52.17 47.1211 47.7042C47.1717 47.6052 47.2124 47.5016 47.2431 47.395C53.0662 32.7619 67.3179 22.4389 84.0005 22.4389C100.683 22.4389 114.936 32.7629 120.758 47.395H120.759C120.789 47.5009 120.83 47.6044 120.88 47.7027C122.613 52.1682 123.566 57.0269 123.566 62.1116C123.566 67.1503 122.622 72.0027 120.887 76.4799C120.817 76.6065 120.763 76.7415 120.727 76.8819C116.045 88.5855 105.934 97.6639 93.1567 100.707C91.6405 98.1623 88.8643 96.4473 85.7062 96.4473C80.9352 96.4473 77.0349 100.361 77.0349 105.137C77.0349 109.913 80.935 113.826 85.7062 113.826C90.4772 113.826 94.3775 109.913 94.3775 105.137C94.3775 104.74 94.3514 104.349 94.2977 103.966C107.695 100.657 118.364 91.2098 123.557 79.0157H130.885C135.354 79.0157 139 75.3565 139 70.884V53.3376C139 48.8643 135.354 45.2059 130.885 45.2059H123.563C116.999 29.8069 101.748 19.0005 84.0006 19.0005L83.9994 19ZM83.9994 32.0072C67.4312 32.0072 53.9677 45.51 53.9696 62.1137V62.116C53.9758 66.8909 55.1306 71.5867 57.305 75.8276L51.9323 91.9983H51.9315C51.7266 92.6159 51.8886 93.2965 52.3489 93.7561C52.8101 94.2157 53.4907 94.3761 54.1083 94.1697L70.1655 88.8002C74.4354 91.0285 79.1758 92.21 83.9975 92.2147V92.2139H83.999C100.565 92.2139 114.027 78.7148 114.029 62.1134C114.03 45.5092 100.567 32.0069 83.999 32.0069L83.9994 32.0072ZM83.9994 35.4447C98.7046 35.4447 110.594 47.3624 110.592 62.1137C110.59 76.8626 98.7034 88.7767 84.0014 88.7767C79.502 88.7729 75.0777 87.6235 71.1415 85.4375V85.4382C70.7203 85.2042 70.2192 85.1574 69.7619 85.3109L56.2782 89.8202L60.7915 76.2337H60.7922C60.9426 75.7818 60.8981 75.2877 60.6702 74.8687C58.5365 70.9579 57.4147 66.572 57.4078 62.1131V62.1124V62.1108C57.4078 47.3603 69.2961 35.4438 84.0001 35.4438L83.9994 35.4447ZM37.1142 48.6437H43.1443C41.7525 52.8822 40.9966 57.4092 40.9966 62.1119C40.9966 66.6926 41.7278 71.2381 43.152 75.5793H37.1142C34.4954 75.5793 32.4361 73.5176 32.4361 70.8851V53.3387C32.4361 50.7054 34.4954 48.6444 37.1142 48.6444V48.6437ZM124.854 48.6437H130.884C133.502 48.6437 135.562 50.7054 135.562 53.3379V70.8843C135.562 73.5176 133.502 75.5786 130.884 75.5786H124.85C126.248 71.3208 127.001 66.7892 127.001 62.1111C127.001 57.4084 126.245 52.8822 124.853 48.6429L124.854 48.6437ZM68.9826 59.4802C67.5784 59.5193 66.4298 60.6894 66.4298 62.1058C66.4298 63.5437 67.616 64.743 69.0509 64.743C70.485 64.743 71.6713 63.5445 71.6713 62.1058C71.6713 60.6679 70.485 59.4802 69.0509 59.4802C69.0317 59.4802 69.0056 59.4794 68.9826 59.4802ZM83.9317 59.4802C82.5275 59.5193 81.3789 60.6894 81.3789 62.1058C81.3789 63.5437 82.5651 64.743 83.9992 64.743C85.4333 64.743 86.6203 63.5445 86.6203 62.1058C86.6203 60.6679 85.4341 59.4802 83.9992 59.4802C83.98 59.4802 83.9539 59.4794 83.9317 59.4802ZM98.8802 59.4802C97.476 59.5193 96.3274 60.6894 96.3274 62.1058C96.3274 63.5437 97.5136 64.743 98.9477 64.743C100.383 64.743 101.568 63.5445 101.568 62.1058C101.568 60.6679 100.382 59.4802 98.9477 59.4802C98.9286 59.4802 98.9025 59.4794 98.8794 59.4802H98.8802ZM85.7066 99.8853C88.6155 99.8853 90.9404 102.214 90.9404 105.137C90.9404 108.061 88.6147 110.389 85.7066 110.389C82.7977 110.389 80.4728 108.061 80.4728 105.137C80.4728 102.214 82.7977 99.8853 85.7066 99.8853Z" stroke="#2C302E" stroke-width="0.4" mask="url(#path-2-outside-1_1290_49)"/>
</svg>
