<svg width="162" height="136" viewBox="0 0 162 136" fill="none" xmlns="http://www.w3.org/2000/svg">
<path d="M141.618 45.6967C148.876 62.3097 161.337 78.1496 160.479 92.5142C159.563 106.961 145.221 119.735 129.917 127.051C114.555 134.449 98.1488 136.332 84.6326 132.511C71.034 128.632 60.4079 119.106 46.1924 111.728C32.0016 104.49 14.3037 99.458 6.17212 88.1216C-1.90179 76.7028 -0.327035 59.0373 8.03831 46.74C16.3213 34.385 31.4773 27.4559 44.4928 21.4813C57.5083 15.5067 68.4656 10.5444 82.3617 6.29044C96.3154 1.95416 113.15 -1.59145 122.641 5.1765C132.131 11.9445 134.22 29.1083 141.618 45.6967Z" fill="#E1E4E8"/>
<mask id="path-2-outside-1_1290_52" maskUnits="userSpaceOnUse" x="44" y="23" width="92" height="86" fill="black">
<rect fill="white" x="44" y="23" width="92" height="86"/>
<path d="M115.438 72.2563C114.439 78.5223 110.345 83.8605 104.551 86.4485C98.758 89.0364 92.0496 88.5237 86.717 85.0855C81.3843 81.6474 78.1477 75.749 78.1134 69.4035C78.0793 63.0587 81.2516 57.1253 86.5468 53.63C91.8425 50.1346 98.5446 49.5493 104.365 52.0744C110.187 54.5996 114.339 59.8932 115.405 66.148C115.472 66.7792 115.037 67.354 114.411 67.46C113.786 67.5661 113.186 67.1664 113.042 66.5484C112.112 61.0914 108.489 56.4737 103.41 54.2709C98.3317 52.0688 92.4842 52.58 87.8644 55.6297C83.2453 58.6793 80.4782 63.8558 80.5082 69.3914C80.5382 74.9271 83.3612 80.0728 88.0137 83.0723C92.6663 86.0717 98.5186 86.5196 103.573 84.2623C108.628 82.0043 112.2 77.3475 113.071 71.8809C113.209 71.2622 113.804 70.8569 114.43 70.956C115.056 71.055 115.497 71.6242 115.437 72.2548L115.438 72.2563ZM135 102.597C134.999 103.874 134.49 105.099 133.587 106.003C132.683 106.905 131.458 107.413 130.181 107.414C128.904 107.414 127.678 106.908 126.773 106.006L113.2 92.4383C113.078 92.4473 112.956 92.4536 112.834 92.4536H112.833C111.493 92.4557 110.207 91.9235 109.259 90.9755L108.286 90.0017V90.0011C104.934 91.8516 101.18 92.8534 97.3509 92.9196C98.1726 95.0046 99.5914 96.8007 101.429 98.0835C103.267 99.3656 105.444 100.077 107.684 100.128C107.799 100.129 107.914 100.145 108.024 100.178C109.473 100.401 110.709 101.342 111.309 102.679C111.91 104.015 111.791 105.565 110.995 106.796C110.199 108.026 108.834 108.769 107.368 108.769H67.4005C65.935 108.769 64.5693 108.026 63.7734 106.796C62.9768 105.565 62.8582 104.016 63.4588 102.679C64.0587 101.342 65.2961 100.401 66.7442 100.178C66.8544 100.145 66.9695 100.129 67.0846 100.128C72.9453 100.128 77.7786 95.3282 78.3415 89.2037L47.9666 89.2044C47.1805 89.2037 46.4264 88.8905 45.8705 88.3346C45.3139 87.7787 45.0014 87.0246 45 86.2385V26.9673C45.0007 26.1805 45.3139 25.4265 45.8698 24.8698C46.4265 24.3139 47.1805 24.0007 47.9666 24H126.798C127.585 24.0014 128.339 24.3139 128.895 24.8705C129.451 25.4265 129.764 26.1805 129.765 26.9673V86.2385C129.764 87.0246 129.451 87.7787 128.895 88.3346C128.339 88.8905 127.585 89.2037 126.798 89.2044H123.608L133.59 99.1842C134.497 100.088 135.004 101.317 134.999 102.597L135 102.597ZM127.373 86.2385V80.3687L117.76 80.368C117.701 80.4783 117.642 80.5878 117.581 80.698L118.56 81.678H118.56C119.599 82.716 120.133 84.155 120.024 85.6191L121.214 86.8091H126.8C127.114 86.8063 127.369 86.5524 127.373 86.2385ZM111.9 84.3127C116.037 80.1616 118.27 74.4836 118.069 68.627C117.868 62.7704 115.251 57.2585 110.839 53.4017C106.428 49.5442 100.616 47.6853 94.7855 48.2678C88.9548 48.8495 83.6248 51.8205 80.0632 56.4737C76.5017 61.127 75.0256 67.047 75.9861 72.8275C76.9466 78.608 80.2579 83.7328 85.1338 86.9841C85.1568 86.998 85.1791 87.012 85.2 87.0273H85.1993C88.5406 89.2253 92.4343 90.437 96.4332 90.5234C100.432 90.6092 104.373 89.5664 107.807 87.5141C107.841 87.4904 107.876 87.4681 107.913 87.4478C109.361 86.5648 110.701 85.5121 111.9 84.3123L111.9 84.3127ZM71.5379 44.6325L74.0561 42.1046C74.2807 41.8786 74.587 41.7516 74.9057 41.7516C75.2252 41.7516 75.5307 41.8786 75.756 42.1046L78.2748 44.6325V35.0427H71.5378L71.5379 44.6325ZM69.1378 47.5321V35.0427H58.3851C57.9387 35.0482 57.5781 35.4089 57.5718 35.8553V68.5052C57.5781 68.9516 57.9387 69.3115 58.3851 69.3171H73.2636V69.3039C73.2622 63.9146 75.1045 58.6873 78.4847 54.4902C81.865 50.293 86.5796 47.3788 91.8453 46.232V35.8561C91.8398 35.4097 91.4791 35.0491 91.0327 35.0435H80.6665V47.5324C80.6644 48.0158 80.3714 48.451 79.925 48.6352C79.4779 48.8201 78.9638 48.7182 78.6206 48.3771L74.9047 44.6473L71.1876 48.3771C70.8444 48.7182 70.3303 48.8201 69.8839 48.6352C69.4368 48.4511 69.1438 48.0158 69.1417 47.5324L69.1378 47.5321ZM47.4003 26.9679V77.973H74.9002C74.1092 75.9655 73.5986 73.8582 73.3838 71.712H58.3838C57.5335 71.7106 56.7181 71.3723 56.1169 70.771C55.5156 70.1697 55.1773 69.3543 55.1759 68.5041V35.8542C55.1773 35.0039 55.5156 34.1885 56.1169 33.5872C56.7182 32.9859 57.5336 32.6476 58.3838 32.6462H91.0337C91.884 32.6469 92.7001 32.9852 93.3014 33.5865C93.9034 34.1885 94.2417 35.0039 94.2423 35.8542V45.8381C102.48 44.9041 110.602 48.359 115.644 54.9397C120.685 61.5203 121.906 70.2626 118.86 77.9717H127.374V26.9719C127.37 26.658 127.117 26.4048 126.803 26.3999H47.9673C47.6569 26.4062 47.4072 26.6566 47.4009 26.967L47.4003 26.9679ZM47.9716 86.8087H81.0269C80.7409 86.5485 80.4597 86.2821 80.1835 86.0086C78.5178 84.3464 77.108 82.4456 76.001 80.3676H47.4011V86.2381C47.4053 86.5499 47.6557 86.8024 47.9675 86.8087L47.9716 86.8087ZM109.3 104.448C109.299 103.386 108.438 102.525 107.376 102.524H67.4014C66.355 102.547 65.5201 103.403 65.5201 104.448C65.5201 105.494 66.3551 106.349 67.4014 106.373H107.373C108.437 106.373 109.3 105.512 109.301 104.448H109.3ZM94.7652 92.8299C90.9845 92.5007 87.3413 91.2563 84.1493 89.2041H80.7433C80.4329 93.5783 78.1833 97.5851 74.6104 100.128H100.185C97.6429 98.3397 95.742 95.7812 94.7654 92.8299H94.7652ZM110.957 89.2837C111.457 89.7797 112.133 90.058 112.837 90.058C113.542 90.058 114.217 89.7797 114.717 89.2837L116.867 87.1339H116.867C117.363 86.6338 117.641 85.9585 117.641 85.2541C117.641 84.5496 117.363 83.8743 116.867 83.3743L116.284 82.7925C115.483 83.9421 114.582 85.0191 113.591 86.0089C112.601 87.0001 111.526 87.9021 110.377 88.7043L110.957 89.2837ZM132.6 102.597C132.604 101.955 132.352 101.339 131.9 100.884L119.143 88.1259C118.97 88.3763 118.776 88.6107 118.561 88.8262L116.412 90.976C116.196 91.1909 115.962 91.3855 115.711 91.5578L128.467 104.312C129.159 105.004 130.201 105.212 131.107 104.836C132.011 104.46 132.601 103.577 132.6 102.597ZM60.0003 59.0615C60.0003 59.7242 60.5374 60.262 61.2001 60.262H70.1322C70.7949 60.262 71.3327 59.7242 71.3327 59.0615C71.3327 58.3988 70.7949 57.8617 70.1322 57.8617H61.2001C60.5374 57.8617 60.0003 58.3988 60.0003 59.0615ZM70.1321 61.7833H61.2C60.5373 61.7833 60.0002 62.3211 60.0002 62.9838C60.0002 63.6464 60.5373 64.1835 61.2 64.1835H70.1321C70.7947 64.1835 71.3325 63.6464 71.3325 62.9838C71.3325 62.3211 70.7947 61.7833 70.1321 61.7833Z"/>
</mask>
<path d="M115.438 72.2563C114.439 78.5223 110.345 83.8605 104.551 86.4485C98.758 89.0364 92.0496 88.5237 86.717 85.0855C81.3843 81.6474 78.1477 75.749 78.1134 69.4035C78.0793 63.0587 81.2516 57.1253 86.5468 53.63C91.8425 50.1346 98.5446 49.5493 104.365 52.0744C110.187 54.5996 114.339 59.8932 115.405 66.148C115.472 66.7792 115.037 67.354 114.411 67.46C113.786 67.5661 113.186 67.1664 113.042 66.5484C112.112 61.0914 108.489 56.4737 103.41 54.2709C98.3317 52.0688 92.4842 52.58 87.8644 55.6297C83.2453 58.6793 80.4782 63.8558 80.5082 69.3914C80.5382 74.9271 83.3612 80.0728 88.0137 83.0723C92.6663 86.0717 98.5186 86.5196 103.573 84.2623C108.628 82.0043 112.2 77.3475 113.071 71.8809C113.209 71.2622 113.804 70.8569 114.43 70.956C115.056 71.055 115.497 71.6242 115.437 72.2548L115.438 72.2563ZM135 102.597C134.999 103.874 134.49 105.099 133.587 106.003C132.683 106.905 131.458 107.413 130.181 107.414C128.904 107.414 127.678 106.908 126.773 106.006L113.2 92.4383C113.078 92.4473 112.956 92.4536 112.834 92.4536H112.833C111.493 92.4557 110.207 91.9235 109.259 90.9755L108.286 90.0017V90.0011C104.934 91.8516 101.18 92.8534 97.3509 92.9196C98.1726 95.0046 99.5914 96.8007 101.429 98.0835C103.267 99.3656 105.444 100.077 107.684 100.128C107.799 100.129 107.914 100.145 108.024 100.178C109.473 100.401 110.709 101.342 111.309 102.679C111.91 104.015 111.791 105.565 110.995 106.796C110.199 108.026 108.834 108.769 107.368 108.769H67.4005C65.935 108.769 64.5693 108.026 63.7734 106.796C62.9768 105.565 62.8582 104.016 63.4588 102.679C64.0587 101.342 65.2961 100.401 66.7442 100.178C66.8544 100.145 66.9695 100.129 67.0846 100.128C72.9453 100.128 77.7786 95.3282 78.3415 89.2037L47.9666 89.2044C47.1805 89.2037 46.4264 88.8905 45.8705 88.3346C45.3139 87.7787 45.0014 87.0246 45 86.2385V26.9673C45.0007 26.1805 45.3139 25.4265 45.8698 24.8698C46.4265 24.3139 47.1805 24.0007 47.9666 24H126.798C127.585 24.0014 128.339 24.3139 128.895 24.8705C129.451 25.4265 129.764 26.1805 129.765 26.9673V86.2385C129.764 87.0246 129.451 87.7787 128.895 88.3346C128.339 88.8905 127.585 89.2037 126.798 89.2044H123.608L133.59 99.1842C134.497 100.088 135.004 101.317 134.999 102.597L135 102.597ZM127.373 86.2385V80.3687L117.76 80.368C117.701 80.4783 117.642 80.5878 117.581 80.698L118.56 81.678H118.56C119.599 82.716 120.133 84.155 120.024 85.6191L121.214 86.8091H126.8C127.114 86.8063 127.369 86.5524 127.373 86.2385ZM111.9 84.3127C116.037 80.1616 118.27 74.4836 118.069 68.627C117.868 62.7704 115.251 57.2585 110.839 53.4017C106.428 49.5442 100.616 47.6853 94.7855 48.2678C88.9548 48.8495 83.6248 51.8205 80.0632 56.4737C76.5017 61.127 75.0256 67.047 75.9861 72.8275C76.9466 78.608 80.2579 83.7328 85.1338 86.9841C85.1568 86.998 85.1791 87.012 85.2 87.0273H85.1993C88.5406 89.2253 92.4343 90.437 96.4332 90.5234C100.432 90.6092 104.373 89.5664 107.807 87.5141C107.841 87.4904 107.876 87.4681 107.913 87.4478C109.361 86.5648 110.701 85.5121 111.9 84.3123L111.9 84.3127ZM71.5379 44.6325L74.0561 42.1046C74.2807 41.8786 74.587 41.7516 74.9057 41.7516C75.2252 41.7516 75.5307 41.8786 75.756 42.1046L78.2748 44.6325V35.0427H71.5378L71.5379 44.6325ZM69.1378 47.5321V35.0427H58.3851C57.9387 35.0482 57.5781 35.4089 57.5718 35.8553V68.5052C57.5781 68.9516 57.9387 69.3115 58.3851 69.3171H73.2636V69.3039C73.2622 63.9146 75.1045 58.6873 78.4847 54.4902C81.865 50.293 86.5796 47.3788 91.8453 46.232V35.8561C91.8398 35.4097 91.4791 35.0491 91.0327 35.0435H80.6665V47.5324C80.6644 48.0158 80.3714 48.451 79.925 48.6352C79.4779 48.8201 78.9638 48.7182 78.6206 48.3771L74.9047 44.6473L71.1876 48.3771C70.8444 48.7182 70.3303 48.8201 69.8839 48.6352C69.4368 48.4511 69.1438 48.0158 69.1417 47.5324L69.1378 47.5321ZM47.4003 26.9679V77.973H74.9002C74.1092 75.9655 73.5986 73.8582 73.3838 71.712H58.3838C57.5335 71.7106 56.7181 71.3723 56.1169 70.771C55.5156 70.1697 55.1773 69.3543 55.1759 68.5041V35.8542C55.1773 35.0039 55.5156 34.1885 56.1169 33.5872C56.7182 32.9859 57.5336 32.6476 58.3838 32.6462H91.0337C91.884 32.6469 92.7001 32.9852 93.3014 33.5865C93.9034 34.1885 94.2417 35.0039 94.2423 35.8542V45.8381C102.48 44.9041 110.602 48.359 115.644 54.9397C120.685 61.5203 121.906 70.2626 118.86 77.9717H127.374V26.9719C127.37 26.658 127.117 26.4048 126.803 26.3999H47.9673C47.6569 26.4062 47.4072 26.6566 47.4009 26.967L47.4003 26.9679ZM47.9716 86.8087H81.0269C80.7409 86.5485 80.4597 86.2821 80.1835 86.0086C78.5178 84.3464 77.108 82.4456 76.001 80.3676H47.4011V86.2381C47.4053 86.5499 47.6557 86.8024 47.9675 86.8087L47.9716 86.8087ZM109.3 104.448C109.299 103.386 108.438 102.525 107.376 102.524H67.4014C66.355 102.547 65.5201 103.403 65.5201 104.448C65.5201 105.494 66.3551 106.349 67.4014 106.373H107.373C108.437 106.373 109.3 105.512 109.301 104.448H109.3ZM94.7652 92.8299C90.9845 92.5007 87.3413 91.2563 84.1493 89.2041H80.7433C80.4329 93.5783 78.1833 97.5851 74.6104 100.128H100.185C97.6429 98.3397 95.742 95.7812 94.7654 92.8299H94.7652ZM110.957 89.2837C111.457 89.7797 112.133 90.058 112.837 90.058C113.542 90.058 114.217 89.7797 114.717 89.2837L116.867 87.1339H116.867C117.363 86.6338 117.641 85.9585 117.641 85.2541C117.641 84.5496 117.363 83.8743 116.867 83.3743L116.284 82.7925C115.483 83.9421 114.582 85.0191 113.591 86.0089C112.601 87.0001 111.526 87.9021 110.377 88.7043L110.957 89.2837ZM132.6 102.597C132.604 101.955 132.352 101.339 131.9 100.884L119.143 88.1259C118.97 88.3763 118.776 88.6107 118.561 88.8262L116.412 90.976C116.196 91.1909 115.962 91.3855 115.711 91.5578L128.467 104.312C129.159 105.004 130.201 105.212 131.107 104.836C132.011 104.46 132.601 103.577 132.6 102.597ZM60.0003 59.0615C60.0003 59.7242 60.5374 60.262 61.2001 60.262H70.1322C70.7949 60.262 71.3327 59.7242 71.3327 59.0615C71.3327 58.3988 70.7949 57.8617 70.1322 57.8617H61.2001C60.5374 57.8617 60.0003 58.3988 60.0003 59.0615ZM70.1321 61.7833H61.2C60.5373 61.7833 60.0002 62.3211 60.0002 62.9838C60.0002 63.6464 60.5373 64.1835 61.2 64.1835H70.1321C70.7947 64.1835 71.3325 63.6464 71.3325 62.9838C71.3325 62.3211 70.7947 61.7833 70.1321 61.7833Z" fill="#2C302E"/>
<path d="M115.438 72.2563C114.439 78.5223 110.345 83.8605 104.551 86.4485C98.758 89.0364 92.0496 88.5237 86.717 85.0855C81.3843 81.6474 78.1477 75.749 78.1134 69.4035C78.0793 63.0587 81.2516 57.1253 86.5468 53.63C91.8425 50.1346 98.5446 49.5493 104.365 52.0744C110.187 54.5996 114.339 59.8932 115.405 66.148C115.472 66.7792 115.037 67.354 114.411 67.46C113.786 67.5661 113.186 67.1664 113.042 66.5484C112.112 61.0914 108.489 56.4737 103.41 54.2709C98.3317 52.0688 92.4842 52.58 87.8644 55.6297C83.2453 58.6793 80.4782 63.8558 80.5082 69.3914C80.5382 74.9271 83.3612 80.0728 88.0137 83.0723C92.6663 86.0717 98.5186 86.5196 103.573 84.2623C108.628 82.0043 112.2 77.3475 113.071 71.8809C113.209 71.2622 113.804 70.8569 114.43 70.956C115.056 71.055 115.497 71.6242 115.437 72.2548L115.438 72.2563ZM135 102.597C134.999 103.874 134.49 105.099 133.587 106.003C132.683 106.905 131.458 107.413 130.181 107.414C128.904 107.414 127.678 106.908 126.773 106.006L113.2 92.4383C113.078 92.4473 112.956 92.4536 112.834 92.4536H112.833C111.493 92.4557 110.207 91.9235 109.259 90.9755L108.286 90.0017V90.0011C104.934 91.8516 101.18 92.8534 97.3509 92.9196C98.1726 95.0046 99.5914 96.8007 101.429 98.0835C103.267 99.3656 105.444 100.077 107.684 100.128C107.799 100.129 107.914 100.145 108.024 100.178C109.473 100.401 110.709 101.342 111.309 102.679C111.91 104.015 111.791 105.565 110.995 106.796C110.199 108.026 108.834 108.769 107.368 108.769H67.4005C65.935 108.769 64.5693 108.026 63.7734 106.796C62.9768 105.565 62.8582 104.016 63.4588 102.679C64.0587 101.342 65.2961 100.401 66.7442 100.178C66.8544 100.145 66.9695 100.129 67.0846 100.128C72.9453 100.128 77.7786 95.3282 78.3415 89.2037L47.9666 89.2044C47.1805 89.2037 46.4264 88.8905 45.8705 88.3346C45.3139 87.7787 45.0014 87.0246 45 86.2385V26.9673C45.0007 26.1805 45.3139 25.4265 45.8698 24.8698C46.4265 24.3139 47.1805 24.0007 47.9666 24H126.798C127.585 24.0014 128.339 24.3139 128.895 24.8705C129.451 25.4265 129.764 26.1805 129.765 26.9673V86.2385C129.764 87.0246 129.451 87.7787 128.895 88.3346C128.339 88.8905 127.585 89.2037 126.798 89.2044H123.608L133.59 99.1842C134.497 100.088 135.004 101.317 134.999 102.597L135 102.597ZM127.373 86.2385V80.3687L117.76 80.368C117.701 80.4783 117.642 80.5878 117.581 80.698L118.56 81.678H118.56C119.599 82.716 120.133 84.155 120.024 85.6191L121.214 86.8091H126.8C127.114 86.8063 127.369 86.5524 127.373 86.2385ZM111.9 84.3127C116.037 80.1616 118.27 74.4836 118.069 68.627C117.868 62.7704 115.251 57.2585 110.839 53.4017C106.428 49.5442 100.616 47.6853 94.7855 48.2678C88.9548 48.8495 83.6248 51.8205 80.0632 56.4737C76.5017 61.127 75.0256 67.047 75.9861 72.8275C76.9466 78.608 80.2579 83.7328 85.1338 86.9841C85.1568 86.998 85.1791 87.012 85.2 87.0273H85.1993C88.5406 89.2253 92.4343 90.437 96.4332 90.5234C100.432 90.6092 104.373 89.5664 107.807 87.5141C107.841 87.4904 107.876 87.4681 107.913 87.4478C109.361 86.5648 110.701 85.5121 111.9 84.3123L111.9 84.3127ZM71.5379 44.6325L74.0561 42.1046C74.2807 41.8786 74.587 41.7516 74.9057 41.7516C75.2252 41.7516 75.5307 41.8786 75.756 42.1046L78.2748 44.6325V35.0427H71.5378L71.5379 44.6325ZM69.1378 47.5321V35.0427H58.3851C57.9387 35.0482 57.5781 35.4089 57.5718 35.8553V68.5052C57.5781 68.9516 57.9387 69.3115 58.3851 69.3171H73.2636V69.3039C73.2622 63.9146 75.1045 58.6873 78.4847 54.4902C81.865 50.293 86.5796 47.3788 91.8453 46.232V35.8561C91.8398 35.4097 91.4791 35.0491 91.0327 35.0435H80.6665V47.5324C80.6644 48.0158 80.3714 48.451 79.925 48.6352C79.4779 48.8201 78.9638 48.7182 78.6206 48.3771L74.9047 44.6473L71.1876 48.3771C70.8444 48.7182 70.3303 48.8201 69.8839 48.6352C69.4368 48.4511 69.1438 48.0158 69.1417 47.5324L69.1378 47.5321ZM47.4003 26.9679V77.973H74.9002C74.1092 75.9655 73.5986 73.8582 73.3838 71.712H58.3838C57.5335 71.7106 56.7181 71.3723 56.1169 70.771C55.5156 70.1697 55.1773 69.3543 55.1759 68.5041V35.8542C55.1773 35.0039 55.5156 34.1885 56.1169 33.5872C56.7182 32.9859 57.5336 32.6476 58.3838 32.6462H91.0337C91.884 32.6469 92.7001 32.9852 93.3014 33.5865C93.9034 34.1885 94.2417 35.0039 94.2423 35.8542V45.8381C102.48 44.9041 110.602 48.359 115.644 54.9397C120.685 61.5203 121.906 70.2626 118.86 77.9717H127.374V26.9719C127.37 26.658 127.117 26.4048 126.803 26.3999H47.9673C47.6569 26.4062 47.4072 26.6566 47.4009 26.967L47.4003 26.9679ZM47.9716 86.8087H81.0269C80.7409 86.5485 80.4597 86.2821 80.1835 86.0086C78.5178 84.3464 77.108 82.4456 76.001 80.3676H47.4011V86.2381C47.4053 86.5499 47.6557 86.8024 47.9675 86.8087L47.9716 86.8087ZM109.3 104.448C109.299 103.386 108.438 102.525 107.376 102.524H67.4014C66.355 102.547 65.5201 103.403 65.5201 104.448C65.5201 105.494 66.3551 106.349 67.4014 106.373H107.373C108.437 106.373 109.3 105.512 109.301 104.448H109.3ZM94.7652 92.8299C90.9845 92.5007 87.3413 91.2563 84.1493 89.2041H80.7433C80.4329 93.5783 78.1833 97.5851 74.6104 100.128H100.185C97.6429 98.3397 95.742 95.7812 94.7654 92.8299H94.7652ZM110.957 89.2837C111.457 89.7797 112.133 90.058 112.837 90.058C113.542 90.058 114.217 89.7797 114.717 89.2837L116.867 87.1339H116.867C117.363 86.6338 117.641 85.9585 117.641 85.2541C117.641 84.5496 117.363 83.8743 116.867 83.3743L116.284 82.7925C115.483 83.9421 114.582 85.0191 113.591 86.0089C112.601 87.0001 111.526 87.9021 110.377 88.7043L110.957 89.2837ZM132.6 102.597C132.604 101.955 132.352 101.339 131.9 100.884L119.143 88.1259C118.97 88.3763 118.776 88.6107 118.561 88.8262L116.412 90.976C116.196 91.1909 115.962 91.3855 115.711 91.5578L128.467 104.312C129.159 105.004 130.201 105.212 131.107 104.836C132.011 104.46 132.601 103.577 132.6 102.597ZM60.0003 59.0615C60.0003 59.7242 60.5374 60.262 61.2001 60.262H70.1322C70.7949 60.262 71.3327 59.7242 71.3327 59.0615C71.3327 58.3988 70.7949 57.8617 70.1322 57.8617H61.2001C60.5374 57.8617 60.0003 58.3988 60.0003 59.0615ZM70.1321 61.7833H61.2C60.5373 61.7833 60.0002 62.3211 60.0002 62.9838C60.0002 63.6464 60.5373 64.1835 61.2 64.1835H70.1321C70.7947 64.1835 71.3325 63.6464 71.3325 62.9838C71.3325 62.3211 70.7947 61.7833 70.1321 61.7833Z" stroke="#2C302E" stroke-width="0.4" mask="url(#path-2-outside-1_1290_52)"/>
</svg>
