<svg width="164" height="136" viewBox="0 0 164 136" fill="none" xmlns="http://www.w3.org/2000/svg">
<path d="M142.961 45.6967C150.219 62.3097 162.68 78.1496 161.822 92.5142C160.906 106.961 146.565 119.735 131.26 127.051C115.899 134.449 99.4922 136.332 85.976 132.511C72.3774 128.632 61.7513 119.106 47.5358 111.728C33.345 104.49 15.6471 99.458 7.5155 88.1216C-0.558407 76.7028 1.01635 59.0373 9.38169 46.74C17.6647 34.385 32.8206 27.4559 45.8361 21.4813C58.8516 15.5067 69.809 10.5444 83.7051 6.29044C97.6588 1.95416 114.494 -1.59145 123.984 5.1765C133.474 11.9445 135.563 29.1083 142.961 45.6967Z" fill="#E1E4E8"/>
<path d="M80.8506 114.339L128.936 88.8063C129.575 88.3811 130 87.7425 130 86.8913V41.1452C130 40.294 129.361 39.4428 128.724 39.2303L80.8512 13.061C80.2125 12.6359 79.3623 12.6359 78.9362 13.061C75.3187 14.976 38.2981 34.7625 31.0637 38.3802C30.4251 38.8053 29.9999 39.6565 29.9999 40.2952V82.2096C29.9999 82.8483 30.4251 83.6985 31.0637 83.912L78.723 113.913C79.1481 114.125 79.3617 114.338 79.7868 114.338C80.2119 114.551 80.637 114.338 80.8506 114.338L80.8506 114.339ZM81.9143 108.806V68.5945L97.4459 60.0843V72.4244C97.4459 73.2756 97.871 73.9133 98.5096 74.3394C98.9347 74.5519 99.1483 74.5519 99.5734 74.5519C99.9985 74.5519 100.212 74.5519 100.637 74.3394L112.34 67.9568C112.978 67.5317 113.403 66.893 113.403 66.0418V51.3606L125.743 44.552V85.4032L81.9143 108.806ZM63.1906 26.2538L109.147 51.3598V64.7637L101.701 68.8062V56.4661V56.2535V56.041C101.701 55.8284 101.701 55.6158 101.488 55.4023C101.276 55.1897 101.276 54.9772 101.063 54.7636L100.638 54.3385L55.7423 30.296L63.1906 26.2538ZM79.7869 17.3175L123.404 41.1474L111.276 47.7437L67.6594 23.9137L79.7869 17.3175ZM51.0624 32.6364L95.1058 56.4663L79.7869 64.7639L36.5961 40.2963L51.0624 32.6364ZM34.2537 81.1483V43.9156L77.6577 68.3832V108.384L34.2537 81.1483Z" fill="#2C302E"/>
<path d="M69.9381 78.9383L44.222 64.019C43.2405 63.4297 42.0629 63.8229 41.4736 64.8044C40.8843 65.7859 41.2775 66.9635 42.259 67.5527L67.9751 82.4721C68.9566 83.0613 70.1342 82.6682 70.7235 81.6867C71.3119 80.7052 70.9196 79.5276 69.9381 78.9383Z" fill="#2C302E"/>
<path d="M69.7413 88.7538L44.0251 73.6383C43.0436 73.2451 41.866 73.4421 41.2767 74.4236C40.6875 75.4051 41.0806 76.5827 42.0621 77.172L67.7783 92.0913C68.7598 92.6806 69.9374 92.2874 70.5267 91.306C71.115 90.5206 70.7228 89.343 69.7413 88.7538Z" fill="#2C302E"/>
<circle cx="128" cy="98.7422" r="25" fill="#E6E7E9"/>
<path fill-rule="evenodd" clip-rule="evenodd" d="M128 73.7422C114.202 73.7422 103 84.9441 103 98.7422C103 112.54 114.202 123.742 128 123.742C141.798 123.742 153 112.54 153 98.7422C153 84.9441 141.798 73.7422 128 73.7422ZM128 77.0755C139.958 77.0755 149.667 86.7841 149.667 98.7422C149.667 110.7 139.958 120.409 128 120.409C116.042 120.409 106.333 110.7 106.333 98.7422C106.333 86.7841 116.042 77.0755 128 77.0755Z" fill="#2C302E"/>
<path fill-rule="evenodd" clip-rule="evenodd" d="M116.823 99.9402L123.489 106.589C124.141 107.239 125.194 107.237 125.844 106.587L139.178 93.2535C139.828 92.6036 139.828 91.547 139.178 90.8971C138.528 90.2469 137.471 90.2469 136.821 90.8971L124.665 103.053L119.177 97.5797C118.525 96.9298 117.47 96.9316 116.82 97.5831C116.17 98.2349 116.172 99.2899 116.823 99.9398L116.823 99.9402Z" fill="#2C302E"/>
</svg>
