<svg width="163" height="136" viewBox="0 0 163 136" fill="none" xmlns="http://www.w3.org/2000/svg">
<path d="M142.961 45.6967C150.219 62.3097 162.68 78.1496 161.822 92.5142C160.906 106.961 146.565 119.735 131.26 127.051C115.899 134.449 99.4922 136.332 85.976 132.511C72.3774 128.632 61.7513 119.106 47.5358 111.728C33.345 104.49 15.6471 99.458 7.5155 88.1216C-0.558407 76.7028 1.01635 59.0373 9.38169 46.74C17.6647 34.385 32.8206 27.4559 45.8361 21.4813C58.8516 15.5067 69.809 10.5444 83.7051 6.29044C97.6588 1.95416 114.494 -1.59145 123.984 5.1765C133.474 11.9445 135.563 29.1083 142.961 45.6967Z" fill="#E1E4E8"/>
<path d="M128.587 44.8008C128.83 44.5857 128.979 44.2871 128.998 43.9599C129.017 43.6424 128.905 43.3243 128.699 43.0811L122.708 36.3053L123.036 35.7916C123.213 35.5204 123.269 35.1932 123.204 34.8757C123.139 34.5582 122.942 34.2871 122.671 34.1091L118.242 31.259L116.289 29.0537C116.289 29.0537 116.289 29.0446 116.28 29.0446L116.27 29.0354L109.186 21.0263C108.738 20.5218 107.971 20.4748 107.467 20.9233L105.224 22.9044L97.8872 18.1945C97.616 18.0172 97.2887 17.9611 96.9713 18.0263C96.6538 18.0915 96.3826 18.2877 96.2046 18.5589L93.8591 22.2128L84.4288 19.1568C83.7932 18.9515 83.1016 19.297 82.8962 19.9417L73.7001 48.362H65.766C59.2804 48.362 54 53.6423 54 60.1279V97.8086C54 105.322 60.1121 111.443 67.6349 111.443H120.447C121.12 111.443 121.662 110.902 121.662 110.228V94.4911H123.204C124.989 94.4911 126.447 93.0334 126.447 91.2478V79.2205C126.447 77.4357 124.989 75.9773 123.204 75.9773H121.662V60.4455C121.662 59.7727 121.12 59.2304 120.447 59.2304H115.363V56.5107L128.587 44.8008ZM68.4301 58.6972C68.5513 58.8745 68.6635 59.0525 68.7665 59.2298H67.8225L68.4301 58.6972ZM84.7378 50.0343C85.3173 48.5949 86.2143 47.3334 87.3916 46.2866C89.4105 44.5017 92.0082 43.6047 94.69 43.773C97.3817 43.9411 99.8484 45.1374 101.634 47.1562C102.401 48.016 102.998 48.9789 103.419 50.0343C104.643 53.0343 104.326 56.5017 102.606 59.2304H99.3164L99.3444 59.2024C99.5687 59.0061 99.5876 58.6606 99.3913 58.4266L98.9057 57.8751C99.4102 57.3236 99.7466 56.735 99.9246 56.1085C100.102 55.482 100.13 54.8842 99.9996 54.3138C99.8783 53.7441 99.626 53.2486 99.261 52.8373C98.8685 52.3979 98.3731 52.0706 97.7753 51.8744C97.1769 51.6782 96.495 51.6411 95.7283 51.7812C94.9616 51.9214 94.1768 52.2669 93.3731 52.8184L93.3633 52.8379C92.8588 53.1932 92.3444 53.4175 91.8216 53.5204C91.2981 53.6234 90.9057 53.5296 90.6534 53.2493C90.5041 53.0811 90.4481 52.8659 90.4761 52.5948C90.5041 52.3236 90.6352 52.025 90.8594 51.6978C91.0837 51.3705 91.4011 51.025 91.8222 50.6886L91.8692 50.6515C92.1866 50.3712 92.5797 50.1378 93.0563 49.9409C93.3457 49.8288 93.6169 49.7356 93.8692 49.6795C94.1404 49.6143 94.3177 49.3621 94.2896 49.0909L94.1775 47.9507C94.1404 47.6235 93.8411 47.409 93.5139 47.4742C93.1775 47.5491 92.8222 47.6515 92.4389 47.7916C91.8314 48.025 91.2799 48.3151 90.7753 48.6795L90.392 48.2499C90.1958 48.0257 89.8503 48.0068 89.6162 48.203L88.7753 48.9416C88.551 49.1378 88.5321 49.4833 88.7284 49.7173L89.1769 50.2219C88.7564 50.7734 88.4761 51.3249 88.345 51.8855C88.214 52.4461 88.2049 52.9696 88.3261 53.4552C88.4383 53.9409 88.6625 54.3712 88.9806 54.7264C89.2701 55.0537 89.6351 55.3151 90.0556 55.4931C90.4761 55.6802 90.9343 55.7734 91.4291 55.7825C91.9526 55.7916 92.4852 55.6984 93.0367 55.5113C93.5882 55.3151 94.1299 55.0348 94.6534 54.6606C95.3261 54.2121 95.9246 53.9689 96.448 53.9409C96.9715 53.9129 97.3548 54.0341 97.6071 54.3242C97.7564 54.5015 97.8503 54.7167 97.8685 54.9689C97.8874 55.2304 97.8314 55.5015 97.6912 55.7916C97.5602 56.0811 97.3359 56.3712 97.0276 56.6424L96.9715 56.6893C96.0928 57.465 95.2616 57.8764 94.4761 57.9135C94.3079 57.9227 94.1397 57.9135 93.9807 57.8946C93.7095 57.8666 93.4481 58.0348 93.3822 58.2962L93.1391 59.2401H85.5504C83.8306 56.5107 83.5132 53.0432 84.7375 50.0341L84.7378 50.0343ZM105.381 59.2299C106.867 56.0898 107.007 52.3798 105.68 49.1177C105.157 47.8185 104.409 46.6132 103.465 45.5479C101.25 43.0433 98.1943 41.5479 94.8488 41.3426C91.5124 41.1373 88.2882 42.2494 85.7836 44.4639C84.3162 45.7631 83.214 47.3237 82.4843 49.1177C81.1291 52.4352 81.2601 56.08 82.7738 59.2299H71.4948C71.1584 58.473 70.7562 57.7442 70.2706 57.0707L100.184 30.6047C102.446 32.6887 105.353 33.7539 108.268 33.7539C110.698 33.7539 113.128 33.0153 115.212 31.5205L116.521 33.0062C116.54 33.0251 116.558 33.0433 116.568 33.0622L118.605 35.3706C114.652 39.66 114.371 46.2676 118.044 50.8744L108.596 59.2289L105.381 59.2299ZM119.876 49.2586C117.091 45.6607 117.268 40.5858 120.231 37.2033L126.053 43.7918L119.876 49.2586ZM108.157 23.5502L113.586 29.6903C110.035 32.1016 105.25 31.8116 102.017 28.9798L108.157 23.5502ZM97.5871 20.8957L103.316 24.5775L99.4379 28.0071C99.4288 28.0071 99.4288 28.0163 99.419 28.0163C99.4099 28.0163 99.4099 28.0254 99.4099 28.0254L84.55 41.185L95.3537 24.3815C95.3727 24.3626 95.3818 24.3345 95.4007 24.3163L97.5871 20.8957ZM84.8304 21.8488L92.4842 24.3253L77.8401 47.12L76.1765 48.5874L84.8304 21.8488ZM65.7573 50.7914H72.9066L72.5891 51.7634L67.7854 56.0065H67.7762L67.7671 56.0157L64.1316 59.2308H56.4497C56.9256 54.5014 60.9165 50.7914 65.7573 50.7914ZM123.998 79.22V91.2572C123.998 91.7057 123.634 92.0701 123.185 92.0701H106.793C103.475 92.0701 100.774 89.3692 100.774 86.0519V84.4352C100.774 81.1178 103.475 78.4171 106.793 78.4171H123.184C123.634 78.4073 123.998 78.7717 123.998 79.2202L123.998 79.22ZM119.213 66.4449H118.606C117.933 66.4449 117.39 66.9866 117.39 67.66C117.39 68.3328 117.932 68.8751 118.606 68.8751H119.213V75.9684L106.793 75.9677C102.129 75.9677 98.3441 79.7616 98.3441 84.4162V86.0329C98.3441 90.6964 102.138 94.4814 106.793 94.4814H119.213V100.201H118.297C117.624 100.201 117.082 100.743 117.082 101.416C117.082 102.089 117.624 102.631 118.297 102.631H119.213V109.005H67.626C63.1776 109.005 59.3274 106.397 57.5237 102.631H57.8041C58.4768 102.631 59.0192 102.089 59.0192 101.416C59.0192 100.743 58.4774 100.201 57.8041 100.201H56.6828C56.5146 99.4252 56.4214 98.6312 56.4214 97.8085L56.4207 68.8742H57.0283C57.701 68.8742 58.2434 68.3325 58.2434 67.6591C58.2434 66.9864 57.7017 66.444 57.0283 66.444H56.4207V61.6683H114.119H114.128H119.212L119.213 66.4449ZM112.914 59.2299H112.278L112.914 58.6692V59.2299Z" fill="#2C302E"/>
<path d="M108.258 80.7525C105.67 80.7525 103.567 82.8556 103.567 85.4441C103.567 88.0328 105.67 90.1357 108.258 90.1357C110.847 90.1357 112.95 88.0327 112.95 85.4441C112.949 82.8646 110.847 80.7525 108.258 80.7525ZM108.258 87.7154C107.015 87.7154 105.997 86.6965 105.997 85.454C105.997 84.2108 107.016 83.1925 108.258 83.1925C109.502 83.1925 110.52 84.2114 110.52 85.454C110.52 86.6965 109.501 87.7154 108.258 87.7154Z" fill="#2C302E"/>
<path d="M78.7651 68.8737C79.4378 68.8737 79.9802 68.332 79.9802 67.6586C79.9802 66.9859 79.4385 66.4435 78.7651 66.4435H75.1392C74.4664 66.4435 73.9241 66.9852 73.9241 67.6586C73.9241 68.3314 74.4658 68.8737 75.1392 68.8737H78.7651Z" fill="#2C302E"/>
<path d="M111.361 66.444C110.688 66.444 110.146 66.9857 110.146 67.6591C110.146 68.3318 110.687 68.8742 111.361 68.8742H114.987C115.659 68.8742 116.202 68.3325 116.202 67.6591C116.202 66.9863 115.66 66.444 114.987 66.444H111.361Z" fill="#2C302E"/>
<path d="M64.2797 68.8737C64.9524 68.8737 65.4948 68.332 65.4948 67.6586C65.4948 66.9859 64.953 66.4435 64.2797 66.4435H60.6538C59.981 66.4435 59.4387 66.9852 59.4387 67.6586C59.4387 68.3314 59.9804 68.8737 60.6538 68.8737H64.2797Z" fill="#2C302E"/>
<path d="M107.744 66.444H104.119C103.446 66.444 102.904 66.9857 102.904 67.6591C102.904 68.3318 103.445 68.8742 104.119 68.8742H107.744C108.417 68.8742 108.96 68.3325 108.96 67.6591C108.96 66.9857 108.417 66.444 107.744 66.444Z" fill="#2C302E"/>
<path d="M100.502 66.444H96.8759C96.2031 66.444 95.6608 66.9857 95.6608 67.6591C95.6608 68.3318 96.2025 68.8742 96.8759 68.8742H100.502C101.175 68.8742 101.717 68.3325 101.717 67.6591C101.717 66.9857 101.175 66.444 100.502 66.444Z" fill="#2C302E"/>
<path d="M89.6343 68.8737H93.2602C93.9329 68.8737 94.4753 68.332 94.4753 67.6586C94.4753 66.9859 93.9336 66.4435 93.2602 66.4435H89.6343C88.9616 66.4435 88.4192 66.9852 88.4192 67.6586C88.4192 68.332 88.9616 68.8737 89.6343 68.8737Z" fill="#2C302E"/>
<path d="M82.3917 68.8737H86.0176C86.6903 68.8737 87.2327 68.332 87.2327 67.6586C87.2327 66.9859 86.691 66.4435 86.0176 66.4435H82.3917C81.7189 66.4435 81.1766 66.9852 81.1766 67.6586C81.1766 68.332 81.7189 68.8737 82.3917 68.8737Z" fill="#2C302E"/>
<path d="M71.5223 68.8737C72.1951 68.8737 72.7374 68.332 72.7374 67.6586C72.7374 66.9859 72.1957 66.4435 71.5223 66.4435H67.8964C67.2237 66.4435 66.6813 66.9852 66.6813 67.6586C66.6813 68.3314 67.2231 68.8737 67.8964 68.8737H71.5223Z" fill="#2C302E"/>
<path d="M79.1571 100.219H75.5965C74.9238 100.219 74.3814 100.761 74.3814 101.435C74.3814 102.107 74.9231 102.65 75.5965 102.65H79.1571C79.8299 102.65 80.3723 102.108 80.3723 101.435C80.3723 100.762 79.8305 100.219 79.1571 100.219Z" fill="#2C302E"/>
<path d="M93.391 100.219H89.8304C89.1577 100.219 88.6153 100.761 88.6153 101.435C88.6153 102.107 89.157 102.65 89.8304 102.65H93.391C94.0638 102.65 94.6061 102.108 94.6061 101.435C94.6061 100.762 94.0638 100.219 93.391 100.219Z" fill="#2C302E"/>
<path d="M86.2783 100.219H82.7177C82.0449 100.219 81.5026 100.761 81.5026 101.435C81.5026 102.107 82.0443 102.65 82.7177 102.65H86.2783C86.951 102.65 87.4934 102.108 87.4934 101.435C87.4928 100.762 86.951 100.219 86.2783 100.219Z" fill="#2C302E"/>
<path d="M95.7374 101.434C95.7374 102.107 96.2792 102.649 96.9525 102.649H100.513C101.186 102.649 101.728 102.108 101.728 101.434C101.728 100.762 101.187 100.219 100.513 100.219H96.9525C96.2791 100.219 95.7374 100.762 95.7374 101.434Z" fill="#2C302E"/>
<path d="M72.0365 100.219H68.4759C67.8032 100.219 67.2608 100.761 67.2608 101.435C67.2608 102.107 67.8025 102.65 68.4759 102.65H72.0365C72.7093 102.65 73.2517 102.108 73.2517 101.435C73.2608 100.762 72.7099 100.219 72.0365 100.219Z" fill="#2C302E"/>
<path d="M104.073 102.649H107.634C108.306 102.649 108.849 102.108 108.849 101.434C108.849 100.761 108.307 100.219 107.634 100.219H104.073C103.4 100.219 102.858 100.761 102.858 101.434C102.849 102.108 103.4 102.649 104.073 102.649Z" fill="#2C302E"/>
<path d="M64.9239 100.219H61.3632C60.6905 100.219 60.1481 100.761 60.1481 101.435C60.1481 102.107 60.6899 102.65 61.3632 102.65H64.9239C65.5966 102.65 66.139 102.108 66.139 101.435C66.1383 100.762 65.5966 100.219 64.9239 100.219Z" fill="#2C302E"/>
<path d="M111.184 102.649H114.745C115.418 102.649 115.96 102.108 115.96 101.434C115.96 100.761 115.418 100.219 114.745 100.219H111.184C110.511 100.219 109.969 100.761 109.969 101.434C109.969 102.108 110.511 102.649 111.184 102.649Z" fill="#2C302E"/>
<path d="M87.7501 48L98.0626 46.5938L101.813 59.25H87.7501V48Z" fill="#E1E4E8"/>
<path d="M96.3862 58.0772L94.8972 56.6164L94.0246 57.5059L93.395 56.8882L94.2675 55.9987L93.3581 55.1066L92.4855 55.996L91.8559 55.3783L92.7285 54.4889L89.3406 51.1653L91.6347 48.8267C92.1315 48.3203 92.6397 47.9756 93.1593 47.7924C93.6723 47.6027 94.1703 47.5682 94.6532 47.689C95.1295 47.8032 95.5775 48.0662 95.9973 48.478C96.4037 48.8767 96.6653 49.3164 96.7821 49.7971C96.8923 50.2712 96.8606 50.7566 96.6872 51.2533C96.5071 51.7434 96.185 52.225 95.7209 52.698L94.3777 54.0672L95.2872 54.9594L96.9441 53.2704L97.5737 53.8881L95.9168 55.577L97.4059 57.0379L96.3862 58.0772ZM93.7383 53.4595L94.9442 52.2303C95.4148 51.7506 95.6644 51.2763 95.6929 50.8074C95.7214 50.3385 95.5225 49.8949 95.096 49.4766C94.6563 49.0452 94.2057 48.8516 93.7441 48.8956C93.2825 48.9396 92.8164 49.2015 92.3458 49.6812L91.1399 50.9104L93.7383 53.4595Z" fill="#2C302E"/>
</svg>
