<svg width="163" height="136" viewBox="0 0 163 136" fill="none" xmlns="http://www.w3.org/2000/svg">
<path d="M141.961 45.6967C149.219 62.3097 161.68 78.1496 160.822 92.5142C159.906 106.961 145.565 119.735 130.26 127.051C114.899 134.449 98.4922 136.332 84.976 132.511C71.3774 128.632 60.7513 119.106 46.5358 111.728C32.345 104.49 14.6471 99.458 6.5155 88.1216C-1.55841 76.7028 0.0163491 59.0373 8.38169 46.74C16.6647 34.385 31.8206 27.4559 44.8361 21.4813C57.8516 15.5067 68.809 10.5444 82.7051 6.29044C96.6588 1.95416 113.494 -1.59145 122.984 5.1765C132.474 11.9445 134.563 29.1083 141.961 45.6967Z" fill="#E1E4E8"/>
<path d="M56.9816 90.0072C57.6537 91.411 58.824 92.4575 60.2772 92.9546C60.8698 93.1572 61.4792 93.2585 62.0878 93.2585C62.9466 93.2585 63.803 93.0568 64.6 92.6575L69.4216 90.2006L68.9151 92.1075C68.0069 95.5319 69.9497 99.0662 73.2462 99.9819L119.216 112.763C119.745 112.91 120.283 112.983 120.819 112.983C121.866 112.983 122.904 112.706 123.848 112.166C125.351 111.305 126.425 109.894 126.877 108.194L133.776 82.1979C134.686 78.7735 132.743 75.24 129.446 74.3235L111.371 69.2994L116.893 66.424C119.69 65.021 120.854 61.5563 119.487 58.7019L113.836 46.8982L114.273 46.6797C115.905 45.8602 116.584 43.8429 115.789 42.1804L111.126 32.4419C110.733 31.6224 110.049 31.0113 109.199 30.7183C108.359 30.4337 107.459 30.4923 106.664 30.8924L106.268 31.0916L101.078 20.2505C100.406 18.8468 99.236 17.8003 97.7828 17.3032C96.3522 16.8135 94.8187 16.9206 93.4676 17.5986L41.1671 43.8324C38.3686 45.2354 37.2061 48.7001 38.5731 51.5545L56.9816 90.0072ZM124.557 107.578C124.271 108.655 123.596 109.546 122.655 110.084C121.789 110.579 120.796 110.712 119.857 110.451L73.8872 97.6682C71.8506 97.1015 70.6601 94.8841 71.2327 92.7227L75.5839 76.3267L128.913 91.1616L124.557 107.578ZM77.408 69.4578L130.737 84.2927L129.53 88.8406L76.2009 74.0058L77.408 69.4578ZM131.457 81.5829L131.354 81.9714L78.0251 67.1365L78.1331 66.7271C78.4185 65.6506 79.0957 64.76 80.0366 64.2218C80.9055 63.7263 81.8983 63.5957 82.8342 63.856L128.804 76.6367C130.84 77.2042 132.031 79.4216 131.457 81.5829ZM108.138 32.9427C108.234 32.9427 108.329 32.9594 108.423 32.9904C108.659 33.0707 108.85 33.2448 108.963 33.4775L113.626 43.2161C113.861 43.7066 113.669 44.2976 113.199 44.5353L111.734 45.2711C111.733 45.2711 111.731 45.2711 111.73 45.272C111.73 45.272 111.728 45.2728 111.727 45.2745L91.5308 55.4041C91.3174 55.5121 91.0746 55.528 90.8503 55.451C90.6142 55.3706 90.4234 55.1965 90.3104 54.9638L85.6478 45.2253C85.4134 44.7347 85.6059 44.1437 86.0764 43.906L106.235 33.7957H106.237C106.238 33.7957 106.238 33.7948 106.24 33.7948L107.746 33.0398C107.867 32.9737 108.002 32.9427 108.138 32.9427ZM42.2425 45.9768L94.5451 19.743C95.3169 19.3546 96.1916 19.2927 97.006 19.574C97.8448 19.8611 98.5228 20.4688 98.9137 21.2866L104.123 32.1669L84.9938 41.7615C83.3615 42.581 82.681 44.5983 83.4771 46.2608L88.1397 55.9994C88.5322 56.8205 89.2161 57.4308 90.0666 57.7229C90.4149 57.8418 90.7731 57.9004 91.1314 57.9004C91.6353 57.9004 92.1359 57.7815 92.6013 57.5488L111.689 47.975L117.321 59.7393C118.126 61.4227 117.451 63.4609 115.798 64.2888L107.982 68.3578L101.906 66.6677L103.091 66.0801C103.685 65.7862 103.926 65.0647 103.632 64.4712C103.337 63.8785 102.618 63.635 102.024 63.9313L98.5484 65.6573C98.52 65.6716 98.5016 65.6984 98.4739 65.7151L83.4743 61.5447C81.9165 61.1095 80.2725 61.3204 78.8419 62.1399C77.3393 63.0004 76.2629 64.4101 75.8116 66.1118L70.2449 87.0884C70.2423 87.0892 70.239 87.0892 70.2365 87.0909L63.5139 90.5153C62.7413 90.9003 61.8648 90.9614 61.0512 90.6835C60.2125 90.3964 59.5344 89.7887 59.1435 88.9709L40.7353 50.5202C39.9317 48.836 40.6072 46.7994 42.2429 45.9774L42.2425 45.9768Z" fill="black"/>
<path d="M45.9326 50.376C46.1117 50.376 46.2942 50.3367 46.4658 50.2513L49.9414 48.5252C50.5357 48.2314 50.7768 47.5099 50.483 46.9172C50.1892 46.3229 49.4701 46.0784 48.875 46.3756L45.3993 48.1017C44.805 48.3955 44.5639 49.1171 44.8577 49.7097C45.0662 50.1325 45.4914 50.376 45.9326 50.376Z" fill="black"/>
<path d="M55.1237 45.8116C55.3029 45.8116 55.4854 45.7722 55.657 45.6869L59.1326 43.9608C59.7269 43.667 59.968 42.9454 59.6742 42.3528C59.3812 41.7584 58.6613 41.514 58.0661 41.8112L54.5905 43.5372C53.9962 43.8311 53.7551 44.5526 54.0489 45.1453C54.2574 45.568 54.6826 45.8116 55.1237 45.8116Z" fill="black"/>
<path d="M64.3167 41.2469C64.4959 41.2469 64.6784 41.2076 64.85 41.1222L68.3256 39.3961C68.9199 39.1007 69.161 38.3808 68.8672 37.7873C68.5733 37.1946 67.8534 36.951 67.2591 37.2474L63.7835 38.9734C63.1892 39.2689 62.9481 39.9888 63.2419 40.5823C63.4504 41.0033 63.8739 41.2469 64.3167 41.2469Z" fill="black"/>
<path d="M73.5079 36.6825C73.687 36.6825 73.8695 36.6431 74.0411 36.5578L77.5167 34.8317C78.1111 34.5362 78.3521 33.8163 78.0583 33.2228C77.7628 32.6302 77.0454 32.3866 76.4503 32.6829L72.9747 34.409C72.3803 34.7045 72.1393 35.4244 72.4331 36.0178C72.6424 36.4389 73.0659 36.6825 73.5079 36.6825Z" fill="black"/>
<path d="M82.6988 32.1159C82.878 32.1159 83.0605 32.0766 83.2321 31.9912L86.7077 30.2651C87.302 29.9696 87.5431 29.2497 87.2493 28.6562C86.9538 28.0636 86.2356 27.8183 85.6412 28.1163L82.1656 29.8424C81.5713 30.1379 81.3302 30.8578 81.624 31.4513C81.8333 31.8723 82.2569 32.1159 82.6988 32.1159Z" fill="black"/>
<path d="M91.8921 27.5536C92.0712 27.5536 92.2537 27.5142 92.4253 27.4288L95.9009 25.7028C96.4952 25.4073 96.7363 24.6874 96.4425 24.0939C96.147 23.5012 95.4296 23.2585 94.8345 23.554L91.3588 25.28C90.7645 25.5755 90.5234 26.2954 90.8173 26.8889C91.0257 27.31 91.4501 27.5536 91.8921 27.5536Z" fill="black"/>
<path d="M62.9883 85.8499C63.1675 85.8499 63.35 85.8106 63.5216 85.7252L66.9972 83.9991C67.5915 83.7053 67.8326 82.9837 67.5388 82.3911C67.245 81.7968 66.5267 81.5523 65.9307 81.8495L62.4551 83.5756C61.8608 83.8694 61.6197 84.591 61.9135 85.1836C62.122 85.6063 62.5472 85.8499 62.9883 85.8499Z" fill="black"/>
<path d="M107.939 63.5268C108.118 63.5268 108.3 63.4874 108.472 63.402L111.947 61.676C112.542 61.3822 112.783 60.6606 112.489 60.0679C112.196 59.4736 111.476 59.2292 110.881 59.5264L107.405 61.2524C106.811 61.5462 106.57 62.2678 106.864 62.8605C107.072 63.2832 107.497 63.5268 107.939 63.5268Z" fill="black"/>
<path d="M82.2639 89.2358L78.9976 88.3276C78.3564 88.1551 77.6976 88.5243 77.5202 89.163C77.3427 89.8017 77.7169 90.463 78.3539 90.6404L81.6202 91.5487C81.7282 91.5771 81.8362 91.5922 81.9433 91.5922C82.469 91.5922 82.9511 91.244 83.0993 90.7141C83.2759 90.0745 82.9026 89.4133 82.2639 89.2358Z" fill="black"/>
<path d="M90.2805 91.4643L87.0151 90.556C86.3756 90.3811 85.7151 90.7527 85.5377 91.3914C85.3602 92.0285 85.7344 92.6914 86.3714 92.8689L89.6368 93.7771C89.7448 93.8056 89.8528 93.8206 89.9599 93.8206C90.4856 93.8206 90.9678 93.4724 91.1159 92.9425C91.2917 92.3055 90.9184 91.6434 90.2805 91.4643Z" fill="black"/>
<path d="M116.009 91.2975C114.957 91.007 113.883 90.9534 112.848 91.1141C112.049 90.452 111.105 89.9372 110.041 89.6417C108.097 89.1018 106.082 89.3487 104.365 90.3315C102.715 91.2774 101.54 92.8034 101.057 94.6266C100.044 98.4521 102.409 102.453 106.331 103.542C107.006 103.727 107.688 103.82 108.365 103.82C108.744 103.82 109.12 103.782 109.492 103.724C110.29 104.386 111.235 104.903 112.299 105.197C112.973 105.385 113.657 105.477 114.335 105.477C115.608 105.477 116.856 105.15 117.977 104.506C119.626 103.56 120.802 102.034 121.285 100.21C122.297 96.3844 119.93 92.3856 116.009 91.2975ZM112.995 97.9406C112.678 99.1393 111.902 100.143 110.813 100.767C110.625 100.875 110.425 100.947 110.226 101.03C109.341 99.8693 108.956 98.3693 109.346 96.8977C109.664 95.699 110.438 94.6954 111.527 94.0701C111.715 93.9621 111.916 93.8893 112.114 93.8073C113 94.9683 113.385 96.4684 112.995 97.9408V97.9406ZM103.376 95.2409C103.694 94.0422 104.469 93.0377 105.558 92.4148C106.714 91.751 108.078 91.5877 109.398 91.9552C109.623 92.018 109.828 92.1109 110.035 92.1997C108.551 93.1539 107.476 94.5779 107.024 96.2839C106.562 98.0309 106.808 99.8105 107.582 101.336C107.378 101.305 107.174 101.284 106.971 101.228C104.311 100.489 102.698 97.8039 103.377 95.2407L103.376 95.2409ZM118.964 99.597C118.646 100.796 117.871 101.8 116.782 102.425C115.626 103.088 114.261 103.253 112.942 102.884C112.717 102.821 112.513 102.728 112.305 102.64C113.789 101.686 114.864 100.262 115.316 98.5556C115.779 96.8086 115.531 95.0289 114.759 93.5038C114.963 93.5348 115.167 93.5557 115.368 93.6118C118.029 94.3484 119.642 97.0347 118.964 99.597Z" fill="black"/>
<path d="M97.1337 44.2726L92.5917 46.2314C91.9832 46.4942 91.7028 47.1999 91.9656 47.8068C92.1615 48.2613 92.6043 48.5317 93.068 48.5317C93.2262 48.5317 93.3886 48.5007 93.5435 48.4329L98.0854 46.4741C98.694 46.2113 98.9744 45.5056 98.7116 44.8987C98.4479 44.2893 97.7406 44.0098 97.1337 44.2726Z" fill="black"/>
</svg>
