<svg width="164" height="136" viewBox="0 0 164 136" fill="none" xmlns="http://www.w3.org/2000/svg">
<path d="M142.961 45.6967C150.219 62.3097 162.68 78.1496 161.822 92.5142C160.906 106.961 146.565 119.735 131.26 127.051C115.899 134.449 99.4922 136.332 85.9759 132.511C72.3773 128.632 61.7513 119.106 47.5358 111.728C33.345 104.49 15.647 99.458 7.51547 88.1216C-0.558437 76.7028 1.01632 59.0373 9.38166 46.74C17.6647 34.385 32.8206 27.4559 45.8361 21.4813C58.8516 15.5067 69.809 10.5444 83.705 6.29044C97.6588 1.95416 114.494 -1.59145 123.984 5.1765C133.474 11.9445 135.563 29.1083 142.961 45.6967Z" fill="#E1E4E8"/>
<path d="M121.873 80.6147H110.852L110.852 70.2643H121.873C122.321 70.2624 122.752 70.4376 123.07 70.7527C123.389 71.0685 123.569 71.4973 123.572 71.9455V78.9341C123.569 79.3824 123.389 79.8112 123.07 80.1263C122.752 80.4415 122.321 80.6172 121.873 80.6147ZM113.029 78.4105H121.359V72.4684H113.028V78.4105H113.029Z" fill="black"/>
<path d="M103.661 80.6147H48.7151C47.7853 80.6147 47.0301 79.8639 47.025 78.9341V71.9455C47.03 71.0158 47.7852 70.2643 48.7151 70.2643H103.661V80.6147ZM49.1827 78.4105H101.456V72.4683H49.1827V78.4105Z" fill="black"/>
<path d="M128.31 92.2603H111.926V90.0561H127.796V55.0023H112.551V52.7981H128.31C129.24 52.7981 129.995 53.5489 130 54.4787V90.5707C130 91.0189 129.822 91.449 129.505 91.766C129.188 92.0824 128.758 92.2607 128.31 92.2607L128.31 92.2603Z" fill="black"/>
<path d="M65.5388 60.7132H48.7151C48.1061 60.7132 47.6127 60.2198 47.6127 59.6108C47.6127 59.0025 48.1061 58.509 48.7151 58.509H65.5388C66.1478 58.509 66.6406 59.0025 66.6406 59.6108C66.6406 60.2198 66.1478 60.7132 65.5388 60.7132Z" fill="black"/>
<path d="M79.1499 66.6471H48.8437C48.2353 66.6471 47.7419 66.1536 47.7419 65.5447C47.7419 64.9363 48.2353 64.4429 48.8437 64.4429H79.1499C79.4418 64.4429 79.7224 64.559 79.929 64.7656C80.1355 64.9721 80.2517 65.2527 80.2517 65.5447C80.2517 65.8372 80.1355 66.1172 79.929 66.3244C79.7224 66.5309 79.4418 66.6471 79.1499 66.6471Z" fill="black"/>
<path d="M121.873 86.4377H112.551C111.937 86.4377 111.44 85.9405 111.44 85.3265C111.44 84.7131 111.937 84.2153 112.551 84.2153H121.919C122.532 84.2278 123.02 84.7357 123.007 85.3497C122.994 85.9631 122.486 86.4509 121.873 86.4377Z" fill="black"/>
<path d="M54.4171 86.3267H48.7142C48.1053 86.3267 47.6118 85.8333 47.6118 85.2243C47.6118 84.6159 48.1053 84.1225 48.7142 84.1225H54.4171C55.0254 84.1225 55.5189 84.6159 55.5189 85.2243C55.5189 85.8333 55.0254 86.3267 54.4171 86.3267Z" fill="black"/>
<path d="M102.56 92.2604H41.6901C40.7603 92.2604 40.0051 91.5095 40 90.5798V54.4781C40.005 53.5483 40.7603 52.7975 41.6901 52.7975H102.303V55.0017H42.2028V90.0555H102.558L102.56 92.2604Z" fill="black"/>
<path d="M102.56 86.4374H73.8782C73.2692 86.4374 72.7758 85.944 72.7758 85.3356C72.7758 84.7266 73.2692 84.2338 73.8782 84.2338H102.56C103.168 84.2338 103.661 84.7266 103.661 85.3356C103.661 85.944 103.168 86.4374 102.56 86.4374Z" fill="black"/>
<path d="M97.8571 48.6002C97.2488 48.6002 96.7553 48.1068 96.7553 47.4978V34.0988C96.7603 33.169 97.5149 32.4182 98.4448 32.4182H111.302C111.911 32.4182 112.404 32.9116 112.404 33.5206C112.404 34.1289 111.911 34.6224 111.302 34.6224H98.9777V47.4796C98.9827 47.7785 98.8659 48.066 98.655 48.2776C98.4434 48.4885 98.1559 48.6053 97.8571 48.6002Z" fill="black"/>
<path d="M102.56 66.7657H111.927V68.97H102.56V66.7657Z" fill="black"/>
<path d="M102.56 60.943H111.927V63.1472H102.56V60.943Z" fill="black"/>
<path d="M103.146 101.122H111.338V103.326H103.146V101.122Z" fill="black"/>
<path d="M107.243 111.766C106.398 111.865 105.571 111.473 105.113 110.756L101.531 102.665C101.47 102.526 101.439 102.376 101.439 102.224V30.5917C101.439 29.3738 101.923 28.206 102.784 27.3447C103.645 26.4834 104.813 26 106.031 26H108.373C109.591 26 110.759 26.4834 111.62 27.3447C112.481 28.2061 112.965 29.3738 112.965 30.5917V102.224C112.965 102.376 112.933 102.526 112.873 102.665L109.374 110.756C108.914 111.471 108.088 111.863 107.243 111.766ZM106.985 109.544H106.986C107.157 109.564 107.33 109.564 107.5 109.544L110.825 101.986V30.6088C110.827 29.9678 110.573 29.3519 110.12 28.8986C109.667 28.4447 109.051 28.1911 108.409 28.1936H106.068C105.433 28.1936 104.823 28.4447 104.373 28.8917C103.922 29.3393 103.666 29.9464 103.661 30.5812V101.986L106.985 109.544Z" fill="black"/>
</svg>
