<svg width="162" height="136" viewBox="0 0 162 136" fill="none" xmlns="http://www.w3.org/2000/svg">
<path d="M141.618 45.6967C148.876 62.3097 161.337 78.1496 160.479 92.5142C159.563 106.961 145.222 119.735 129.917 127.051C114.556 134.449 98.1491 136.332 84.6328 132.511C71.0342 128.632 60.4082 119.106 46.1927 111.728C32.0018 104.49 14.3039 99.458 6.17236 88.1216C-1.90155 76.7028 -0.326791 59.0373 8.03855 46.74C16.3216 34.385 31.4775 27.4559 44.493 21.4813C57.5085 15.5067 68.4659 10.5444 82.3619 6.29044C96.3156 1.95416 113.15 -1.59145 122.641 5.1765C132.131 11.9445 134.22 29.1083 141.618 45.6967Z" fill="#E1E4E8"/>
<path d="M65.8629 49.1322C65.8641 51.6608 67.8575 53.6918 70.3708 53.7516L70.3706 53.7535H70.4849H78.1893C82.0961 53.7535 85.3232 50.5264 85.3232 46.6196C85.3232 42.7128 82.0961 39.4857 78.1893 39.4857C74.8222 39.4857 72.1209 41.6578 71.2478 44.6742C71.1194 44.6646 70.9904 44.6321 70.8686 44.5974C70.8451 44.5907 70.8215 44.5838 70.7982 44.577C70.7515 44.5633 70.7059 44.55 70.6648 44.5393C70.6037 44.5234 70.5407 44.51 70.485 44.51C67.9181 44.51 65.8629 46.5641 65.8629 49.1321L65.8629 49.1322ZM70.4849 47.3892C70.7257 47.3892 70.9672 47.4293 71.1679 47.4895C71.3727 47.5509 71.5209 47.6289 71.5871 47.6952C71.9629 48.071 72.5143 48.0588 73.0293 47.8864C73.5948 47.6983 73.7671 47.1357 73.7671 46.6186C73.7671 44.1622 75.7317 42.1965 78.1892 42.1965C80.6456 42.1965 82.6113 44.1611 82.6113 46.6186C82.6113 49.0787 80.8113 51.0419 78.1892 51.0419H70.4848C69.3672 51.0419 68.5755 50.2491 68.5755 49.1326C68.5755 48.0312 69.5177 47.3892 70.4849 47.3892Z" fill="#2C302E" stroke="#2C302E" stroke-width="0.2"/>
<path d="M132.662 19.5662L132.661 19.5661L132.651 19.5611C132.489 19.4802 132.315 19.3935 132.139 19.3493C131.959 19.3044 131.771 19.3016 131.581 19.3926L126.989 20.2129L124.672 13.7609L124.673 13.7607L124.668 13.7501C124.581 13.5763 124.492 13.4407 124.377 13.3261C124.262 13.2116 124.127 13.1224 123.954 13.0358L123.954 13.0358C123.592 12.8556 123.227 12.8547 122.865 13.0332L83.1955 27.428H40.8422C40.126 27.428 39.4023 27.9671 39.4023 28.868V37.3278L33.9647 38.4818C33.7697 38.4853 33.5854 38.5821 33.436 38.6889C33.2859 38.7962 33.1576 38.9237 33.0739 39.0068L33.0676 39.0131L33.0673 39.0133C32.9607 39.12 32.9147 39.272 32.8929 39.4255C32.871 39.579 32.871 39.7522 32.871 39.9161V39.9205V39.931L32.8731 39.9412L34.0278 45.3818L30.7616 46.5256L30.7614 46.5249L30.7501 46.5305C30.5763 46.6171 30.4407 46.7067 30.3261 46.8214C30.2116 46.9361 30.1224 47.0716 30.0358 47.2447L30.0358 47.2448C29.8556 47.6063 29.8547 47.9716 30.0331 48.3332L39.4023 74.6053V102.556C39.4023 103.272 39.9414 103.996 40.8423 103.996H46.2537L46.2715 104.083L47.9467 112.29L47.9466 112.29L47.9477 112.294C48.0362 112.648 48.2155 112.921 48.467 113.104C48.7178 113.286 49.0328 113.374 49.3846 113.374H49.5517H49.5629L49.5738 113.372L53.1716 112.554L54.9835 117.66C54.9836 117.66 54.9837 117.66 54.9838 117.661C55.1655 118.205 55.7074 118.566 56.2512 118.566H56.7536H56.7715L56.7883 118.559L96.6302 103.829H138.983C139.699 103.829 140.423 103.29 140.423 102.389V93.929L145.87 92.773L145.871 92.773L145.874 92.7722C146.584 92.5949 147.135 91.8793 146.952 91.1452C146.952 91.1447 146.952 91.1442 146.951 91.1438L145.798 85.8712L149.229 84.564C149.965 84.3759 150.314 83.4689 149.96 82.7537L140.421 56.6503V28.6999C140.421 27.9836 139.882 27.2599 138.981 27.2599H134.376L133.219 20.4845C133.216 20.1197 133.032 19.7522 132.662 19.5662ZM48.9694 103.996H80.5866L54.842 109.466V109.423V109.301L54.7224 109.325L52.2107 109.827L52.1304 109.843V109.925V110.014L50.298 110.472L48.979 104.043L48.9694 103.996ZM93.1723 56.1186L81.876 75.5558L80.7878 73.5356L80.7879 73.5356L80.7861 73.5326C79.5937 71.4897 77.5496 70.4691 75.34 70.4691C73.1262 70.4691 71.086 71.6614 69.8959 73.5293L69.8958 73.5292L69.8937 73.5329L64.396 83.0296H42.1136V30.1405L137.709 30.1399V83.1966L119.612 83.1978L104.065 56.1163L104.065 56.1157C102.872 54.0728 100.828 53.0522 98.6188 53.0522C96.4161 53.0522 94.1998 54.0689 93.1723 56.1186ZM101.717 57.5563L116.534 83.1966H67.4778L72.2447 75.141L72.2454 75.1396C72.8968 73.9983 74.0363 73.3478 75.3409 73.3478C76.6454 73.3478 77.7837 73.9983 78.4364 75.1397L78.4368 75.1405L80.7814 79.1601L80.782 79.1612C81.3232 80.0635 82.5899 80.0635 83.1311 79.1612L83.132 79.1595L95.5254 57.556L95.5255 57.5558C96.1768 56.4145 97.3163 55.764 98.6209 55.764C99.9255 55.764 101.064 56.4145 101.716 57.5559L101.717 57.5563ZM131.658 27.4281H102.121L130.695 22.4521L131.658 27.4281ZM124.444 20.7509L95.3731 25.8911L122.677 15.9334L124.444 20.7509ZM39.4018 39.8775V57.8871L35.7686 40.6677L39.4018 39.8775ZM34.571 47.925L37.2547 60.302L32.9307 48.522L34.571 47.925ZM57.1464 115.323L55.8802 111.841L81.68 106.46L57.1464 115.323ZM42.1133 101.116V85.9081H137.708V101.116H42.1133ZM140.42 91.2097V73.7193L143.887 90.4216L140.42 91.2097ZM146.891 82.7317L145.085 83.3333L142.377 70.2421L146.891 82.7317Z" fill="#2C302E" stroke="#2C302E" stroke-width="0.2"/>
</svg>
