<svg width="163" height="136" viewBox="0 0 163 136" fill="none" xmlns="http://www.w3.org/2000/svg">
<path d="M142.618 45.6967C149.876 62.3097 162.337 78.1496 161.479 92.5142C160.563 106.961 146.221 119.735 130.917 127.051C115.555 134.449 99.149 136.332 85.6327 132.511C72.0341 128.632 61.408 119.106 47.1925 111.728C33.0017 104.49 15.3038 99.458 7.17224 88.1216C-0.901669 76.7028 0.673087 59.0373 9.03843 46.74C17.3215 34.385 32.4774 27.4559 45.4929 21.4813C58.5084 15.5067 69.4657 10.5444 83.3618 6.29044C97.3155 1.95416 114.15 -1.59145 123.641 5.1765C133.131 11.9445 135.22 29.1083 142.618 45.6967Z" fill="#E1E4E8"/>
<path d="M131.987 42.8462L110.289 32.9681H110.205C110.12 32.9681 110.12 32.8837 110.036 32.8837C109.951 32.8837 109.951 32.8837 109.867 32.8837C109.782 32.8837 109.698 32.8837 109.698 32.8837H109.529C109.445 32.8837 109.445 32.8837 109.36 32.8837C109.276 32.8837 109.191 32.8837 109.191 32.9681H109.107L101.762 36.2608C98.8068 31.8705 93.7411 29 88 29C83.6098 29 79.3884 30.6886 76.2645 33.8968C75.5047 34.6567 74.8293 35.4165 74.2383 36.3452L66.8931 33.0525H66.8086C66.7242 33.0525 66.7242 32.9681 66.6398 32.9681C66.5553 32.9681 66.5553 32.9681 66.4709 32.9681C66.3865 32.9681 66.3021 32.9681 66.3021 32.9681C66.2176 32.9681 66.1332 32.9681 66.1332 32.9681C66.0488 32.9681 66.0488 32.9681 65.9644 32.9681C65.8799 32.9681 65.7955 32.9681 65.7955 33.0525H65.7111L43.9287 42.8462C43.3377 43.0994 43 43.6904 43 44.2814V99.9193C43 100.426 43.2533 100.932 43.7598 101.27C44.0131 101.439 44.3508 101.523 44.6041 101.523C44.8574 101.523 45.0263 101.439 45.2796 101.355L66.3021 91.8143L87.3246 101.355C87.409 101.355 87.409 101.355 87.4934 101.439H87.5779C87.7467 101.439 87.8311 101.523 88 101.523C88.1689 101.523 88.2533 101.523 88.4221 101.439H88.5066C88.591 101.439 88.591 101.439 88.6754 101.355L109.698 91.8143L130.72 101.355C130.889 101.439 131.143 101.523 131.396 101.523C131.734 101.523 131.987 101.439 132.24 101.27C132.662 101.017 133 100.51 133 99.9193V44.2814C132.916 43.6904 132.493 43.0994 131.987 42.8462ZM87.9156 32.2083C95.3452 32.2083 101.34 38.2026 101.34 45.6323C101.34 52.6398 90.7861 67.2458 87.9156 68.9343C85.045 67.2458 74.4916 52.6398 74.4916 45.6323C74.4916 42.0863 75.9268 38.7092 78.4597 36.1764C80.9925 33.5591 84.3696 32.2083 87.9156 32.2083ZM108.009 89.1126L89.5197 97.4709V71.636C94.6698 68.4278 104.548 52.8931 104.548 45.6323C104.548 43.3527 104.041 41.0732 103.197 39.1313L108.094 36.9362V89.1126H108.009ZM86.3114 71.636V97.4709L67.8218 89.1126V36.8518L72.7186 39.0469C71.8743 41.0732 71.3677 43.2683 71.3677 45.5478C71.3677 52.8086 81.2458 68.4278 86.3114 71.636ZM46.1238 45.2946L64.6135 36.8518V89.1126L46.1238 97.4709V45.2946ZM129.707 97.4709L111.218 89.1126V36.8518L129.707 45.2946V97.4709Z" fill="#2C302E"/>
<path d="M77.6998 44.4503C77.6998 50.107 82.2589 54.6661 87.9156 54.6661C93.5722 54.6661 98.1313 50.107 98.1313 44.4503C98.1313 38.7937 93.5722 34.2346 87.9156 34.2346C82.2589 34.2346 77.6998 38.7937 77.6998 44.4503ZM95.0075 44.4503C95.0075 48.334 91.8837 51.5422 87.9156 51.5422C84.0319 51.5422 80.8237 48.4184 80.8237 44.4503C80.8237 40.5666 83.9475 37.3584 87.9156 37.3584C91.7993 37.3584 95.0075 40.5666 95.0075 44.4503Z" fill="#2C302E"/>
</svg>
