<svg width="162" height="136" viewBox="0 0 162 136" fill="none" xmlns="http://www.w3.org/2000/svg">
<path d="M141.618 45.6967C148.876 62.3097 161.337 78.1496 160.479 92.5142C159.563 106.961 145.221 119.735 129.917 127.051C114.555 134.449 98.149 136.332 84.6327 132.511C71.0341 128.632 60.408 119.106 46.1925 111.728C32.0017 104.49 14.3038 99.458 6.17224 88.1216C-1.90167 76.7028 -0.326913 59.0373 8.03843 46.74C16.3215 34.385 31.4774 27.4559 44.4929 21.4813C57.5084 15.5067 68.4657 10.5444 82.3618 6.29044C96.3155 1.95416 113.15 -1.59145 122.641 5.1765C132.131 11.9445 134.22 29.1083 141.618 45.6967Z" fill="#E1E4E8"/>
<path d="M88.164 29.1933C88.164 25.7604 85.3711 22.9672 81.9379 22.9672C78.5059 22.9672 75.7139 25.7602 75.7139 29.1933C75.7139 32.6265 78.5059 35.4194 81.9379 35.4194C85.3711 35.4194 88.164 32.6265 88.164 29.1933ZM78.0279 29.1933C78.0279 27.0362 79.7819 25.281 81.9381 25.281C84.0952 25.281 85.8505 27.036 85.8505 29.1933C85.8505 31.3507 84.0955 33.1057 81.9381 33.1057C79.7819 33.1057 78.0279 31.3507 78.0279 29.1933Z" fill="#2C302E"/>
<path d="M82.8044 47.1828C83.8745 45.9739 93.2613 35.2028 93.2613 29.321C93.2613 23.0787 88.1816 18 81.9381 18C75.6958 18 70.6171 23.0785 70.6171 29.321C70.6171 35.2026 80.0018 45.9738 81.0719 47.1826L81.9379 48.1611L82.8044 47.1828ZM72.9311 29.3212C72.9311 24.3547 76.9717 20.314 81.9384 20.314C86.906 20.314 90.9477 24.3545 90.9477 29.3212C90.9477 33.1702 85.0775 40.9236 81.9384 44.6448C78.7998 40.9243 72.9311 33.173 72.9311 29.3212Z" fill="#2C302E"/>
<path d="M51.3342 83.2697H42.497C41.8581 83.2697 41.3401 83.7877 41.3401 84.4266C41.3401 85.0655 41.8581 85.5835 42.497 85.5835H51.3342C51.9732 85.5835 52.4911 85.0655 52.4911 84.4266C52.4911 83.7877 51.9732 83.2697 51.3342 83.2697Z" fill="#2C302E"/>
<path d="M37.4882 83.2697H36.1569C35.518 83.2697 35 83.7876 35 84.4265C35 85.0655 35.518 85.5834 36.1569 85.5834H37.4882C38.1271 85.5834 38.6451 85.0655 38.6451 84.4265C38.6451 83.7876 38.1271 83.2697 37.4882 83.2697Z" fill="#2C302E"/>
<path d="M51.335 89.5895H46.9185C46.2796 89.5895 45.7616 90.1075 45.7616 90.7464C45.7616 91.3853 46.2796 91.9033 46.9185 91.9033H51.335C51.9739 91.9033 52.4919 91.3853 52.4919 90.7464C52.4919 90.1075 51.9739 89.5895 51.335 89.5895Z" fill="#2C302E"/>
<path d="M75.4179 66.0103H69.4893V68.3241H75.4179V66.0103Z" fill="#2C302E"/>
<path d="M40.674 42.5536V64.5823H43.2085H49.7632L61.9815 73.7746C61.9449 74.096 61.9148 74.4218 61.8931 74.7524C58.4035 77.7851 56.2447 81.9475 56.2447 86.5353V91.3898H60.444C60.7887 95.1651 62.8024 98.4632 65.7395 100.541H50.6896C50.0507 100.541 49.5327 101.059 49.5327 101.698V101.698C49.5327 102.337 50.0507 102.855 50.6896 102.855H91.4118C92.0508 102.855 92.5687 102.337 92.5687 101.698V101.698C92.5687 101.059 92.0508 100.541 91.4119 100.541H80.2785C81.7461 99.503 82.9828 98.1608 83.8967 96.6055H91.6684L95.3756 94.6922C96.3976 95.2482 97.5681 95.5645 98.8106 95.5645H115.559L116.106 95.5638L116.453 95.1422C116.473 95.1179 116.863 94.6529 117.583 93.9122C118.497 96.6696 120.34 98.9944 122.716 100.541H104.369C103.73 100.541 103.212 101.059 103.212 101.698V101.698C103.212 102.337 103.73 102.855 104.369 102.855H143.843C144.482 102.855 145 102.337 145 101.698V101.698C145 101.059 144.482 100.541 143.843 100.541H136.45C139.904 98.2871 142.193 94.3912 142.193 89.9684C142.193 87.1665 141.25 84.4566 139.56 82.2611C140.768 82.1063 142.011 82.0211 143.286 82.0211C144.256 82.0211 144.577 81.3601 144.652 81.1574C145.038 80.1192 144.122 79.329 142.735 78.1331C142.423 77.8637 142.128 77.6097 141.957 77.438C139.173 74.6511 135.667 72.8535 131.863 72.2087L122.382 48.9743H125.24V47.8896H125.477C127.512 47.8896 129.168 46.2339 129.168 44.1987V44.1193C129.168 42.0842 127.512 40.4282 125.477 40.4282H125.24V39.3435H117.237C114.579 39.3435 112.416 41.5059 112.416 44.1638V46.4035C112.416 46.4903 112.421 46.5756 112.429 46.6601H111.02L106.098 41.7385H100.318V44.0522H105.14L110.061 48.9739H114.703L112.135 56.7562L115.603 77.2973C113.898 78.9621 112.504 80.9508 111.527 83.1708H98.3927C97.7696 81.8936 97.2652 80.5637 96.8851 79.1872C95.1782 73.0023 96.482 67.5397 97.5915 64.4948C98.7985 64.1908 99.6956 63.0991 99.6956 61.7993C99.6956 58.0105 96.6132 54.9281 92.8244 54.9281H69.0093C66.3478 54.9281 64.1823 57.0933 64.1823 59.7551C64.1823 60.6762 64.4463 61.535 64.8961 62.2683H62.7027V42.5536H40.674ZM42.9878 62.2685V44.8674H60.3889V62.2685H43.2085H42.9878ZM58.5585 86.535C58.5585 78.5567 66.2964 72.0655 75.8076 72.0655H80.1785C86.4717 72.0655 91.5916 76.3339 91.5916 81.5806V87.1776V88.3344V89.0758H85.5782C84.9923 82.6562 79.5797 77.6106 73.0109 77.6106C66.441 77.6106 61.0275 82.6562 60.4417 89.0758H58.5587L58.5585 86.535ZM62.7693 89.0758C63.3464 83.9346 67.7182 79.9244 73.0107 79.9244C78.3023 79.9244 82.6732 83.9346 83.25 89.0758H62.7693ZM76.4221 91.3895C75.9386 92.8111 74.5936 93.8377 73.0107 93.8377C71.4269 93.8377 70.0813 92.8109 69.5975 91.3895H76.4221ZM73.0084 100.541C67.7168 100.541 63.3459 96.5307 62.7691 91.3895H67.2039C67.7437 94.1013 70.1416 96.1515 73.0107 96.1515C75.8786 96.1515 78.2759 94.1013 78.8155 91.3895H83.25C83.1357 92.4088 82.8731 93.3835 82.4826 94.2915H78.3819V96.6052H81.1017C79.2125 98.9995 76.2879 100.541 73.0084 100.541ZM91.1069 94.2915H84.9569C85.2718 93.3669 85.4831 92.3958 85.5749 91.3895H92.2696C92.5634 92.0173 92.9443 92.5955 93.3966 93.1098L91.1069 94.2915ZM139.879 89.9682C139.879 95.651 135.255 100.274 129.571 100.274C124.702 100.274 120.471 96.7943 119.483 92.0855C120.629 91.0503 122.081 89.8511 123.801 88.6482C123.704 89.073 123.651 89.514 123.651 89.9677C123.651 93.2318 126.307 95.8875 129.571 95.8875C132.835 95.8875 135.491 93.2318 135.491 89.9677C135.491 87.4001 133.848 85.2099 131.558 84.3918C133.231 83.7127 135.016 83.1357 136.903 82.7217C138.801 84.6479 139.879 87.2567 139.879 89.9682ZM126.979 87.4672L128.543 90.4983L130.599 89.437L129.035 86.4059C129.21 86.3796 129.388 86.3615 129.571 86.3615C131.56 86.3615 133.177 87.9793 133.177 89.9677C133.177 91.9562 131.56 93.5737 129.571 93.5737C127.583 93.5737 125.965 91.9562 125.965 89.9677C125.965 88.9969 126.352 88.1163 126.979 87.4672ZM125.477 42.742C126.237 42.742 126.855 43.3597 126.855 44.1193V44.1987C126.855 44.9581 126.237 45.5759 125.477 45.5759H125.24V42.742H125.477ZM114.73 46.4037V44.164C114.73 42.7818 115.855 41.6575 117.237 41.6575H122.926V46.6606H117.214H114.987C114.845 46.6603 114.73 46.5451 114.73 46.4037ZM114.512 56.9369L117.14 48.9752H119.883L129.259 71.9514C129.071 71.9461 128.884 71.9375 128.695 71.9375C124.604 71.9375 120.776 73.2799 117.657 75.5625L114.512 56.9369ZM128.695 74.2513C133.086 74.2513 137.214 75.9637 140.32 79.0725C140.525 79.2784 140.805 79.5227 141.106 79.7832C133.209 80.3335 126.717 83.7673 122.531 86.6868C118.552 89.4622 115.947 92.2167 115.03 93.2505H98.8106C96.507 93.2505 94.5697 91.6512 94.0451 89.5022H102.731L102.722 89.4909L112.273 89.4904L112.408 88.4883C113.504 80.3719 120.506 74.2513 128.695 74.2513ZM110.686 85.4848C110.526 86.0385 110.388 86.6024 110.279 87.1769L100.874 87.1773C100.453 86.6271 100.059 86.0623 99.691 85.485H110.686V85.4848ZM98.0306 87.1773L93.9052 87.1776V81.5806C93.9052 75.0583 87.7473 69.7517 80.1783 69.7517H75.8074C71.5736 69.7517 67.6532 70.9153 64.4479 72.8841C65.1182 69.0629 66.8207 66.1003 67.8568 64.583H95.1141C93.9915 68.0295 92.9366 73.5761 94.6551 79.8029C95.3797 82.4288 96.5121 84.9004 98.0306 87.1773ZM69.0093 57.2421H92.8246C95.3376 57.2421 97.3821 59.2865 97.3821 61.7995C97.3821 62.058 97.1717 62.2685 96.9131 62.2685H69.0093C67.6236 62.2685 66.4961 61.141 66.4961 59.7553C66.4961 58.3696 67.6236 57.2421 69.0093 57.2421ZM65.1208 64.5823C64.1793 66.1806 63.0844 68.4594 62.4296 71.2163L53.6119 64.5823H62.7027H65.1208Z" fill="#2C302E"/>
<path d="M58.3258 47.626H51.689V49.9397H58.3258V47.626Z" fill="#2C302E"/>
<path d="M98.6611 100.541H96.9667C96.3278 100.541 95.8098 101.059 95.8098 101.698C95.8098 102.337 96.3278 102.855 96.9667 102.855H98.6611C99.3 102.855 99.8179 102.337 99.8179 101.698C99.8179 101.059 99.3 100.541 98.6611 100.541Z" fill="#2C302E"/>
<path d="M45.7158 100.541H44.3662C43.7272 100.541 43.2093 101.059 43.2093 101.698C43.2093 102.337 43.7272 102.855 44.3662 102.855H45.7158C46.3547 102.855 46.8727 102.337 46.8727 101.698C46.8727 101.059 46.3547 100.541 45.7158 100.541Z" fill="#2C302E"/>
</svg>
