<svg width="162" height="136" viewBox="0 0 162 136" fill="none" xmlns="http://www.w3.org/2000/svg">
<path d="M141.618 45.6967C148.876 62.3097 161.337 78.1496 160.479 92.5142C159.563 106.961 145.221 119.735 129.917 127.051C114.555 134.449 98.149 136.332 84.6327 132.511C71.0341 128.632 60.4081 119.106 46.1926 111.728C32.0018 104.49 14.3038 99.458 6.17227 88.1216C-1.90164 76.7028 -0.326882 59.0373 8.03846 46.74C16.3215 34.385 31.4774 27.4559 44.4929 21.4813C57.5084 15.5067 68.4658 10.5444 82.3618 6.29044C96.3156 1.95416 113.15 -1.59145 122.641 5.1765C132.131 11.9445 134.22 29.1083 141.618 45.6967Z" fill="#E1E4E8"/>
<path d="M89.0027 52.2914H89.1027V52.1914V40.4671V40.3671H89.0027H77.2782H77.1782V40.4671V52.1914V52.2914H77.2782H89.0027ZM79.3213 42.51H86.9596V50.1481H79.3213V42.51Z" fill="#2C302E" stroke="#2C302E" stroke-width="0.2"/>
<path d="M84.8538 45.2574H81.4271C80.8353 45.2574 80.3555 45.7371 80.3555 46.3289C80.3555 46.9207 80.8353 47.4005 81.4271 47.4005H84.8538C85.4456 47.4005 85.9253 46.9207 85.9253 46.3289C85.9253 45.7371 85.4456 45.2574 84.8538 45.2574Z" fill="#2C302E" stroke="#2C302E" stroke-width="0.2"/>
<path d="M108.239 26.3153H103.293C102.701 26.3153 102.222 26.795 102.222 27.3868C102.222 27.9786 102.701 28.4584 103.293 28.4584H108.239C108.831 28.4584 109.311 27.9786 109.311 27.3868C109.311 26.795 108.831 26.3153 108.239 26.3153Z" fill="#2C302E" stroke="#2C302E" stroke-width="0.2"/>
<path d="M108.239 29.8109H103.293C102.701 29.8109 102.222 30.2907 102.222 30.8825C102.222 31.4743 102.701 31.9541 103.293 31.9541H108.239C108.831 31.9541 109.311 31.4743 109.311 30.8825C109.311 30.2907 108.831 29.8109 108.239 29.8109Z" fill="#2C302E" stroke="#2C302E" stroke-width="0.2"/>
<path d="M54.105 102.598H52.9716C52.3798 102.598 51.9 103.078 51.9 103.669C51.9 104.261 52.3798 104.741 52.9716 104.741H54.105C54.6968 104.741 55.1765 104.261 55.1765 103.669C55.1765 103.078 54.6968 102.598 54.105 102.598Z" fill="#2C302E" stroke="#2C302E" stroke-width="0.2"/>
<path d="M67.2951 102.598H58.2827C57.6909 102.598 57.2111 103.078 57.2111 103.669C57.2111 104.261 57.6909 104.741 58.2827 104.741H67.3951H93.453H108.24C108.831 104.741 109.311 104.261 109.311 103.669C109.311 103.078 108.831 102.598 108.24 102.598H93.453H69.4382V68.9675C69.4382 68.3757 68.9585 67.896 68.3667 67.896C67.7749 67.896 67.2951 68.3757 67.2951 68.9675V102.598Z" fill="#2C302E" stroke="#2C302E" stroke-width="0.2"/>
<path d="M69.4382 64.9168V64.5469C69.4382 63.9551 68.9585 63.4753 68.3667 63.4753C67.7749 63.4753 67.2951 63.9551 67.2951 64.5469V64.9168C67.2951 65.5086 67.7749 65.9884 68.3667 65.9884C68.9585 65.9884 69.4382 65.5086 69.4382 64.9168Z" fill="#2C302E" stroke="#2C302E" stroke-width="0.2"/>
<path d="M116.59 57.3927V57.2927H116.49H101.933H101.833V57.3927V71.9495V72.0495H101.933H116.49H116.59V71.9495V57.3927ZM114.447 69.9064H103.976V59.4358H114.447V69.9064Z" fill="#2C302E" stroke="#2C302E" stroke-width="0.2"/>
<path d="M111.701 60.8054H106.72C106.129 60.8054 105.649 61.2851 105.649 61.877C105.649 62.4688 106.129 62.9485 106.72 62.9485H111.701C112.293 62.9485 112.773 62.4688 112.773 61.877C112.773 61.2851 112.293 60.8054 111.701 60.8054Z" fill="#2C302E" stroke="#2C302E" stroke-width="0.2"/>
<path d="M111.701 63.5998H106.72C106.129 63.5998 105.649 64.0795 105.649 64.6713C105.649 65.2631 106.129 65.7429 106.72 65.7429H111.701C112.293 65.7429 112.773 65.2631 112.773 64.6713C112.773 64.0795 112.293 63.5998 111.701 63.5998Z" fill="#2C302E" stroke="#2C302E" stroke-width="0.2"/>
<path d="M94.7043 91.5644V91.4644H94.6043H71.7546H71.6546V91.5644V100.388V100.488H71.7546H94.6043H94.7043V100.388V91.5644ZM92.5611 98.3446H73.7977V93.6075H92.5611V98.3446Z" fill="#2C302E" stroke="#2C302E" stroke-width="0.2"/>
<path d="M78.9159 94.9043H78.5273C77.9355 94.9043 77.4558 95.384 77.4558 95.9758C77.4558 96.5676 77.9355 97.0474 78.5273 97.0474H78.9159C79.5078 97.0474 79.9875 96.5676 79.9875 95.9758C79.9875 95.384 79.5078 94.9043 78.9159 94.9043Z" fill="#2C302E" stroke="#2C302E" stroke-width="0.2"/>
<path d="M88.2429 94.9043H87.8543C87.2625 94.9043 86.7827 95.384 86.7827 95.9758C86.7827 96.5676 87.2625 97.0474 87.8543 97.0474H88.2429C88.8347 97.0474 89.3145 96.5676 89.3145 95.9758C89.3145 95.384 88.8347 94.9043 88.2429 94.9043Z" fill="#2C302E" stroke="#2C302E" stroke-width="0.2"/>
<path d="M83.5795 94.9043H83.1909C82.5991 94.9043 82.1193 95.384 82.1193 95.9758C82.1193 96.5676 82.5991 97.0474 83.1909 97.0474H83.5795C84.1713 97.0474 84.651 96.5676 84.651 95.9758C84.651 95.384 84.1713 94.9043 83.5795 94.9043Z" fill="#2C302E" stroke="#2C302E" stroke-width="0.2"/>
<path d="M115.472 73.3772H110.2C109.608 73.3772 109.129 73.8569 109.129 74.4487C109.129 75.0405 109.608 75.5203 110.2 75.5203H115.472C116.063 75.5203 116.543 75.0405 116.543 74.4487C116.543 73.8569 116.063 73.3772 115.472 73.3772Z" fill="#2C302E" stroke="#2C302E" stroke-width="0.2"/>
<path d="M115.472 76.8728H110.2C109.608 76.8728 109.129 77.3525 109.129 77.9443C109.129 78.5361 109.608 79.0159 110.2 79.0159H115.472C116.063 79.0159 116.543 78.5361 116.543 77.9443C116.543 77.3525 116.063 76.8728 115.472 76.8728Z" fill="#2C302E" stroke="#2C302E" stroke-width="0.2"/>
<path d="M99.3852 78.0422V55.9404H117.828V102.598H112.504C111.912 102.598 111.432 103.077 111.432 103.669C111.432 104.261 111.912 104.741 112.504 104.741H118.899H119.871H131.028C131.62 104.741 132.1 104.261 132.1 103.669C132.1 103.077 131.62 102.598 131.028 102.598H119.971V53.8973V53.7973H119.871H99.2852H87.9806H75.1119V18.0431H88.9314V32.1474V32.2474H89.0315H98.2344H98.3344V32.1474V18.0431H112.154V49.9698C112.154 50.5617 112.634 51.0414 113.226 51.0414C113.817 51.0414 114.297 50.5617 114.297 49.9698V16V15.9H114.197H98.2344H89.0315H73.0688H72.9688V16V53.7973H67.3951H67.2951V53.8973V60.4825C67.2951 61.0743 67.7749 61.554 68.3667 61.554C68.9585 61.554 69.4382 61.0743 69.4382 60.4825V55.9404H87.8806V78.0422V78.1422H87.9806H99.2852H99.3852V78.0422ZM96.1913 18.0431V30.1043H91.0746V18.0431H96.1913ZM97.2421 75.9991H90.0237V55.9404H97.2421V75.9991Z" fill="#2C302E" stroke="#2C302E" stroke-width="0.2"/>
</svg>
