<svg width="165" height="137" viewBox="0 0 165 137" fill="none" xmlns="http://www.w3.org/2000/svg">
<path d="M142.961 46.6967C150.219 63.3097 162.68 79.1496 161.822 93.5142C160.906 107.961 146.564 120.735 131.26 128.051C115.899 135.449 99.492 137.332 85.9758 133.511C72.3772 129.632 61.7511 120.106 47.5356 112.728C33.3448 105.49 15.6469 100.458 7.51531 89.1216C-0.55861 77.7028 1.01615 60.0373 9.38149 47.74C17.6645 35.385 32.8204 28.4559 45.8359 22.4813C58.8514 16.5067 69.8088 11.5444 83.7049 7.29044C97.6586 2.95416 114.493 -0.591454 123.984 6.1765C133.474 12.9445 135.563 30.1083 142.961 46.6967Z" fill="#E1E4E8"/>
<path d="M81.8504 114.339L129.936 88.8063C130.575 88.3811 131 87.7425 131 86.8913V41.1452C131 40.294 130.361 39.4428 129.723 39.2303L81.851 13.061C81.2123 12.6359 80.3621 12.6359 79.936 13.061C76.3186 14.976 39.298 34.7625 32.0636 38.3802C31.4249 38.8053 30.9998 39.6565 30.9998 40.2952V82.2096C30.9998 82.8483 31.4249 83.6985 32.0636 83.912L79.7229 113.913C80.148 114.125 80.3615 114.338 80.7867 114.338C81.2118 114.551 81.6369 114.338 81.8504 114.338L81.8504 114.339ZM82.9142 108.806V68.5945L98.4457 60.0843V72.4244C98.4457 73.2756 98.8708 73.9133 99.5095 74.3394C99.9346 74.5519 100.148 74.5519 100.573 74.5519C100.998 74.5519 101.212 74.5519 101.637 74.3394L113.339 67.9568C113.978 67.5317 114.403 66.893 114.403 66.0418V51.3606L126.743 44.552V85.4032L82.9142 108.806ZM64.1905 26.2538L110.147 51.3598V64.7637L102.701 68.8062V56.4661V56.2535V56.041C102.701 55.8284 102.701 55.6158 102.488 55.4023C102.276 55.1897 102.276 54.9772 102.063 54.7636L101.638 54.3385L56.7421 30.296L64.1905 26.2538ZM80.7867 17.3175L124.404 41.1474L112.276 47.7437L68.6593 23.9137L80.7867 17.3175ZM52.0622 32.6364L96.1056 56.4663L80.7867 64.7639L37.5959 40.2963L52.0622 32.6364ZM35.2536 81.1483V43.9156L78.6575 68.3832V108.384L35.2536 81.1483Z" fill="#2C302E"/>
<path d="M70.938 78.9383L45.2218 64.019C44.2403 63.4297 43.0628 63.8229 42.4735 64.8044C41.8842 65.7859 42.2773 66.9635 43.2588 67.5527L68.975 82.4721C69.9565 83.0613 71.1341 82.6682 71.7234 81.6867C72.3117 80.7052 71.9195 79.5276 70.938 78.9383Z" fill="#2C302E"/>
<path d="M70.7411 88.7538L45.025 73.6383C44.0435 73.2451 42.8659 73.4421 42.2766 74.4236C41.6873 75.4051 42.0805 76.5827 43.062 77.172L68.7781 92.0913C69.7596 92.6806 70.9372 92.2874 71.5265 91.306C72.1149 90.5206 71.7226 89.343 70.7411 88.7538Z" fill="#2C302E"/>
<path d="M131.619 110.505L118.139 130.378C117.678 131.058 116.639 130.922 116.368 130.147L114.691 125.355C114.577 125.015 114.439 124.901 114.009 124.892L108.749 125.034C107.935 125.056 107.437 124.147 107.894 123.473L121.395 103.57C121.705 103.113 122.327 102.994 122.784 103.304L131.353 109.116C131.81 109.426 131.929 110.048 131.619 110.505Z" fill="#E6E7E9" stroke="#2C302E" stroke-width="3"/>
<path d="M136.785 103.57L150.265 123.443C150.727 124.122 150.217 125.038 149.396 125.003L144.323 124.789C143.966 124.769 143.809 124.855 143.641 125.252L141.828 130.192C141.548 130.956 140.519 131.083 140.062 130.408L126.561 110.505C126.251 110.048 126.37 109.426 126.827 109.116L135.396 103.304C135.853 102.994 136.475 103.113 136.785 103.57Z" fill="#E6E7E9" stroke="#2C302E" stroke-width="3"/>
<path d="M124.616 68.4324C126.988 65.8949 131.012 65.8949 133.383 68.4324L135.749 70.9632C136.931 72.2287 138.604 72.9213 140.335 72.8628L143.797 72.7458C147.268 72.6285 150.113 75.4739 149.996 78.945L149.879 82.4071C149.821 84.1384 150.513 85.8105 151.779 86.9933L154.31 89.3587C156.847 91.7302 156.847 95.7542 154.31 98.1257L151.779 100.491C150.513 101.674 149.821 103.346 149.879 105.077L149.996 108.539C150.113 112.01 147.268 114.856 143.797 114.739L140.335 114.622C138.604 114.563 136.931 115.256 135.749 116.521L133.383 119.052C131.012 121.589 126.988 121.589 124.616 119.052L122.251 116.521C121.068 115.256 119.396 114.563 117.665 114.622L114.203 114.739C110.731 114.856 107.886 112.01 108.003 108.539L108.12 105.077C108.179 103.346 107.486 101.674 106.221 100.491L103.69 98.1257C101.153 95.7542 101.153 91.7302 103.69 89.3587L106.221 86.9933C107.486 85.8105 108.179 84.1384 108.12 82.4071L108.003 78.9451C107.886 75.4739 110.731 72.6285 114.203 72.7458L117.665 72.8628C119.396 72.9213 121.068 72.2287 122.251 70.9632L124.616 68.4324Z" fill="#E6E7E9"/>
<path d="M132.287 69.4566L134.653 71.9874C136.131 73.5694 138.221 74.4351 140.385 74.362L143.848 74.245C146.451 74.157 148.585 76.291 148.497 78.8944L148.38 82.3565C148.307 84.5206 149.173 86.6107 150.755 88.0892L153.285 90.4545C155.188 92.2332 155.188 95.2512 153.285 97.0298L150.755 99.3952C149.173 100.874 148.307 102.964 148.38 105.128L148.497 108.59C148.585 111.193 146.451 113.327 143.848 113.239L140.385 113.122C138.221 113.049 136.131 113.915 134.653 115.497L132.287 118.028C130.509 119.931 127.491 119.931 125.712 118.028L123.347 115.497C121.868 113.915 119.778 113.049 117.614 113.122L114.152 113.239C111.549 113.327 109.415 111.193 109.503 108.59L109.62 105.128C109.693 102.964 108.827 100.874 107.245 99.3952L104.714 97.0298C102.811 95.2512 102.811 92.2332 104.714 90.4545L107.245 88.0892C108.827 86.6107 109.693 84.5206 109.62 82.3565L109.503 78.8944C109.415 76.291 111.549 74.157 114.152 74.245L117.614 74.362C119.778 74.4351 121.868 73.5694 123.347 71.9874L125.712 69.4566C127.491 67.5535 130.509 67.5535 132.287 69.4566Z" stroke="#2C302E" stroke-width="3"/>
<circle cx="129" cy="93.7422" r="15.5" stroke="#2C302E" stroke-width="3"/>
<path d="M130.142 85.2342L132.106 88.4976C132.56 89.2517 133.3 89.7894 134.158 89.988L137.868 90.8474C138.419 90.975 138.636 91.6428 138.265 92.0697L135.769 94.946C135.192 95.6106 134.909 96.4808 134.985 97.3575L135.314 101.152C135.363 101.715 134.795 102.128 134.275 101.908L130.768 100.422C129.957 100.078 129.042 100.078 128.232 100.422L124.725 101.908C124.204 102.128 123.636 101.715 123.685 101.152L124.014 97.3575C124.091 96.4808 123.808 95.6106 123.231 94.946L120.734 92.0697C120.363 91.6428 120.58 90.975 121.131 90.8474L124.842 89.988C125.699 89.7894 126.439 89.2517 126.893 88.4976L128.857 85.2342C129.149 84.7498 129.851 84.7498 130.142 85.2342Z" stroke="#2C302E" stroke-width="2.5"/>
</svg>
