<svg width="164" height="137" viewBox="0 0 164 137" fill="none" xmlns="http://www.w3.org/2000/svg">
<path d="M142.961 46.6967C150.22 63.3097 162.68 79.1496 161.822 93.5142C160.907 107.961 146.565 120.735 131.261 128.051C115.899 135.449 99.4924 137.332 85.9761 133.511C72.3775 129.632 61.7514 120.106 47.5359 112.728C33.3451 105.49 15.6472 100.458 7.51563 89.1216C-0.558294 77.7028 1.01647 60.0373 9.38181 47.74C17.6648 35.385 32.8208 28.4559 45.8363 22.4813C58.8518 16.5067 69.8091 11.5444 83.7052 7.29044C97.6589 2.95416 114.494 -0.591453 123.984 6.1765C133.475 12.9445 135.563 30.1083 142.961 46.6967Z" fill="#E1E4E8"/>
<path d="M80.8507 114.339L128.936 88.8063C129.575 88.3811 130 87.7425 130 86.8913V41.1452C130 40.294 129.361 39.4428 128.724 39.2303L80.8513 13.061C80.2127 12.6359 79.3624 12.6359 78.9364 13.061C75.3189 14.976 38.2983 34.7625 31.0639 38.3802C30.4252 38.8053 30.0001 39.6565 30.0001 40.2952V82.2096C30.0001 82.8483 30.4252 83.6985 31.0639 83.912L78.7232 113.913C79.1483 114.125 79.3619 114.338 79.787 114.338C80.2121 114.551 80.6372 114.338 80.8508 114.338L80.8507 114.339ZM81.9145 108.806V68.5945L97.446 60.0843V72.4244C97.446 73.2756 97.8712 73.9133 98.5098 74.3394C98.9349 74.5519 99.1485 74.5519 99.5736 74.5519C99.9987 74.5519 100.212 74.5519 100.637 74.3394L112.34 67.9568C112.978 67.5317 113.404 66.893 113.404 66.0418V51.3606L125.744 44.552V85.4032L81.9145 108.806ZM63.1908 26.2538L109.147 51.3598V64.7637L101.701 68.8062V56.4661V56.2535V56.041C101.701 55.8284 101.701 55.6158 101.489 55.4023C101.276 55.1897 101.276 54.9772 101.063 54.7636L100.638 54.3385L55.7424 30.296L63.1908 26.2538ZM79.7871 17.3175L123.404 41.1474L111.277 47.7437L67.6596 23.9137L79.7871 17.3175ZM51.0626 32.6364L95.106 56.4663L79.7871 64.7639L36.5963 40.2963L51.0626 32.6364ZM34.2539 81.1483V43.9156L77.6579 68.3832V108.384L34.2539 81.1483Z" fill="#2C302E"/>
<circle cx="130" cy="90.7422" r="25" fill="#E6E7E9"/>
<circle cx="130" cy="90.7422" r="23.5" stroke="#2C302E" stroke-width="3"/>
<path d="M130.077 74.0922C136.398 74.0922 141.65 79.3235 141.65 85.819C141.65 89.1899 139.791 93.4919 137.175 97.7687C134.948 101.411 132.277 104.869 130.076 107.454C127.864 104.865 125.158 101.405 122.897 97.7612C120.242 93.4815 118.35 89.1832 118.35 85.819C118.35 79.3338 123.592 74.0922 130.077 74.0922ZM137.119 85.0501C137.119 81.2276 133.899 78.0076 130.077 78.0076C126.124 78.0076 122.881 81.2044 122.881 85.0501C122.881 89.0261 126.1 92.2462 130.077 92.2462C133.923 92.2462 137.119 89.0032 137.119 85.0501Z" stroke="#2C302E" stroke-width="2.7"/>
</svg>
