<svg width="164" height="138" viewBox="0 0 164 138" fill="none" xmlns="http://www.w3.org/2000/svg">
<path d="M142.961 46.6967C150.22 63.3097 162.68 79.1496 161.822 93.5142C160.907 107.961 146.565 120.735 131.261 128.051C115.899 135.449 99.4924 137.332 85.9761 133.511C72.3775 129.632 61.7514 120.106 47.5359 112.728C33.3451 105.49 15.6472 100.458 7.51563 89.1216C-0.558293 77.7028 1.01647 60.0373 9.38181 47.74C17.6648 35.385 32.8208 28.4559 45.8363 22.4813C58.8518 16.5067 69.8091 11.5444 83.7052 7.29044C97.6589 2.95416 114.494 -0.591454 123.984 6.1765C133.475 12.9445 135.563 30.1083 142.961 46.6967Z" fill="#E1E4E8"/>
<path d="M80.8506 117.339L128.936 91.8063C129.575 91.3811 130 90.7425 130 89.8913V44.1452C130 43.294 129.361 42.4428 128.724 42.2303L80.8512 16.061C80.2126 15.6359 79.3623 15.6359 78.9362 16.061C75.3188 17.976 38.2982 37.7625 31.0638 41.3802C30.4251 41.8053 30 42.6565 30 43.2952V85.2096C30 85.8483 30.4251 86.6985 31.0638 86.912L78.7231 116.913C79.1482 117.125 79.3618 117.338 79.7869 117.338C80.212 117.551 80.6371 117.338 80.8506 117.338L80.8506 117.339ZM81.9144 111.806V71.5945L97.4459 63.0843V75.4244C97.4459 76.2756 97.871 76.9133 98.5097 77.3394C98.9348 77.5519 99.1483 77.5519 99.5735 77.5519C99.9986 77.5519 100.212 77.5519 100.637 77.3394L112.34 70.9568C112.978 70.5317 113.403 69.893 113.403 69.0418V54.3606L125.744 47.552V88.4032L81.9144 111.806ZM63.1907 29.2538L109.147 54.3598V67.7637L101.701 71.8062V59.4661V59.2535V59.041C101.701 58.8284 101.701 58.6158 101.488 58.4023C101.276 58.1897 101.276 57.9772 101.063 57.7636L100.638 57.3385L55.7423 33.296L63.1907 29.2538ZM79.7869 20.3175L123.404 44.1474L111.277 50.7437L67.6595 26.9137L79.7869 20.3175ZM51.0625 35.6364L95.1058 59.4663L79.7869 67.7639L36.5961 43.2963L51.0625 35.6364ZM34.2538 84.1483V46.9156L77.6577 71.3832V111.384L34.2538 84.1483Z" fill="#2C302E"/>
<circle cx="130" cy="91.7422" r="23.5" fill="#E6E7E9" stroke="#2C302E" stroke-width="3"/>
<path d="M120.665 101.967V105.558C120.665 106.415 119.972 107.112 119.111 107.112C118.25 107.112 117.553 106.419 117.553 105.558L117.553 97.7678C117.553 96.9201 118.246 96.2231 119.111 96.2231H126.892C127.749 96.2231 128.446 96.9154 128.446 97.7678C128.446 98.6421 127.754 99.3302 126.892 99.3302L122.378 99.3305C126.675 103.543 133.569 103.467 137.777 99.184C139.77 97.1464 140.888 94.4077 140.888 91.5446C140.888 90.6969 141.585 89.9909 142.446 89.9909C143.307 89.9909 144 90.6922 144 91.5446C143.991 99.2859 137.719 105.554 129.987 105.536C126.551 105.536 123.235 104.262 120.665 101.967L120.665 101.967ZM139.335 81.1315V77.5537C139.335 76.697 140.027 76 140.893 76C141.749 76 142.451 76.6923 142.451 77.5537L142.45 85.3396C142.45 86.2054 141.753 86.8934 140.892 86.8934L133.111 86.8931C132.25 86.8931 131.553 86.2094 131.553 85.3393C131.553 84.465 132.246 83.7769 133.111 83.7769H137.626C133.329 79.5644 126.431 79.6401 122.223 83.9324C120.234 85.9611 119.116 88.7087 119.116 91.5448C119.116 92.4192 118.419 93.1162 117.558 93.1162C116.697 93.1162 116 92.4238 116 91.5448C116.013 83.8302 122.285 77.5713 130.013 77.5713C133.449 77.5713 136.765 78.8451 139.335 81.1311L139.335 81.1315Z" fill="#2C302E"/>
</svg>
