<svg width="164" height="137" viewBox="0 0 164 137" fill="none" xmlns="http://www.w3.org/2000/svg">
<path d="M142.961 46.6967C150.219 63.3097 162.68 79.1496 161.822 93.5142C160.906 107.961 146.564 120.735 131.26 128.051C115.899 135.449 99.492 137.332 85.9758 133.511C72.3772 129.632 61.7511 120.106 47.5356 112.728C33.3448 105.49 15.6469 100.458 7.51533 89.1216C-0.558595 77.7028 1.01616 60.0373 9.38151 47.74C17.6645 35.385 32.8205 28.4559 45.836 22.4813C58.8515 16.5067 69.8088 11.5444 83.7049 7.29044C97.6586 2.95416 114.493 -0.591454 123.984 6.1765C133.474 12.9445 135.563 30.1083 142.961 46.6967Z" fill="#E1E4E8"/>
<mask id="path-2-outside-1_1290_8" maskUnits="userSpaceOnUse" x="35.9998" y="23.7422" width="97" height="82" fill="black">
<rect fill="white" x="35.9998" y="23.7422" width="97" height="82"/>
<path d="M124.578 24.7422H44.4217C42.4541 24.7448 40.5675 25.5274 39.176 26.9184C37.785 28.31 37.0025 30.1965 36.9998 32.1641V97.4766C37.0024 99.4441 37.785 101.331 39.176 102.722C40.5676 104.113 42.4541 104.896 44.4217 104.898H124.578C126.545 104.896 128.432 104.113 129.824 102.722C131.215 101.331 131.997 99.4441 132 97.4766V32.1641C131.997 30.1965 131.215 28.3099 129.824 26.9184C128.432 25.5274 126.545 24.7449 124.578 24.7422ZM44.4217 27.7109H124.578C125.759 27.7109 126.892 28.1801 127.727 29.0151C128.562 29.85 129.031 30.9833 129.031 32.164V36.6171H66.6872C65.8675 36.6171 65.2028 37.2818 65.2028 38.1015C65.2028 39.2823 64.7337 40.4156 63.8987 41.2504C63.0637 42.0852 61.9305 42.5545 60.7498 42.5545H39.9685V32.1639C39.9685 30.983 40.4377 29.8498 41.2727 29.015C42.1076 28.1802 43.2409 27.7109 44.4217 27.7109ZM124.578 101.93H44.4217C43.2408 101.93 42.1076 101.461 41.2728 100.626C40.4379 99.7906 39.9686 98.6574 39.9686 97.4766V45.5235H60.7499C62.4602 45.5215 64.1176 44.9298 65.4429 43.8483C66.7675 42.7668 67.6788 41.2612 68.0233 39.586H129.03V97.4766C129.03 98.6575 128.561 99.7907 127.726 100.626C126.891 101.46 125.758 101.93 124.577 101.93H124.578ZM42.9373 38.1016C42.9373 37.2818 43.6019 36.6172 44.4217 36.6172H45.906C46.7258 36.6172 47.3904 37.2818 47.3904 38.1016C47.3904 38.9213 46.7258 39.5859 45.906 39.5859H44.4217C43.6019 39.5859 42.9373 38.9213 42.9373 38.1016ZM50.3592 38.1016C50.3592 37.2818 51.0238 36.6172 51.8435 36.6172H53.3279C54.1476 36.6172 54.8123 37.2818 54.8123 38.1016C54.8123 38.9213 54.1476 39.5859 53.3279 39.5859H51.8435C51.0238 39.5859 50.3592 38.9213 50.3592 38.1016ZM57.781 38.1016C57.781 37.2818 58.4457 36.6172 59.2654 36.6172H60.7498C61.5695 36.6172 62.2342 37.2818 62.2342 38.1016C62.2342 38.9213 61.5695 39.5859 60.7498 39.5859H59.2654C58.4457 39.5859 57.781 38.9213 57.781 38.1016ZM91.9217 32.1641C91.9217 31.3443 92.5863 30.6797 93.406 30.6797H117.156C117.976 30.6797 118.64 31.3443 118.64 32.1641C118.64 32.9838 117.976 33.6484 117.156 33.6484H93.406C92.5863 33.6484 91.9217 32.9838 91.9217 32.1641ZM120.125 32.1641C120.125 31.3443 120.789 30.6797 121.609 30.6797H124.578C125.398 30.6797 126.062 31.3443 126.062 32.1641C126.062 32.9838 125.398 33.6484 124.578 33.6484H121.609C120.789 33.6484 120.125 32.9838 120.125 32.1641ZM111.219 54.4297H57.781C56.6002 54.4297 55.4669 54.8989 54.6321 55.7338C53.7973 56.5688 53.328 57.702 53.328 58.8827V88.5702C53.328 89.7511 53.7972 90.8843 54.6321 91.7191C55.4671 92.5539 56.6003 93.0233 57.781 93.0233H111.219C112.399 93.0233 113.533 92.5541 114.367 91.7191C115.202 90.8842 115.672 89.7509 115.672 88.5702V58.8827C115.672 57.7019 115.202 56.5686 114.367 55.7338C113.532 54.899 112.399 54.4297 111.219 54.4297ZM57.781 57.3984H111.219C111.612 57.3984 111.99 57.5548 112.268 57.8331C112.547 58.1115 112.703 58.4892 112.703 58.8828V60.3672H56.2967V58.8828C56.2967 58.0631 56.9613 57.3984 57.781 57.3984ZM112.703 67.7891H56.2967V63.3359H112.703V67.7891ZM111.219 90.0547H57.781C56.9613 90.0547 56.2967 89.39 56.2967 88.5703V70.7578H112.703V88.5703C112.703 88.9639 112.547 89.3417 112.268 89.62C111.99 89.8983 111.612 90.0547 111.219 90.0547ZM109.734 85.6016C109.734 85.9952 109.578 86.3729 109.299 86.6512C109.021 86.9295 108.643 87.0859 108.25 87.0859H99.3435C98.5238 87.0859 97.8592 86.4213 97.8592 85.6016C97.8592 84.7818 98.5238 84.1172 99.3435 84.1172H108.25C108.643 84.1172 109.021 84.2736 109.299 84.5519C109.578 84.8302 109.734 85.2079 109.734 85.6016ZM109.734 81.1484C109.734 81.5421 109.578 81.9198 109.299 82.1981C109.021 82.4764 108.643 82.6328 108.25 82.6328H90.4373C89.6176 82.6328 88.9529 81.9681 88.9529 81.1484C88.9529 80.3287 89.6176 79.6641 90.4373 79.6641H108.25C108.643 79.6641 109.021 79.8205 109.299 80.0988C109.578 80.3771 109.734 80.7548 109.734 81.1484Z"/>
</mask>
<path d="M124.578 24.7422H44.4217C42.4541 24.7448 40.5675 25.5274 39.176 26.9184C37.785 28.31 37.0025 30.1965 36.9998 32.1641V97.4766C37.0024 99.4441 37.785 101.331 39.176 102.722C40.5676 104.113 42.4541 104.896 44.4217 104.898H124.578C126.545 104.896 128.432 104.113 129.824 102.722C131.215 101.331 131.997 99.4441 132 97.4766V32.1641C131.997 30.1965 131.215 28.3099 129.824 26.9184C128.432 25.5274 126.545 24.7449 124.578 24.7422ZM44.4217 27.7109H124.578C125.759 27.7109 126.892 28.1801 127.727 29.0151C128.562 29.85 129.031 30.9833 129.031 32.164V36.6171H66.6872C65.8675 36.6171 65.2028 37.2818 65.2028 38.1015C65.2028 39.2823 64.7337 40.4156 63.8987 41.2504C63.0637 42.0852 61.9305 42.5545 60.7498 42.5545H39.9685V32.1639C39.9685 30.983 40.4377 29.8498 41.2727 29.015C42.1076 28.1802 43.2409 27.7109 44.4217 27.7109ZM124.578 101.93H44.4217C43.2408 101.93 42.1076 101.461 41.2728 100.626C40.4379 99.7906 39.9686 98.6574 39.9686 97.4766V45.5235H60.7499C62.4602 45.5215 64.1176 44.9298 65.4429 43.8483C66.7675 42.7668 67.6788 41.2612 68.0233 39.586H129.03V97.4766C129.03 98.6575 128.561 99.7907 127.726 100.626C126.891 101.46 125.758 101.93 124.577 101.93H124.578ZM42.9373 38.1016C42.9373 37.2818 43.6019 36.6172 44.4217 36.6172H45.906C46.7258 36.6172 47.3904 37.2818 47.3904 38.1016C47.3904 38.9213 46.7258 39.5859 45.906 39.5859H44.4217C43.6019 39.5859 42.9373 38.9213 42.9373 38.1016ZM50.3592 38.1016C50.3592 37.2818 51.0238 36.6172 51.8435 36.6172H53.3279C54.1476 36.6172 54.8123 37.2818 54.8123 38.1016C54.8123 38.9213 54.1476 39.5859 53.3279 39.5859H51.8435C51.0238 39.5859 50.3592 38.9213 50.3592 38.1016ZM57.781 38.1016C57.781 37.2818 58.4457 36.6172 59.2654 36.6172H60.7498C61.5695 36.6172 62.2342 37.2818 62.2342 38.1016C62.2342 38.9213 61.5695 39.5859 60.7498 39.5859H59.2654C58.4457 39.5859 57.781 38.9213 57.781 38.1016ZM91.9217 32.1641C91.9217 31.3443 92.5863 30.6797 93.406 30.6797H117.156C117.976 30.6797 118.64 31.3443 118.64 32.1641C118.64 32.9838 117.976 33.6484 117.156 33.6484H93.406C92.5863 33.6484 91.9217 32.9838 91.9217 32.1641ZM120.125 32.1641C120.125 31.3443 120.789 30.6797 121.609 30.6797H124.578C125.398 30.6797 126.062 31.3443 126.062 32.1641C126.062 32.9838 125.398 33.6484 124.578 33.6484H121.609C120.789 33.6484 120.125 32.9838 120.125 32.1641ZM111.219 54.4297H57.781C56.6002 54.4297 55.4669 54.8989 54.6321 55.7338C53.7973 56.5688 53.328 57.702 53.328 58.8827V88.5702C53.328 89.7511 53.7972 90.8843 54.6321 91.7191C55.4671 92.5539 56.6003 93.0233 57.781 93.0233H111.219C112.399 93.0233 113.533 92.5541 114.367 91.7191C115.202 90.8842 115.672 89.7509 115.672 88.5702V58.8827C115.672 57.7019 115.202 56.5686 114.367 55.7338C113.532 54.899 112.399 54.4297 111.219 54.4297ZM57.781 57.3984H111.219C111.612 57.3984 111.99 57.5548 112.268 57.8331C112.547 58.1115 112.703 58.4892 112.703 58.8828V60.3672H56.2967V58.8828C56.2967 58.0631 56.9613 57.3984 57.781 57.3984ZM112.703 67.7891H56.2967V63.3359H112.703V67.7891ZM111.219 90.0547H57.781C56.9613 90.0547 56.2967 89.39 56.2967 88.5703V70.7578H112.703V88.5703C112.703 88.9639 112.547 89.3417 112.268 89.62C111.99 89.8983 111.612 90.0547 111.219 90.0547ZM109.734 85.6016C109.734 85.9952 109.578 86.3729 109.299 86.6512C109.021 86.9295 108.643 87.0859 108.25 87.0859H99.3435C98.5238 87.0859 97.8592 86.4213 97.8592 85.6016C97.8592 84.7818 98.5238 84.1172 99.3435 84.1172H108.25C108.643 84.1172 109.021 84.2736 109.299 84.5519C109.578 84.8302 109.734 85.2079 109.734 85.6016ZM109.734 81.1484C109.734 81.5421 109.578 81.9198 109.299 82.1981C109.021 82.4764 108.643 82.6328 108.25 82.6328H90.4373C89.6176 82.6328 88.9529 81.9681 88.9529 81.1484C88.9529 80.3287 89.6176 79.6641 90.4373 79.6641H108.25C108.643 79.6641 109.021 79.8205 109.299 80.0988C109.578 80.3771 109.734 80.7548 109.734 81.1484Z" fill="#2C302E"/>
<path d="M124.578 24.7422H44.4217C42.4541 24.7448 40.5675 25.5274 39.176 26.9184C37.785 28.31 37.0025 30.1965 36.9998 32.1641V97.4766C37.0024 99.4441 37.785 101.331 39.176 102.722C40.5676 104.113 42.4541 104.896 44.4217 104.898H124.578C126.545 104.896 128.432 104.113 129.824 102.722C131.215 101.331 131.997 99.4441 132 97.4766V32.1641C131.997 30.1965 131.215 28.3099 129.824 26.9184C128.432 25.5274 126.545 24.7449 124.578 24.7422ZM44.4217 27.7109H124.578C125.759 27.7109 126.892 28.1801 127.727 29.0151C128.562 29.85 129.031 30.9833 129.031 32.164V36.6171H66.6872C65.8675 36.6171 65.2028 37.2818 65.2028 38.1015C65.2028 39.2823 64.7337 40.4156 63.8987 41.2504C63.0637 42.0852 61.9305 42.5545 60.7498 42.5545H39.9685V32.1639C39.9685 30.983 40.4377 29.8498 41.2727 29.015C42.1076 28.1802 43.2409 27.7109 44.4217 27.7109ZM124.578 101.93H44.4217C43.2408 101.93 42.1076 101.461 41.2728 100.626C40.4379 99.7906 39.9686 98.6574 39.9686 97.4766V45.5235H60.7499C62.4602 45.5215 64.1176 44.9298 65.4429 43.8483C66.7675 42.7668 67.6788 41.2612 68.0233 39.586H129.03V97.4766C129.03 98.6575 128.561 99.7907 127.726 100.626C126.891 101.46 125.758 101.93 124.577 101.93H124.578ZM42.9373 38.1016C42.9373 37.2818 43.6019 36.6172 44.4217 36.6172H45.906C46.7258 36.6172 47.3904 37.2818 47.3904 38.1016C47.3904 38.9213 46.7258 39.5859 45.906 39.5859H44.4217C43.6019 39.5859 42.9373 38.9213 42.9373 38.1016ZM50.3592 38.1016C50.3592 37.2818 51.0238 36.6172 51.8435 36.6172H53.3279C54.1476 36.6172 54.8123 37.2818 54.8123 38.1016C54.8123 38.9213 54.1476 39.5859 53.3279 39.5859H51.8435C51.0238 39.5859 50.3592 38.9213 50.3592 38.1016ZM57.781 38.1016C57.781 37.2818 58.4457 36.6172 59.2654 36.6172H60.7498C61.5695 36.6172 62.2342 37.2818 62.2342 38.1016C62.2342 38.9213 61.5695 39.5859 60.7498 39.5859H59.2654C58.4457 39.5859 57.781 38.9213 57.781 38.1016ZM91.9217 32.1641C91.9217 31.3443 92.5863 30.6797 93.406 30.6797H117.156C117.976 30.6797 118.64 31.3443 118.64 32.1641C118.64 32.9838 117.976 33.6484 117.156 33.6484H93.406C92.5863 33.6484 91.9217 32.9838 91.9217 32.1641ZM120.125 32.1641C120.125 31.3443 120.789 30.6797 121.609 30.6797H124.578C125.398 30.6797 126.062 31.3443 126.062 32.1641C126.062 32.9838 125.398 33.6484 124.578 33.6484H121.609C120.789 33.6484 120.125 32.9838 120.125 32.1641ZM111.219 54.4297H57.781C56.6002 54.4297 55.4669 54.8989 54.6321 55.7338C53.7973 56.5688 53.328 57.702 53.328 58.8827V88.5702C53.328 89.7511 53.7972 90.8843 54.6321 91.7191C55.4671 92.5539 56.6003 93.0233 57.781 93.0233H111.219C112.399 93.0233 113.533 92.5541 114.367 91.7191C115.202 90.8842 115.672 89.7509 115.672 88.5702V58.8827C115.672 57.7019 115.202 56.5686 114.367 55.7338C113.532 54.899 112.399 54.4297 111.219 54.4297ZM57.781 57.3984H111.219C111.612 57.3984 111.99 57.5548 112.268 57.8331C112.547 58.1115 112.703 58.4892 112.703 58.8828V60.3672H56.2967V58.8828C56.2967 58.0631 56.9613 57.3984 57.781 57.3984ZM112.703 67.7891H56.2967V63.3359H112.703V67.7891ZM111.219 90.0547H57.781C56.9613 90.0547 56.2967 89.39 56.2967 88.5703V70.7578H112.703V88.5703C112.703 88.9639 112.547 89.3417 112.268 89.62C111.99 89.8983 111.612 90.0547 111.219 90.0547ZM109.734 85.6016C109.734 85.9952 109.578 86.3729 109.299 86.6512C109.021 86.9295 108.643 87.0859 108.25 87.0859H99.3435C98.5238 87.0859 97.8592 86.4213 97.8592 85.6016C97.8592 84.7818 98.5238 84.1172 99.3435 84.1172H108.25C108.643 84.1172 109.021 84.2736 109.299 84.5519C109.578 84.8302 109.734 85.2079 109.734 85.6016ZM109.734 81.1484C109.734 81.5421 109.578 81.9198 109.299 82.1981C109.021 82.4764 108.643 82.6328 108.25 82.6328H90.4373C89.6176 82.6328 88.9529 81.9681 88.9529 81.1484C88.9529 80.3287 89.6176 79.6641 90.4373 79.6641H108.25C108.643 79.6641 109.021 79.8205 109.299 80.0988C109.578 80.3771 109.734 80.7548 109.734 81.1484Z" stroke="#2C302E" stroke-width="0.6" mask="url(#path-2-outside-1_1290_8)"/>
<circle cx="136" cy="96" r="25" fill="#E6E7E9"/>
<circle cx="136" cy="96" r="23.5" stroke="#2C302E" stroke-width="3"/>
<path d="M136.936 101.217L135.329 107.871L135.329 107.872C135.164 108.542 134.569 109.009 133.881 109.009L136.936 101.217ZM136.936 101.217L144.355 108.636L144.356 108.637C144.647 108.925 145.033 109.084 145.442 109.084C145.851 109.084 146.238 108.924 146.532 108.633L146.532 108.633L148.798 106.367C149.089 106.077 149.25 105.689 149.25 105.277C149.25 104.866 149.089 104.478 148.799 104.188L148.799 104.188L141.627 97.0154L148.102 95.3397C148.102 95.3396 148.103 95.3396 148.103 95.3395C148.733 95.1803 149.182 94.6368 149.221 93.9887L149.221 93.9886C149.26 93.3388 148.878 92.7435 148.27 92.5096L125.771 83.8503C125.771 83.8503 125.771 83.8503 125.771 83.8502C125.599 83.7839 125.418 83.75 125.235 83.75C124.746 83.75 124.289 83.9925 124.011 84.3965L124.011 84.3965C123.733 84.8003 123.673 85.3154 123.85 85.7767L123.85 85.7767L123.85 85.7776L132.495 108.06L132.495 108.06C132.719 108.636 133.264 109.009 133.881 109.009L136.936 101.217ZM145.231 93.7549L137.669 95.712L137.246 95.8216L137.555 96.1308L146.702 105.278L145.442 106.536L136.004 97.0977L135.689 96.7825L135.584 97.2158L133.713 104.965L126.578 86.576L145.231 93.7549Z" fill="#2C302E" stroke="#2C302E" stroke-width="0.5"/>
</svg>
