<svg width="164" height="138" viewBox="0 0 164 138" fill="none" xmlns="http://www.w3.org/2000/svg">
<path d="M142.961 46.6967C150.219 63.3097 162.68 79.1496 161.822 93.5142C160.907 107.961 146.565 120.735 131.261 128.051C115.899 135.449 99.4923 137.332 85.976 133.511C72.3775 129.632 61.7514 120.106 47.5359 112.728C33.3451 105.49 15.6472 100.458 7.5156 89.1216C-0.558324 77.7028 1.01644 60.0373 9.38178 47.74C17.6648 35.385 32.8207 28.4559 45.8362 22.4813C58.8517 16.5067 69.8091 11.5444 83.7052 7.29044C97.6589 2.95416 114.494 -0.591454 123.984 6.1765C133.475 12.9445 135.563 30.1083 142.961 46.6967Z" fill="#E1E4E8"/>
<path d="M92.6806 89.0193L131.149 68.5934C131.66 68.2533 132 67.7424 132 67.0615V30.4646C132 29.7837 131.489 29.1027 130.979 28.9327L92.6811 7.99725C92.1702 7.65717 91.49 7.65717 91.1491 7.99725C88.2551 9.52923 58.6387 25.3584 52.8511 28.2526C52.3402 28.5927 52.0001 29.2736 52.0001 29.7846V63.3161C52.0001 63.827 52.3402 64.5072 52.8511 64.6781L90.9786 88.6787C91.3187 88.8488 91.4895 89.0188 91.8296 89.0188C92.1697 89.1889 92.5098 89.0188 92.6806 89.0188L92.6806 89.0193ZM93.5316 84.5935V52.4241L105.957 45.6159V55.488C105.957 56.1689 106.297 56.6791 106.808 57.0199C107.148 57.19 107.319 57.19 107.659 57.19C107.999 57.19 108.17 57.19 108.51 57.0199L117.872 51.9139C118.383 51.5738 118.723 51.0629 118.723 50.3819V38.6369L128.595 33.19V65.871L93.5316 84.5935ZM78.5527 18.5515L115.318 38.6363V49.3594L109.361 52.5934V42.7213V42.5512V42.3812C109.361 42.2112 109.361 42.0411 109.191 41.8703C109.021 41.7002 109.021 41.5302 108.851 41.3593L108.511 41.0193L72.594 21.7852L78.5527 18.5515ZM91.8297 11.4024L126.723 30.4664L117.021 35.7434L82.1277 16.6794L91.8297 11.4024ZM68.8501 23.6576L104.085 42.7215L91.8297 49.3596L57.277 29.7855L68.8501 23.6576ZM55.4032 62.4671V32.6809L90.1263 52.255V84.2559L55.4032 62.4671Z" fill="#2C302E"/>
<path d="M137.778 100.705C119.884 116.107 105.361 120.272 105.222 120.31C95.834 122.915 85.9809 123.985 76.1531 123.506L53.6527 119.303V119.329C53.5772 119.317 53.5017 119.279 53.414 119.279H43.3089C42.5795 119.279 42.0001 119.87 42.0001 120.588C42.0001 121.305 42.5917 121.896 43.3089 121.896H53.3007L75.8505 126.099C77.499 126.187 79.1351 126.225 80.7706 126.225C89.3649 126.225 97.8091 125.092 105.927 122.84C106.543 122.677 121.116 118.511 139.501 102.693C140.143 102.139 142.131 100.441 141.993 98.1254C141.892 96.4646 140.823 94.9293 139.074 93.935C135.777 92.06 132.329 92.6262 131.674 92.7517C130.63 92.9659 129.623 93.3179 128.679 93.8086C127.76 92.8272 126.314 91.6817 124.25 91.141C121.129 90.3106 118.499 91.3552 117.09 92.1478C113.352 89.2915 108.268 88.9387 104.154 91.3043L96.5656 95.4316H86.4484C85.3915 95.4193 84.3347 95.306 83.29 95.0664C81.7803 94.739 80.3328 94.1605 78.8985 93.3424C70.5174 89.265 60.7398 90.1464 53.1263 95.6448H43.3233C42.5938 95.6448 42.0145 96.2365 42.0145 96.9536C42.0145 97.6707 42.6061 98.2624 43.3233 98.2624H53.4906C53.7925 98.2624 54.0444 98.1491 54.2709 97.9859L54.2832 97.9981C61.0913 92.8518 70.0762 91.9705 77.6645 95.658C79.2498 96.577 80.9491 97.2433 82.7108 97.6339C83.9318 97.9104 85.1775 98.0491 86.4231 98.0614H96.9688C102.455 98.0868 107.401 100.955 109.301 105.221C109.527 105.737 109.477 106.304 109.15 106.769C108.822 107.247 108.294 107.524 107.715 107.474C99.9638 107.033 93.3575 107.096 88.097 107.662C87.3799 107.738 86.8514 108.392 86.9392 109.11C87.0147 109.777 87.5809 110.28 88.2357 110.28C88.2857 110.28 88.3235 110.28 88.3744 110.268C93.4963 109.714 99.9516 109.651 107.564 110.079C109.05 110.18 110.446 109.475 111.302 108.242C111.541 107.89 111.717 107.512 111.843 107.109L128.026 97.2441L128.051 97.2819L129.096 96.5902C130.052 95.9608 131.096 95.5333 132.191 95.3069C132.493 95.2437 135.236 94.753 137.778 96.1882C138.76 96.742 139.326 97.4846 139.377 98.2518C139.414 99.2955 138.18 100.352 137.778 100.705L137.778 100.705ZM106.934 98.5903C105.222 97.3825 103.234 96.4767 101.083 95.9605L105.424 93.595C108.332 91.9088 111.855 92.0097 114.648 93.6959L106.934 98.5903ZM111.678 104.165C111.049 102.756 110.131 101.484 109.035 100.352L116.825 95.419L116.875 95.4567L117.731 94.8405C118.184 94.5131 120.612 92.9024 123.557 93.6827C124.778 94.0102 125.671 94.6264 126.326 95.2303L111.678 104.165Z" fill="#2C302E"/>
</svg>
