<svg width="164" height="136" viewBox="0 0 164 136" fill="none" xmlns="http://www.w3.org/2000/svg">
<path d="M142.961 45.6967C150.219 62.3097 162.68 78.1496 161.822 92.5142C160.906 106.961 146.565 119.735 131.26 127.051C115.899 134.449 99.4922 136.332 85.976 132.511C72.3774 128.632 61.7513 119.106 47.5358 111.728C33.345 104.49 15.6471 99.4581 7.51551 88.1216C-0.558411 76.7028 1.01635 59.0373 9.38169 46.74C17.6647 34.385 32.8206 27.4559 45.8361 21.4813C58.8516 15.5067 69.809 10.5444 83.7051 6.29044C97.6588 1.95416 114.494 -1.59145 123.984 5.1765C133.474 11.9445 135.563 29.1083 142.961 45.6967Z" fill="#E1E4E8"/>
<path d="M126.222 87.4374C126.037 87.1004 125.7 86.8649 125.321 86.8058L105.056 83.5984C104.669 83.5309 104.282 83.6576 104.004 83.9271C102.716 85.1477 101.672 86.562 100.914 88.128C99.5085 91.024 96.1578 92.43 93.1099 91.4029C86.6862 89.231 80.9785 85.6868 76.1541 80.8542C71.3215 76.0133 67.7688 70.3138 65.6053 63.8983C64.5531 60.8004 65.934 57.5249 68.8803 56.0938C70.463 55.3278 71.869 54.284 73.0812 52.9959C73.3423 52.718 73.46 52.3308 73.4009 51.9437L70.202 31.6872C70.1345 31.2911 69.9069 30.9624 69.5621 30.7772C68.6025 30.2467 67.6005 29.8344 66.5651 29.5482C61.5982 28.1422 56.2433 29.5314 52.5896 33.1767C50.8211 34.9531 49.5412 37.1673 48.902 39.5753C48.8936 39.6088 48.8852 39.6428 48.8769 39.6679C48.7 40.6699 48.5482 41.6886 48.4305 42.699C46.2502 60.8675 52.4211 78.7074 65.3521 91.63C76.5665 102.853 91.4843 108.973 107.119 108.973C109.494 108.973 111.892 108.83 114.284 108.543C115.311 108.417 116.329 108.274 117.297 108.105C117.331 108.097 117.373 108.089 117.407 108.08C119.823 107.44 122.037 106.161 123.814 104.384C127.459 100.739 128.857 95.3841 127.442 90.4087C127.164 89.3984 126.752 88.3969 126.222 87.4367L126.222 87.4374ZM122.055 102.634C120.606 104.09 118.797 105.134 116.827 105.665C115.909 105.825 114.958 105.959 113.989 106.077C96.5793 108.156 79.4964 102.255 67.1208 89.871C54.745 77.4946 48.8353 60.4125 50.9233 42.9938C51.0327 42.0426 51.1677 41.0914 51.3356 40.1652C51.8662 38.1953 52.9099 36.3849 54.3667 34.9372C57.3806 31.9234 61.7923 30.7781 65.8923 31.9402C66.549 32.1255 67.1973 32.3782 67.8289 32.6811L70.8343 51.6908C69.9333 52.5578 68.9146 53.2735 67.7865 53.8208C63.754 55.7741 61.8008 60.4381 63.2401 64.6731C65.5303 71.4588 69.285 77.4869 74.3953 82.5973C79.4973 87.6993 85.5254 91.454 92.3195 93.7524C96.5629 95.1835 101.227 93.2302 103.172 89.1977C103.711 88.078 104.426 87.0592 105.302 86.1498L124.311 89.1637C124.614 89.7952 124.867 90.4435 125.052 91.1002C126.214 95.2086 125.069 99.6283 122.055 102.634L122.055 102.634ZM86.7549 30.2127C86.7716 29.5226 87.3864 28.9836 88.0431 29.0004C98.5835 29.295 108.501 33.5718 115.969 41.0309C123.428 48.4905 127.705 58.4081 128 68.957C128.016 69.6471 127.477 70.22 126.787 70.2451H126.754C126.08 70.2451 125.525 69.7062 125.508 69.0328C125.23 59.1324 121.215 49.8118 114.21 42.8078C107.188 35.786 97.8683 31.7786 87.9679 31.5008C87.2772 31.4841 86.7383 30.9027 86.7556 30.2126L86.7549 30.2127ZM86.7549 40.9724C86.78 40.2823 87.3613 39.7517 88.0514 39.7684C95.7126 40.063 102.928 43.2117 108.358 48.6418C113.788 54.0719 116.937 61.2788 117.223 68.9483C117.248 69.6384 116.709 70.2198 116.019 70.2449H115.968C115.303 70.2449 114.747 69.7143 114.722 69.0409C114.461 62.0108 111.565 55.3935 106.59 50.4097C101.606 45.4338 94.9801 42.5378 87.9502 42.2683C87.2679 42.2432 86.729 41.6624 86.7546 40.9723L86.7549 40.9724ZM88.0849 50.5448C92.8756 50.8393 97.3712 52.8685 100.747 56.2527C104.148 59.6453 106.169 64.1497 106.455 68.9147C106.497 69.6048 105.967 70.1945 105.284 70.2364H105.209C104.552 70.2364 104.005 69.7225 103.963 69.0575C103.718 64.8984 101.95 60.9752 98.9868 58.0117C96.0399 55.0565 92.1168 53.2885 87.9409 53.0274C87.2508 52.9856 86.7286 52.3959 86.7704 51.7058C86.7967 51.0246 87.3859 50.5107 88.0849 50.5448Z" fill="#2C302E" stroke="#2C302E" stroke-width="0.5"/>
</svg>
