<svg width="162" height="136" viewBox="0 0 162 136" fill="none" xmlns="http://www.w3.org/2000/svg">
<path d="M141.961 45.6967C149.219 62.3097 161.68 78.1496 160.822 92.5142C159.906 106.961 145.565 119.735 130.26 127.051C114.899 134.449 98.4922 136.332 84.976 132.511C71.3774 128.632 60.7513 119.106 46.5358 111.728C32.345 104.49 14.6471 99.458 6.5155 88.1216C-1.55841 76.7028 0.0163491 59.0373 8.38169 46.74C16.6647 34.385 31.8206 27.4559 44.8361 21.4813C57.8516 15.5067 68.809 10.5444 82.7051 6.29044C96.6588 1.95416 113.494 -1.59145 122.984 5.1765C132.474 11.9445 134.563 29.1083 141.961 45.6967Z" fill="#E1E4E8"/>
<path d="M65.1264 35.2977H82.3621V33.4509C82.3621 32.2256 82.8623 31.1112 83.6682 30.3061C84.4741 29.5002 85.5876 29 86.813 29C88.0385 29 89.1528 29.5002 89.9579 30.3061L90.053 30.4113C90.8027 31.2085 91.264 32.2826 91.264 33.4517V35.2984H108.501V33.4517C108.501 32.2264 109.001 31.112 109.807 30.3069C110.613 29.501 111.727 29.0008 112.952 29.0008C114.178 29.0008 115.292 29.501 116.097 30.3069L116.192 30.4121C116.942 31.2093 117.403 32.2834 117.403 33.4525V35.2992H127.76C128.616 35.2992 129.31 35.9934 129.31 36.849V72.4105L129.423 72.5229C134.104 77.2038 137 83.6723 137 90.8147C137 97.9571 134.104 104.427 129.423 109.107C124.742 113.788 118.274 116.684 111.131 116.684C103.989 116.684 97.519 113.788 92.8389 109.107C91.633 107.901 90.5467 106.577 89.5975 105.154H45.5497C44.6941 105.154 44 104.46 44 103.605V36.8491C44 35.9935 44.6941 35.2994 45.5497 35.2994H56.2254V33.4527C56.2254 32.2274 56.7256 31.1129 57.5314 30.3079C58.3373 29.502 59.4509 29.0018 60.6756 29.0018C61.9009 29.0018 63.0153 29.502 63.8204 30.3079L63.9156 30.4131C64.6652 31.2103 65.1265 32.2844 65.1265 33.4535V35.3002L65.1264 35.2977ZM69.9702 85.6488H80.2517C81.1073 85.6488 81.8014 86.343 81.8014 87.1985V94.0079C81.8014 94.8634 81.1073 95.5576 80.2517 95.5576H69.9702C69.1146 95.5576 68.4205 94.8634 68.4205 94.0079V87.1985C68.4205 86.343 69.1146 85.6488 69.9702 85.6488ZM78.7012 88.749H71.5198V92.4583H78.7012V88.749ZM54.4362 85.6488H64.7177C65.5733 85.6488 66.2674 86.343 66.2674 87.1985V94.0079C66.2674 94.8634 65.5733 95.5576 64.7177 95.5576H54.4362C53.5806 95.5576 52.8865 94.8634 52.8865 94.0079V87.1985C52.8865 86.343 53.5806 85.6488 54.4362 85.6488ZM63.1672 88.749H55.9858V92.4583H63.1672V88.749ZM69.9685 71.8918H80.2501C81.1056 71.8918 81.7998 72.5859 81.7998 73.4415V80.2516C81.7998 81.1071 81.1056 81.8013 80.2501 81.8013H69.9685C69.113 81.8013 68.4188 81.1071 68.4188 80.2516V73.4415C68.4188 72.5859 69.113 71.8918 69.9685 71.8918ZM78.6995 74.992H71.5182V78.7019H78.6995V74.992ZM54.4345 71.8918H64.7161C65.5716 71.8918 66.2658 72.5859 66.2658 73.4415V80.2516C66.2658 81.1071 65.5716 81.8013 64.7161 81.8013H54.4345C53.579 81.8013 52.8848 81.1071 52.8848 80.2516V73.4415C52.8848 72.5859 53.579 71.8918 54.4345 71.8918ZM63.1655 74.992H55.9842V78.7019H63.1655V74.992ZM85.5003 58.1348H95.7818C96.6374 58.1348 97.3315 58.8289 97.3315 59.6845V66.4945C97.3315 67.3501 96.6374 68.0442 95.7818 68.0442H85.5003C84.6447 68.0442 83.9506 67.3501 83.9506 66.4945V59.6845C83.9506 58.8289 84.6447 58.1348 85.5003 58.1348ZM94.2313 61.235H87.05V64.9448H94.2313V61.235ZM69.9663 58.1348H80.2478C81.1034 58.1348 81.7975 58.8289 81.7975 59.6845V66.4945C81.7975 67.3501 81.1034 68.0442 80.2478 68.0442H69.9663C69.1107 68.0442 68.4166 67.3501 68.4166 66.4945V59.6845C68.4166 58.8289 69.1107 58.1348 69.9663 58.1348ZM78.6973 61.235H71.516V64.9448H78.6973V61.235ZM54.4323 58.1348H64.7138C65.5694 58.1348 66.2635 58.8289 66.2635 59.6845V66.4945C66.2635 67.3501 65.5694 68.0442 64.7138 68.0442H54.4323C53.5767 68.0442 52.8826 67.3501 52.8826 66.4945V59.6845C52.8826 58.8289 53.5767 58.1348 54.4323 58.1348ZM63.1633 61.235H55.982V64.9448H63.1633V61.235ZM101.838 100.627C101.183 101.175 100.206 101.089 99.6581 100.434C99.1104 99.7796 99.1968 98.8022 99.8513 98.2545L109.577 90.0942V72.2581C109.577 71.4025 110.271 70.7084 111.127 70.7084C111.982 70.7084 112.676 71.4025 112.676 72.2581V90.812C112.673 91.2539 112.485 91.6936 112.12 91.9985L101.837 100.626L101.838 100.627ZM126.204 69.7932V52.2684H47.0931V102.053H87.8176C86.1749 98.6537 85.2558 94.8415 85.2558 90.8137C85.2558 83.6713 88.1519 77.2028 92.8328 72.5219C97.5136 67.8411 103.983 64.945 111.125 64.945C116.75 64.945 121.958 66.7427 126.203 69.793L126.204 69.7932ZM127.226 74.7141C123.106 70.5948 117.413 68.0452 111.126 68.0452C104.839 68.0452 99.1439 70.5946 95.0253 74.7141C90.906 78.8334 88.3564 84.5271 88.3564 90.8139C88.3564 97.1021 90.9058 102.796 95.0253 106.914C99.1446 111.034 104.839 113.583 111.126 113.583C117.413 113.583 123.106 111.034 127.226 106.914C131.345 102.795 133.894 97.1006 133.894 90.8139C133.894 84.5271 131.345 78.8334 127.226 74.7141ZM108.494 38.3997H91.2573V38.8942C91.2573 40.1195 90.7571 41.2339 89.9513 42.039C89.1454 42.8449 88.0318 43.3451 86.8071 43.3451C85.5818 43.3451 84.4659 42.8449 83.6608 42.039C82.855 41.2332 82.3547 40.1196 82.3547 38.8942V38.3997H65.1191V38.8942C65.1191 40.1195 64.6188 41.2339 63.813 42.039C63.0071 42.8449 61.8935 43.3451 60.6689 43.3451C59.4435 43.3451 58.3291 42.8449 57.524 42.039L57.4289 41.9338C56.6792 41.1366 56.2179 40.0625 56.2179 38.8934V38.3989H47.0926V44.9148H126.204V38.3989H117.397V38.8934C117.397 40.1187 116.897 41.2331 116.091 42.0382C115.285 42.8441 114.171 43.3443 112.947 43.3443C111.72 43.3443 110.606 42.8441 109.8 42.0382L109.705 41.933C108.956 41.1358 108.494 40.0617 108.494 38.8926V38.3981L108.494 38.3997ZM113.899 32.4999C113.655 32.2555 113.316 32.102 112.946 32.102C112.576 32.102 112.237 32.2556 111.993 32.4999C111.749 32.7442 111.595 33.083 111.595 33.4528V38.8933C111.595 39.2386 111.724 39.555 111.935 39.7914L111.993 39.8462C112.238 40.0906 112.576 40.2441 112.948 40.2441C113.316 40.2441 113.655 40.0906 113.9 39.8462C114.144 39.6019 114.298 39.2631 114.298 38.8933V33.4528C114.298 33.1075 114.169 32.7911 113.96 32.5554L113.9 32.4992L113.899 32.4999ZM87.7593 32.4999C87.515 32.2555 87.1762 32.102 86.8064 32.102C86.4366 32.102 86.0971 32.2556 85.8535 32.4999C85.6092 32.7442 85.4556 33.083 85.4556 33.4528V38.8933C85.4556 39.2631 85.6092 39.6026 85.8535 39.8462C86.0978 40.0906 86.4381 40.2441 86.8078 40.2441C87.1762 40.2441 87.5157 40.0906 87.76 39.8462C88.0044 39.6019 88.1579 39.2631 88.1579 38.8933V33.4528C88.1579 33.1075 88.0296 32.7911 87.8199 32.5554L87.76 32.4992L87.7593 32.4999ZM61.6214 32.4999C61.3771 32.2555 61.0383 32.102 60.6685 32.102C60.3002 32.102 59.9607 32.2556 59.7163 32.4999C59.472 32.7442 59.3185 33.083 59.3185 33.4528V38.8933C59.3185 39.2386 59.4475 39.555 59.658 39.7914L59.7163 39.8462C59.9607 40.0906 60.2995 40.2441 60.6692 40.2441C61.0376 40.2441 61.3771 40.0906 61.6214 39.8462C61.8658 39.6019 62.0193 39.2631 62.0193 38.8933V33.4528C62.0193 33.1075 61.891 32.7911 61.6813 32.5554L61.6214 32.4992V32.4999ZM126.203 48.0158H47.092V49.1691H126.203V48.0158Z" fill="#2C302E"/>
</svg>
