<svg width="164" height="136" viewBox="0 0 164 136" fill="none" xmlns="http://www.w3.org/2000/svg">
<path d="M142.961 45.6967C150.219 62.3097 162.68 78.1496 161.822 92.5142C160.906 106.961 146.565 119.735 131.26 127.051C115.899 134.449 99.4922 136.332 85.976 132.511C72.3774 128.632 61.7513 119.106 47.5358 111.728C33.345 104.49 15.6471 99.458 7.5155 88.1216C-0.558407 76.7028 1.01635 59.0373 9.38169 46.74C17.6647 34.385 32.8206 27.4559 45.8361 21.4813C58.8516 15.5067 69.809 10.5444 83.7051 6.29044C97.6588 1.95416 114.494 -1.59145 123.984 5.1765C133.474 11.9445 135.563 29.1083 142.961 45.6967Z" fill="#E1E4E8"/>
<mask id="path-2-outside-1_1290_27" maskUnits="userSpaceOnUse" x="50" y="17" width="82" height="92" fill="black">
<rect fill="white" x="50" y="17" width="82" height="92"/>
<path fill-rule="evenodd" clip-rule="evenodd" d="M91.0032 58.8155C89.4704 58.8155 88.0006 58.2066 86.9168 57.1228C85.833 56.0389 85.2241 54.5697 85.2241 53.0371C85.2235 51.5043 85.8323 50.0344 86.9155 48.9507C87.9987 47.8662 89.4685 47.2573 91.0012 47.2567C92.534 47.256 94.0038 47.8642 95.0882 48.9474C96.172 50.0305 96.7816 51.5004 96.7823 53.0331V53.0422C96.779 54.573 96.1689 56.0402 95.0857 57.1227C94.0026 58.2046 92.534 58.8135 91.0032 58.8155ZM91.0032 68.9662V68.9655C91.2891 68.9746 91.5659 68.8674 91.7712 68.6679C91.9766 68.4691 92.0922 68.1955 92.0922 67.9096C92.0922 67.6237 91.9766 67.3502 91.7712 67.1507C91.5659 66.9519 91.2891 66.8447 91.0032 66.8531C86.8491 66.8524 82.9161 64.9824 80.2929 61.7609C77.6704 58.5393 76.6361 54.3092 77.4767 50.241C78.3182 46.1728 80.9447 42.699 84.6301 40.7816C88.3149 38.8648 92.6671 38.7075 96.4813 40.3534C100.296 41.9999 103.166 45.2748 104.299 49.2715C105.431 53.2682 104.705 57.5627 102.321 60.9649C101.85 61.6387 100.995 61.9285 100.21 61.6809C99.4261 61.4334 98.8927 60.705 98.894 59.8818V53.0358C98.8972 50.5614 97.7413 48.2288 95.7705 46.7322C93.8004 45.2365 91.2422 44.7491 88.8602 45.4171C86.4775 46.0844 84.5451 47.8297 83.6392 50.1319C82.7328 52.4348 82.9576 55.0287 84.2461 57.1404C85.5346 59.2528 87.7379 60.6401 90.2 60.8876C92.662 61.1358 95.0973 60.2164 96.7815 58.4035V59.8791C96.7815 61.0195 97.2688 62.1059 98.1207 62.8641C98.9725 63.6224 100.108 63.9811 101.241 63.8492C102.373 63.7179 103.396 63.1084 104.051 62.1748C106.798 58.2521 107.634 53.3021 106.327 48.6952C105.021 44.0884 101.711 40.3137 97.3144 38.4171C92.918 36.5198 87.9011 36.7023 83.6529 38.9129C79.4053 41.1234 76.3781 45.1279 75.4091 49.8174C74.4403 54.5075 75.6327 59.3835 78.6566 63.0969C81.6807 66.8096 86.2142 68.9649 91.003 68.9656L91.0032 68.9662ZM128.394 53.7861L123.878 57.9771V49.5938L128.394 53.7868V53.7861ZM55.9566 106.024C55.4939 106.024 55.0384 105.911 54.6304 105.694L80.5232 81.6537L87.635 88.2567C88.5531 89.1014 89.7552 89.5705 91.0034 89.5705C92.2516 89.5705 93.4536 89.1014 94.3718 88.2567L101.484 81.6537L127.376 105.694C126.968 105.911 126.513 106.024 126.051 106.024H55.9566ZM58.1293 57.9779L53.6146 53.7869L58.1293 49.5939V57.9779ZM53.2638 104.08C53.1676 103.793 53.1183 103.491 53.1176 103.188V56.2108L78.9705 80.2124L53.2638 104.08ZM63.835 28.8863C62.8824 28.8876 61.9695 29.2671 61.2956 29.9403C60.6218 30.6141 60.243 31.5277 60.2424 32.4803V59.9401L89.0728 86.7079C89.5952 87.1998 90.2859 87.474 91.0039 87.474C91.7218 87.474 92.4126 87.1998 92.9349 86.7079L121.765 59.9401V32.4803C121.765 31.5277 121.386 30.6141 120.712 29.9403C120.038 29.2671 119.125 28.8876 118.173 28.8863H63.835ZM89.0758 20.8655C89.5982 20.3723 90.2889 20.0974 91.0069 20.0974C91.7249 20.0974 92.4162 20.3723 92.9379 20.8655L99.3032 26.7751H82.7072L89.0718 20.8655H89.0758ZM128.742 104.08L103.035 80.2131L128.886 56.2099V103.187C128.886 103.49 128.836 103.791 128.74 104.079L128.742 104.08ZM118.171 26.7739H102.404L94.3706 19.3145C93.4525 18.4691 92.2504 18 91.0022 18C89.754 18 88.552 18.4691 87.6338 19.3145L79.6019 26.7739H63.8339C62.3199 26.7739 60.8676 27.3756 59.7967 28.4465C58.7259 29.5167 58.1248 30.9689 58.1248 32.4836V46.7117L51.3372 53.0119C51.1221 53.2121 50.9994 53.4928 51 53.7871V103.187C51 104.501 51.5224 105.762 52.4516 106.691C53.3808 107.62 54.6407 108.142 55.9551 108.143H126.05C127.363 108.141 128.621 107.619 129.548 106.691C130.476 105.763 130.998 104.504 131 103.193V53.7873C131 53.493 130.878 53.2123 130.662 53.0121L123.876 46.7119L123.877 32.4805C123.876 30.9671 123.274 29.5163 122.204 28.4467C121.134 27.3765 119.684 26.7748 118.17 26.7741L118.171 26.7739Z"/>
</mask>
<path fill-rule="evenodd" clip-rule="evenodd" d="M91.0032 58.8155C89.4704 58.8155 88.0006 58.2066 86.9168 57.1228C85.833 56.0389 85.2241 54.5697 85.2241 53.0371C85.2235 51.5043 85.8323 50.0344 86.9155 48.9507C87.9987 47.8662 89.4685 47.2573 91.0012 47.2567C92.534 47.256 94.0038 47.8642 95.0882 48.9474C96.172 50.0305 96.7816 51.5004 96.7823 53.0331V53.0422C96.779 54.573 96.1689 56.0402 95.0857 57.1227C94.0026 58.2046 92.534 58.8135 91.0032 58.8155ZM91.0032 68.9662V68.9655C91.2891 68.9746 91.5659 68.8674 91.7712 68.6679C91.9766 68.4691 92.0922 68.1955 92.0922 67.9096C92.0922 67.6237 91.9766 67.3502 91.7712 67.1507C91.5659 66.9519 91.2891 66.8447 91.0032 66.8531C86.8491 66.8524 82.9161 64.9824 80.2929 61.7609C77.6704 58.5393 76.6361 54.3092 77.4767 50.241C78.3182 46.1728 80.9447 42.699 84.6301 40.7816C88.3149 38.8648 92.6671 38.7075 96.4813 40.3534C100.296 41.9999 103.166 45.2748 104.299 49.2715C105.431 53.2682 104.705 57.5627 102.321 60.9649C101.85 61.6387 100.995 61.9285 100.21 61.6809C99.4261 61.4334 98.8927 60.705 98.894 59.8818V53.0358C98.8972 50.5614 97.7413 48.2288 95.7705 46.7322C93.8004 45.2365 91.2422 44.7491 88.8602 45.4171C86.4775 46.0844 84.5451 47.8297 83.6392 50.1319C82.7328 52.4348 82.9576 55.0287 84.2461 57.1404C85.5346 59.2528 87.7379 60.6401 90.2 60.8876C92.662 61.1358 95.0973 60.2164 96.7815 58.4035V59.8791C96.7815 61.0195 97.2688 62.1059 98.1207 62.8641C98.9725 63.6224 100.108 63.9811 101.241 63.8492C102.373 63.7179 103.396 63.1084 104.051 62.1748C106.798 58.2521 107.634 53.3021 106.327 48.6952C105.021 44.0884 101.711 40.3137 97.3144 38.4171C92.918 36.5198 87.9011 36.7023 83.6529 38.9129C79.4053 41.1234 76.3781 45.1279 75.4091 49.8174C74.4403 54.5075 75.6327 59.3835 78.6566 63.0969C81.6807 66.8096 86.2142 68.9649 91.003 68.9656L91.0032 68.9662ZM128.394 53.7861L123.878 57.9771V49.5938L128.394 53.7868V53.7861ZM55.9566 106.024C55.4939 106.024 55.0384 105.911 54.6304 105.694L80.5232 81.6537L87.635 88.2567C88.5531 89.1014 89.7552 89.5705 91.0034 89.5705C92.2516 89.5705 93.4536 89.1014 94.3718 88.2567L101.484 81.6537L127.376 105.694C126.968 105.911 126.513 106.024 126.051 106.024H55.9566ZM58.1293 57.9779L53.6146 53.7869L58.1293 49.5939V57.9779ZM53.2638 104.08C53.1676 103.793 53.1183 103.491 53.1176 103.188V56.2108L78.9705 80.2124L53.2638 104.08ZM63.835 28.8863C62.8824 28.8876 61.9695 29.2671 61.2956 29.9403C60.6218 30.6141 60.243 31.5277 60.2424 32.4803V59.9401L89.0728 86.7079C89.5952 87.1998 90.2859 87.474 91.0039 87.474C91.7218 87.474 92.4126 87.1998 92.9349 86.7079L121.765 59.9401V32.4803C121.765 31.5277 121.386 30.6141 120.712 29.9403C120.038 29.2671 119.125 28.8876 118.173 28.8863H63.835ZM89.0758 20.8655C89.5982 20.3723 90.2889 20.0974 91.0069 20.0974C91.7249 20.0974 92.4162 20.3723 92.9379 20.8655L99.3032 26.7751H82.7072L89.0718 20.8655H89.0758ZM128.742 104.08L103.035 80.2131L128.886 56.2099V103.187C128.886 103.49 128.836 103.791 128.74 104.079L128.742 104.08ZM118.171 26.7739H102.404L94.3706 19.3145C93.4525 18.4691 92.2504 18 91.0022 18C89.754 18 88.552 18.4691 87.6338 19.3145L79.6019 26.7739H63.8339C62.3199 26.7739 60.8676 27.3756 59.7967 28.4465C58.7259 29.5167 58.1248 30.9689 58.1248 32.4836V46.7117L51.3372 53.0119C51.1221 53.2121 50.9994 53.4928 51 53.7871V103.187C51 104.501 51.5224 105.762 52.4516 106.691C53.3808 107.62 54.6407 108.142 55.9551 108.143H126.05C127.363 108.141 128.621 107.619 129.548 106.691C130.476 105.763 130.998 104.504 131 103.193V53.7873C131 53.493 130.878 53.2123 130.662 53.0121L123.876 46.7119L123.877 32.4805C123.876 30.9671 123.274 29.5163 122.204 28.4467C121.134 27.3765 119.684 26.7748 118.17 26.7741L118.171 26.7739Z" fill="#2C302E"/>
<path fill-rule="evenodd" clip-rule="evenodd" d="M91.0032 58.8155C89.4704 58.8155 88.0006 58.2066 86.9168 57.1228C85.833 56.0389 85.2241 54.5697 85.2241 53.0371C85.2235 51.5043 85.8323 50.0344 86.9155 48.9507C87.9987 47.8662 89.4685 47.2573 91.0012 47.2567C92.534 47.256 94.0038 47.8642 95.0882 48.9474C96.172 50.0305 96.7816 51.5004 96.7823 53.0331V53.0422C96.779 54.573 96.1689 56.0402 95.0857 57.1227C94.0026 58.2046 92.534 58.8135 91.0032 58.8155ZM91.0032 68.9662V68.9655C91.2891 68.9746 91.5659 68.8674 91.7712 68.6679C91.9766 68.4691 92.0922 68.1955 92.0922 67.9096C92.0922 67.6237 91.9766 67.3502 91.7712 67.1507C91.5659 66.9519 91.2891 66.8447 91.0032 66.8531C86.8491 66.8524 82.9161 64.9824 80.2929 61.7609C77.6704 58.5393 76.6361 54.3092 77.4767 50.241C78.3182 46.1728 80.9447 42.699 84.6301 40.7816C88.3149 38.8648 92.6671 38.7075 96.4813 40.3534C100.296 41.9999 103.166 45.2748 104.299 49.2715C105.431 53.2682 104.705 57.5627 102.321 60.9649C101.85 61.6387 100.995 61.9285 100.21 61.6809C99.4261 61.4334 98.8927 60.705 98.894 59.8818V53.0358C98.8972 50.5614 97.7413 48.2288 95.7705 46.7322C93.8004 45.2365 91.2422 44.7491 88.8602 45.4171C86.4775 46.0844 84.5451 47.8297 83.6392 50.1319C82.7328 52.4348 82.9576 55.0287 84.2461 57.1404C85.5346 59.2528 87.7379 60.6401 90.2 60.8876C92.662 61.1358 95.0973 60.2164 96.7815 58.4035V59.8791C96.7815 61.0195 97.2688 62.1059 98.1207 62.8641C98.9725 63.6224 100.108 63.9811 101.241 63.8492C102.373 63.7179 103.396 63.1084 104.051 62.1748C106.798 58.2521 107.634 53.3021 106.327 48.6952C105.021 44.0884 101.711 40.3137 97.3144 38.4171C92.918 36.5198 87.9011 36.7023 83.6529 38.9129C79.4053 41.1234 76.3781 45.1279 75.4091 49.8174C74.4403 54.5075 75.6327 59.3835 78.6566 63.0969C81.6807 66.8096 86.2142 68.9649 91.003 68.9656L91.0032 68.9662ZM128.394 53.7861L123.878 57.9771V49.5938L128.394 53.7868V53.7861ZM55.9566 106.024C55.4939 106.024 55.0384 105.911 54.6304 105.694L80.5232 81.6537L87.635 88.2567C88.5531 89.1014 89.7552 89.5705 91.0034 89.5705C92.2516 89.5705 93.4536 89.1014 94.3718 88.2567L101.484 81.6537L127.376 105.694C126.968 105.911 126.513 106.024 126.051 106.024H55.9566ZM58.1293 57.9779L53.6146 53.7869L58.1293 49.5939V57.9779ZM53.2638 104.08C53.1676 103.793 53.1183 103.491 53.1176 103.188V56.2108L78.9705 80.2124L53.2638 104.08ZM63.835 28.8863C62.8824 28.8876 61.9695 29.2671 61.2956 29.9403C60.6218 30.6141 60.243 31.5277 60.2424 32.4803V59.9401L89.0728 86.7079C89.5952 87.1998 90.2859 87.474 91.0039 87.474C91.7218 87.474 92.4126 87.1998 92.9349 86.7079L121.765 59.9401V32.4803C121.765 31.5277 121.386 30.6141 120.712 29.9403C120.038 29.2671 119.125 28.8876 118.173 28.8863H63.835ZM89.0758 20.8655C89.5982 20.3723 90.2889 20.0974 91.0069 20.0974C91.7249 20.0974 92.4162 20.3723 92.9379 20.8655L99.3032 26.7751H82.7072L89.0718 20.8655H89.0758ZM128.742 104.08L103.035 80.2131L128.886 56.2099V103.187C128.886 103.49 128.836 103.791 128.74 104.079L128.742 104.08ZM118.171 26.7739H102.404L94.3706 19.3145C93.4525 18.4691 92.2504 18 91.0022 18C89.754 18 88.552 18.4691 87.6338 19.3145L79.6019 26.7739H63.8339C62.3199 26.7739 60.8676 27.3756 59.7967 28.4465C58.7259 29.5167 58.1248 30.9689 58.1248 32.4836V46.7117L51.3372 53.0119C51.1221 53.2121 50.9994 53.4928 51 53.7871V103.187C51 104.501 51.5224 105.762 52.4516 106.691C53.3808 107.62 54.6407 108.142 55.9551 108.143H126.05C127.363 108.141 128.621 107.619 129.548 106.691C130.476 105.763 130.998 104.504 131 103.193V53.7873C131 53.493 130.878 53.2123 130.662 53.0121L123.876 46.7119L123.877 32.4805C123.876 30.9671 123.274 29.5163 122.204 28.4467C121.134 27.3765 119.684 26.7748 118.17 26.7741L118.171 26.7739Z" stroke="#2C302E" mask="url(#path-2-outside-1_1290_27)"/>
</svg>
