<svg width="8" height="14" viewBox="0 0 8 14" fill="none" xmlns="http://www.w3.org/2000/svg">
<path d="M7.99924 6.96969C7.99349 6.73063 7.89598 6.50216 7.72572 6.3286L1.72391 0.294874C1.47516 0.046892 1.1085 -0.0546257 0.761339 0.0285407C0.414207 0.111875 0.139276 0.367097 0.0396919 0.698759C-0.0599136 1.03024 0.0309706 1.38781 0.278327 1.63731L5.61566 7L0.278327 12.3627C0.0309711 12.6122 -0.0599098 12.9698 0.0396919 13.3012C0.139298 13.6329 0.414212 13.8881 0.761339 13.9715C1.10847 14.0546 1.47513 13.9531 1.72391 13.7051L7.72572 7.6714C7.91115 7.48267 8.00971 7.22981 7.99924 6.97006V6.96969Z" fill="currentColor"/>
</svg>
