<svg width="37" height="40" viewBox="0 0 37 40" fill="none" xmlns="http://www.w3.org/2000/svg">
<path d="M10.7447 21.8003L3.26834 2.72451H1.40698C1.40698 2.72451 0.440728 2.61845 0.111976 1.92799C-0.243772 1.18464 0.288582 0.18115 1.13791 0.0246167C1.25607 0.00273545 1.2872 0.0054709 1.40695 0H4.25578C4.29993 0.00121563 4.34408 0.00395051 4.38823 0.00547002C4.50481 0.0218812 4.53467 0.0218813 4.64869 0.0531833C5.07432 0.170187 5.41133 0.487463 5.58917 0.883777L13.7872 21.8003H31.5308L33.9044 8.17442H12.8002L12.6649 8.16895C12.5454 8.15254 12.5156 8.15254 12.3987 8.12002C11.3413 7.8231 11.0313 6.15253 12.1484 5.60124C12.3475 5.50308 12.5712 5.46114 12.8002 5.4502H35.5851C36.4205 5.48819 37.092 6.20024 36.9897 7.03631L34.1424 23.3868C33.9988 24.0253 33.421 24.4951 32.7379 24.5249C32.7379 24.5249 10.8888 24.5194 9.93418 24.5249C8.85839 24.5453 8.09575 25.9763 8.90824 26.8149C9.17441 27.0884 9.55843 27.2479 9.95703 27.2507H21.345C22.445 27.2835 23.2076 28.7048 22.3824 29.5461C22.1576 29.7749 21.8488 29.926 21.523 29.964C21.4448 29.9734 21.4248 29.9734 21.3451 29.9749H16.823L12.7811 29.9748C12.7811 29.9748 9.71207 30.0896 8.89426 29.8294C7.20004 29.2902 5.77636 27.8306 5.68553 26.0907C5.57309 23.9095 7.53258 21.8156 9.94882 21.8007H10.7458L10.7447 21.8003Z" fill="#2C302E"/>
<circle cx="13.5" cy="35.5" r="3.4" stroke="#2C302E" stroke-width="2.2"/>
<circle cx="27.5" cy="35.5" r="3.4" stroke="#2C302E" stroke-width="2.2"/>
</svg>
