<svg width="20" height="20" viewBox="0 0 20 20" fill="none" xmlns="http://www.w3.org/2000/svg">
<path d="M2.51668 1.06591C2.11565 0.664881 1.46547 0.66488 1.06444 1.0659L18.9494 18.9508C19.3504 18.5498 19.3504 17.8996 18.9494 17.4986L2.51668 1.06591ZM1.06444 1.06591C0.663415 1.46693 0.663415 2.11712 1.06444 2.51814C1.06444 2.51814 1.06444 2.51814 1.06444 2.51814L17.4971 18.9508C17.4971 18.9508 17.4971 18.9508 17.4971 18.9508L1.06444 1.06591Z" fill="currentColor" stroke="currentColor" stroke-width="0.5"/>
<path d="M2.32622 18.7589L2.503 18.9357C2.10198 19.3367 1.45179 19.3367 1.05077 18.9357C0.649746 18.5347 0.649743 17.8845 1.05076 17.4835L1.05077 17.4835M2.32622 18.7589L1.05077 17.4835M2.32622 18.7589L2.503 18.9357L18.9357 2.503L18.7589 2.32622L18.9357 2.503C19.3367 2.10198 19.3367 1.45179 18.9357 1.05077C18.5347 0.649746 17.8845 0.649743 17.4835 1.05076C17.4835 1.05077 17.4835 1.05077 17.4835 1.05077M2.32622 18.7589L17.4835 1.05077M1.05077 17.4835L17.4835 1.05077M1.05077 17.4835L17.4835 1.05077" fill="currentColor" stroke="currentColor" stroke-width="0.5"/>
</svg>
