<svg width="42" height="38" viewBox="0 0 42 38" fill="none" xmlns="http://www.w3.org/2000/svg">
<mask id="path-1-outside-1_798_25" maskUnits="userSpaceOnUse" x="0" y="0" width="42" height="38" fill="black">
<rect fill="white" width="42" height="38"/>
<path fill-rule="evenodd" clip-rule="evenodd" d="M33.1396 1.42752C36.4094 2.34441 40.0631 5.42196 40.8516 10.2311C41.6058 14.834 40.0991 24.4134 21.5285 36.8394C21.3684 36.9466 21.1834 37 20.9983 37C20.813 37 20.628 36.9463 20.4682 36.8394C16.1253 33.9329 12.7157 31.1823 10.0502 28.6147C9.67237 27.2987 10.0521 26.9988 11.4408 27.3812C13.9007 29.7306 17.0309 32.2595 20.9983 34.95C38.207 23.2827 39.6675 14.653 38.9914 10.5261C38.3343 6.52107 35.3189 3.96518 32.6215 3.20897C26.1418 1.38355 21.9427 7.06986 21.7674 7.31307C21.5906 7.5577 21.3039 7.70357 20.9991 7.70357H20.9967C20.6909 7.70299 20.404 7.55713 20.2281 7.31133C20.0777 7.10311 16.9393 2.84854 11.9258 2.84854C11.124 2.84854 10.2746 2.95714 9.38146 3.20872C6.68199 3.96485 3.6654 6.52023 3.00809 10.5246C2.60617 12.9757 2.9578 17.015 6.91505 22.3364C7.10115 23.5641 6.50059 23.9787 5.37315 23.3556C1.05311 17.5067 0.697357 12.9802 1.14869 10.2298C1.93779 5.421 5.5926 2.34367 8.86447 1.42693C14.895 -0.269087 19.2994 3.5158 20.999 5.33722C22.7005 3.5161 27.1081 -0.270566 33.1396 1.42752Z"/>
</mask>
<path fill-rule="evenodd" clip-rule="evenodd" d="M33.1396 1.42752C36.4094 2.34441 40.0631 5.42196 40.8516 10.2311C41.6058 14.834 40.0991 24.4134 21.5285 36.8394C21.3684 36.9466 21.1834 37 20.9983 37C20.813 37 20.628 36.9463 20.4682 36.8394C16.1253 33.9329 12.7157 31.1823 10.0502 28.6147C9.67237 27.2987 10.0521 26.9988 11.4408 27.3812C13.9007 29.7306 17.0309 32.2595 20.9983 34.95C38.207 23.2827 39.6675 14.653 38.9914 10.5261C38.3343 6.52107 35.3189 3.96518 32.6215 3.20897C26.1418 1.38355 21.9427 7.06986 21.7674 7.31307C21.5906 7.5577 21.3039 7.70357 20.9991 7.70357H20.9967C20.6909 7.70299 20.404 7.55713 20.2281 7.31133C20.0777 7.10311 16.9393 2.84854 11.9258 2.84854C11.124 2.84854 10.2746 2.95714 9.38146 3.20872C6.68199 3.96485 3.6654 6.52023 3.00809 10.5246C2.60617 12.9757 2.9578 17.015 6.91505 22.3364C7.10115 23.5641 6.50059 23.9787 5.37315 23.3556C1.05311 17.5067 0.697357 12.9802 1.14869 10.2298C1.93779 5.421 5.5926 2.34367 8.86447 1.42693C14.895 -0.269087 19.2994 3.5158 20.999 5.33722C22.7005 3.5161 27.1081 -0.270566 33.1396 1.42752Z" fill="currentColor"/>
<path d="M40.8516 10.2311L41.3451 10.1503L41.3451 10.1502L40.8516 10.2311ZM33.1396 1.42752L33.0041 1.90881L33.0046 1.90895L33.1396 1.42752ZM21.5285 36.8394L21.2504 36.4239L21.2503 36.4239L21.5285 36.8394ZM20.4682 36.8394L20.1901 37.2549L20.1902 37.255L20.4682 36.8394ZM10.0502 28.6147L9.56958 28.7526L9.60662 28.8817L9.7033 28.9748L10.0502 28.6147ZM11.4408 27.3812L11.7861 27.0196L11.695 26.9326L11.5735 26.8992L11.4408 27.3812ZM20.9983 34.95L20.7176 35.3638L20.9982 35.5541L21.2789 35.3639L20.9983 34.95ZM38.9914 10.5261L39.4848 10.4452L39.4848 10.4451L38.9914 10.5261ZM32.6215 3.20897L32.4859 3.69024L32.4865 3.69041L32.6215 3.20897ZM21.7674 7.31307L22.1726 7.60597L22.173 7.60547L21.7674 7.31307ZM20.9967 7.70357L20.9958 8.20357H20.9967V7.70357ZM20.2281 7.31133L20.6347 7.02032L20.6334 7.01859L20.2281 7.31133ZM9.38146 3.20872L9.51632 3.69019L9.51702 3.68999L9.38146 3.20872ZM3.00809 10.5246L2.51469 10.4437L2.51468 10.4437L3.00809 10.5246ZM6.91505 22.3364L7.4094 22.2614L7.39071 22.1381L7.31627 22.038L6.91505 22.3364ZM5.37315 23.3556L4.97096 23.6527L5.03579 23.7405L5.1313 23.7932L5.37315 23.3556ZM1.14869 10.2298L0.655293 10.1488L0.655293 10.1488L1.14869 10.2298ZM8.86447 1.42693L8.99937 1.90839L8.99984 1.90826L8.86447 1.42693ZM20.999 5.33722L20.6335 5.67834L20.9988 6.06986L21.3644 5.67857L20.999 5.33722ZM41.3451 10.1502C40.5209 5.12396 36.7056 1.90818 33.2746 0.94609L33.0046 1.90895C36.1132 2.78064 39.6053 5.71997 40.3582 10.312L41.3451 10.1502ZM21.8065 37.255C40.4593 24.774 42.1441 15.027 41.3451 10.1503L40.3582 10.3119C41.0675 14.6411 39.739 24.0528 21.2504 36.4239L21.8065 37.255ZM20.9983 37.5C21.2795 37.5 21.5619 37.4188 21.8066 37.2549L21.2503 36.4239C21.175 36.4744 21.0873 36.5 20.9983 36.5V37.5ZM20.1902 37.255C20.4343 37.4183 20.7166 37.5 20.9983 37.5V36.5C20.9095 36.5 20.8216 36.4743 20.7462 36.4238L20.1902 37.255ZM9.7033 28.9748C12.3935 31.5661 15.8269 34.3349 20.1901 37.2549L20.7463 36.4239C16.4237 33.531 13.038 30.7985 10.397 28.2546L9.7033 28.9748ZM10.5308 28.4767C10.4413 28.1652 10.41 27.9561 10.4127 27.823C10.4153 27.6945 10.4465 27.7077 10.4104 27.739C10.3854 27.7606 10.4029 27.7235 10.5732 27.7274C10.7376 27.7311 10.9758 27.7718 11.308 27.8633L11.5735 26.8992C11.2115 26.7994 10.8814 26.7341 10.5958 26.7277C10.3161 26.7213 10.0019 26.7698 9.75567 26.9831C9.49827 27.206 9.41863 27.5171 9.41288 27.8029C9.40722 28.0843 9.47009 28.4061 9.56958 28.7526L10.5308 28.4767ZM21.2789 34.5362C17.3305 31.8585 14.2227 29.3467 11.7861 27.0196L11.0955 27.7428C13.5787 30.1144 16.7313 32.6604 20.7176 35.3638L21.2789 34.5362ZM38.4979 10.6069C39.1281 14.4533 37.8553 22.917 20.7177 34.5362L21.2789 35.3639C38.5587 23.6483 40.2068 14.8526 39.4848 10.4452L38.4979 10.6069ZM32.4865 3.69041C35.0201 4.4007 37.8761 6.81672 38.498 10.607L39.4848 10.4451C38.7925 6.22542 35.6176 3.52965 32.7565 2.72753L32.4865 3.69041ZM22.173 7.60547C22.2431 7.50818 23.2943 6.08074 25.1029 4.90443C26.9031 3.73363 29.4242 2.82772 32.4859 3.69024L32.7571 2.7277C29.3391 1.76481 26.5209 2.78934 24.5577 4.06614C22.603 5.33743 21.467 6.87475 21.3618 7.02066L22.173 7.60547ZM20.9991 8.20357C21.4628 8.20357 21.9009 7.98195 22.1726 7.60597L21.3622 7.02017C21.2803 7.13346 21.145 7.20357 20.9991 7.20357V8.20357ZM20.9967 8.20357H20.9991V7.20357H20.9967V8.20357ZM19.8215 7.60233C20.093 7.98165 20.5323 8.2027 20.9958 8.20357L20.9977 7.20357C20.8496 7.20329 20.715 7.13261 20.6347 7.02032L19.8215 7.60233ZM11.9258 3.34854C14.2868 3.34854 16.2205 4.35028 17.5976 5.39955C18.9745 6.44875 19.7637 7.52235 19.8227 7.60407L20.6334 7.01859C20.542 6.89209 19.6869 5.73429 18.2037 4.60415C16.7206 3.47408 14.5783 2.34854 11.9258 2.34854V3.34854ZM9.51702 3.68999C10.3661 3.45085 11.1698 3.34854 11.9258 3.34854V2.34854C11.0782 2.34854 10.1832 2.46344 9.2459 2.72745L9.51702 3.68999ZM3.50149 10.6056C4.12353 6.81608 6.98051 4.40048 9.51632 3.69019L9.2466 2.72725C6.38347 3.52923 3.20727 6.22438 2.51469 10.4437L3.50149 10.6056ZM7.31627 22.038C3.4292 16.811 3.12424 12.9062 3.5015 10.6056L2.51468 10.4437C2.08811 13.0452 2.48641 17.219 6.51383 22.6347L7.31627 22.038ZM6.4207 22.4113C6.50935 22.9962 6.36322 23.1214 6.35858 23.1245C6.35427 23.1274 6.31278 23.1545 6.18497 23.1367C6.05376 23.1184 5.86451 23.0559 5.61501 22.918L5.1313 23.7932C5.71742 24.1172 6.392 24.3055 6.91477 23.9556C7.44575 23.6002 7.50685 22.9044 7.4094 22.2614L6.4207 22.4113ZM0.655293 10.1488C0.180142 13.0444 0.578262 17.7054 4.97096 23.6527L5.77534 23.0586C1.52797 17.308 1.21457 12.9161 1.6421 10.3107L0.655293 10.1488ZM8.72957 0.945471C5.29655 1.90736 1.48003 5.12286 0.655293 10.1488L1.6421 10.3107C2.39555 5.71914 5.88864 2.77997 8.99937 1.90839L8.72957 0.945471ZM21.3646 4.9961C19.6351 3.14266 15.045 -0.830684 8.7291 0.945602L8.99984 1.90826C14.7449 0.292511 18.9637 3.88894 20.6335 5.67834L21.3646 4.9961ZM33.2751 0.946231C26.9581 -0.832228 22.3649 3.143 20.6337 4.99587L21.3644 5.67857C23.0362 3.8892 27.2581 0.291096 33.0041 1.90881L33.2751 0.946231Z" fill="currentColor" mask="url(#path-1-outside-1_798_25)"/>
</svg>
