<svg width="41" height="37" viewBox="0 0 41 37" fill="none" xmlns="http://www.w3.org/2000/svg">
<path d="M20.5 37C20.1852 37 19.8704 36.9054 19.6068 36.7163C18.8073 36.1394 0 22.4686 0 10.963C0 4.91826 5.25532 0 11.7143 0C18.1732 0 23.4286 4.91826 23.4286 10.963C23.4286 11.7194 22.774 12.3333 21.9643 12.3333C21.156 12.3333 20.5 11.7194 20.5 10.963C20.5 6.42841 16.5596 2.74074 11.7143 2.74074C6.86896 2.74074 2.92857 6.42841 2.92857 10.963C2.92857 19.8251 16.8056 31.043 20.5 33.8742C24.1929 31.043 38.0714 19.8156 38.0714 10.963C38.0714 6.42841 34.131 2.74074 29.2857 2.74074C27.9752 2.74074 26.7144 3.00385 25.5386 3.52185C24.8065 3.84526 23.9323 3.55063 23.5896 2.86681C23.2455 2.18163 23.5589 1.36626 24.2896 1.04285C25.8593 0.350815 27.5403 0 29.2857 0C35.7447 0 41 4.91826 41 10.963C41 22.4686 22.1927 36.1394 21.3932 36.7163C21.1296 36.9054 20.8148 37 20.5 37Z" fill="#2C302E"/>
</svg>
