<svg width="20" height="25" viewBox="0 0 20 25" fill="none" xmlns="http://www.w3.org/2000/svg">
<path d="M10.0421 25C9.90298 25 9.76631 24.9524 9.6577 24.8667C8.32754 23.8131 7.0706 22.6584 5.92165 21.4346C4.75502 20.1912 3.72506 18.9037 2.86167 17.6079C1.95924 16.2491 1.25816 14.9139 0.778571 13.639C0.264202 12.2723 0.00244066 10.967 0 9.75929C0 8.44206 0.264812 7.16411 0.786503 5.96057C1.03728 5.38261 1.34725 4.82488 1.70907 4.30287C2.06663 3.78622 2.47788 3.30052 2.93062 2.85886C3.38337 2.4172 3.88126 2.01602 4.41088 1.66663C4.946 1.31425 5.51772 1.01188 6.11081 0.767244C7.34395 0.258327 8.65397 0 10.0049 0C11.3533 0 12.6616 0.258327 13.8935 0.767244C14.4859 1.01188 15.057 1.31425 15.5916 1.66722C16.1206 2.01602 16.6185 2.4172 17.0706 2.85886C17.5233 3.30052 17.934 3.78622 18.2915 4.30287C18.6528 4.82488 18.9633 5.38261 19.2135 5.96057C19.7352 7.16411 20 8.44206 20 9.75929C20 10.0914 19.9744 10.4426 19.9231 10.8045C19.8816 11.0974 19.6223 11.3182 19.3197 11.3182C19.2916 11.3182 19.2635 11.3164 19.2354 11.3128C18.9023 11.2682 18.6686 10.967 18.7143 10.642C18.7577 10.3349 18.7796 10.0379 18.7796 9.75929C18.7796 7.47185 17.8662 5.32011 16.2078 3.69991C14.5488 2.08209 12.3461 1.19045 10.0049 1.19045C7.65879 1.19045 5.45305 2.08209 3.7934 3.70051C2.13436 5.31952 1.22094 7.47125 1.22033 9.75929C1.21606 11.8206 2.16243 14.3776 3.88553 16.9591C5.43657 19.29 7.62524 21.6626 10.0494 23.6393C12.3503 21.8019 14.9228 18.7834 16.6026 15.9478C16.6026 15.9472 16.6026 15.9472 16.6032 15.9472C16.7118 15.7639 16.9144 15.6496 17.1316 15.6496C17.2384 15.6496 17.3439 15.6775 17.4367 15.7299C17.6252 15.8365 17.7418 16.0347 17.7412 16.2478C17.7412 16.3507 17.7124 16.4531 17.6587 16.5436C16.7118 18.1365 15.5232 19.7649 14.2211 21.2536C12.9556 22.7001 11.6395 23.953 10.4142 24.8756C10.3063 24.9571 10.1776 25 10.0421 25ZM18.4868 14.1752V14.1722V14.1752C18.4081 14.1752 18.3306 14.1603 18.2574 14.1312C18.106 14.071 17.9883 13.9574 17.9248 13.811C17.8614 13.6645 17.8608 13.5026 17.9218 13.3556C17.9218 13.355 17.9224 13.355 17.9224 13.355C18.0163 13.13 18.2378 12.9842 18.4874 12.9842C18.5661 12.9842 18.6437 12.9991 18.7168 13.0283C19.0286 13.1521 19.1787 13.5003 19.0524 13.8038C18.9584 14.0294 18.7363 14.1752 18.4868 14.1752Z" fill="#D8315B"/>
<path d="M9.99988 14.6228C9.30063 14.6228 8.62274 14.4888 7.98451 14.2257C7.36763 13.971 6.81421 13.6067 6.33828 13.143C5.86296 12.6793 5.48954 12.1389 5.229 11.5377C4.9587 10.9151 4.82202 10.2532 4.82202 9.57109C4.82202 8.88956 4.9587 8.22767 5.229 7.60507C5.48954 7.00329 5.86296 6.46343 6.33828 5.99975C6.81421 5.53547 7.36763 5.17119 7.98451 4.91703C8.62274 4.65394 9.30063 4.52002 9.99988 4.52002C10.6991 4.52002 11.377 4.65394 12.0153 4.91703C12.6321 5.17119 13.1856 5.53547 13.6614 5.99975C14.1367 6.46343 14.5102 7.00329 14.7707 7.60507C15.0411 8.22767 15.1777 8.88956 15.1777 9.57109C15.1777 10.2532 15.0411 10.9151 14.7707 11.5377C14.5102 12.1389 14.1367 12.6793 13.6614 13.143C13.1861 13.6067 12.6321 13.971 12.0153 14.2257C11.377 14.4888 10.6991 14.6228 9.99988 14.6228ZM9.99988 5.71047C8.94369 5.71047 7.94973 6.11224 7.20106 6.84139C6.45421 7.57114 6.04235 8.54076 6.04235 9.57109C6.04235 10.602 6.45421 11.571 7.20106 12.3014C7.94973 13.0305 8.94369 13.4317 9.99988 13.4323C11.0561 13.4317 12.05 13.0305 12.7987 12.3014C13.5455 11.5716 13.9574 10.602 13.958 9.57109C13.9574 8.54076 13.5455 7.57114 12.7987 6.84139C12.05 6.11224 11.0566 5.71047 9.99988 5.71047Z" fill="#D8315B"/>
</svg>
