<svg width="34" height="23" viewBox="0 0 34 23" fill="none" xmlns="http://www.w3.org/2000/svg">
<path d="M31.6818 0H2.31818C1.00455 0 0 0.996667 0 2.3V20.7C0 22.0033 1.00455 23 2.31818 23H31.6818C32.9955 23 34 22.0033 34 20.7V2.3C34 0.996667 32.9955 0 31.6818 0ZM32.4545 20.7767L20.7091 13.0333L32.4545 2.45333V20.7767C32.4545 20.7 32.4545 20.7767 32.4545 20.7767ZM1.54545 20.7V2.53L13.2136 13.0333L1.54545 20.7C1.54545 20.7767 1.54545 20.7 1.54545 20.7ZM17.4636 13.8C17.1545 14.1067 16.6909 14.1067 16.3818 13.8L2.70455 1.53333H31.1409L17.4636 13.8ZM14.45 14.1067L15.4545 15.0267C15.9182 15.41 16.4591 15.64 17 15.64C17.5409 15.64 18.0818 15.41 18.5455 15.0267L19.55 14.1067L30.6773 21.4667H3.32273L14.45 14.1067Z" fill="#D8315B"/>
</svg>
