<svg width="41" height="40" viewBox="0 0 41 40" fill="none" xmlns="http://www.w3.org/2000/svg">
<path fill-rule="evenodd" clip-rule="evenodd" d="M39.0429 7.273C39.3507 7.3948 39.6584 7.51661 39.9661 7.63945C40.0834 7.66771 40.2007 7.71465 40.3179 7.78354C40.4998 7.8889 40.6514 8.03523 40.7643 8.20686C40.7832 8.23319 40.8012 8.25994 40.8185 8.28701C40.9657 8.51819 41.0215 8.83854 40.9925 9.12436C41.0015 9.65279 40.9978 10.1828 40.9941 10.7135C40.9921 11.0007 40.9901 11.2882 40.9901 11.5757V16.8602V22.9702V28.0416V30.1554C40.9901 30.4284 40.9107 30.6764 40.7751 30.8837C40.6566 31.0758 40.494 31.2528 40.3179 31.3302C40.3134 31.3325 40.3078 31.3347 40.3022 31.337C40.2965 31.3393 40.2909 31.3415 40.2864 31.3438C39.7628 31.6008 39.2242 31.8317 38.6869 32.0622L38.6867 32.0623C38.4463 32.1654 38.2062 32.2683 37.9678 32.3735C36.7412 32.9136 35.5172 33.4563 34.2919 33.9997L34.2916 33.9998L34.2914 33.9999L34.2911 34L34.2909 34.0001L33.1817 34.4918C32.2626 34.9006 31.3424 35.3082 30.4222 35.7158C29.5042 36.1224 28.5862 36.5291 27.6694 36.9368C26.1402 37.6126 24.6155 38.2885 23.0908 38.9644L21.1841 39.8075C21.0782 39.8706 20.9665 39.9193 20.8575 39.9491C20.7604 39.9758 20.6671 39.99 20.5763 39.9938C20.5514 39.9961 20.5263 39.9979 20.5011 39.999C20.255 40.0097 20.0211 39.9396 19.8192 39.8147L19.8154 39.813C19.813 39.8118 19.8102 39.8105 19.8072 39.8093L19.7996 39.8062L19.7996 39.8062C19.794 39.8039 19.7883 39.8016 19.7838 39.7994C19.3987 39.6273 19.0125 39.4563 18.6262 39.2853L18.6259 39.2851L18.625 39.2847L18.6241 39.2843L18.6226 39.2837C18.2365 39.1127 17.8503 38.9418 17.4653 38.7697C16.2411 38.2307 15.0196 37.689 13.7967 37.1468L13.7899 37.1438L12.6792 36.6514C11.7618 36.2434 10.8433 35.8365 9.92481 35.4296L9.9241 35.4293L9.92267 35.4287L9.92124 35.4281L9.91981 35.4274C9.0018 35.0208 8.08378 34.6142 7.16688 34.2064C5.63768 33.5306 4.11294 32.8547 2.58828 32.1788L0.680143 31.3351C0.256119 31.1491 0.00801941 30.5957 0.00801941 30.1602V30.124C-0.0040061 29.5526 -2.4056e-06 28.9792 0.0040061 28.4052C0.00601215 28.1179 0.00801941 27.8304 0.00801941 27.543V25.5057C0.52103 23.9764 2.2176 23.9839 2.71908 25.5281V28.0465V29.2713C3.0033 29.3964 3.28635 29.5257 3.56915 29.6549L3.56926 29.6549L3.56939 29.655L3.56956 29.6551L3.56966 29.6551C3.84545 29.7811 4.12099 29.9069 4.39712 30.0287C5.62357 30.5687 6.84739 31.1114 8.07262 31.6547L9.18317 32.147C10.1025 32.5559 11.0229 32.9636 11.9434 33.3713C12.8611 33.7778 13.7789 34.1844 14.6955 34.592C16.1805 35.2483 17.6613 35.9047 19.1419 36.561C19.143 36.3793 19.1438 36.1977 19.1438 36.016V30.7315V24.6214V19.5501V18.3283C18.9198 18.2297 18.6965 18.1285 18.4735 18.0268L18.4233 18.0044L18.4222 18.0039C18.1183 17.8687 17.8144 17.7334 17.5105 17.5996C15.9274 16.8961 14.3488 16.1971 12.7702 15.4981L12.7425 15.4859C10.8974 14.6649 9.0525 13.8483 7.20754 13.0319L2.72141 11.0417C2.72006 11.2213 2.71908 11.4009 2.71908 11.5805V16.8651V18.9291C2.2176 20.4733 0.52103 20.4807 0.00801941 18.9514V16.1484V11.077V8.96325C0.00801941 8.48244 0.269646 8.02883 0.680143 7.78842C0.808588 7.71296 0.937036 7.66383 1.06549 7.63675C1.09113 7.62705 1.11577 7.61771 1.14041 7.6067C1.47928 7.47209 1.81879 7.33685 2.15868 7.20145L2.15875 7.20142L2.15881 7.2014L2.15915 7.20126C2.72404 6.97623 3.29001 6.75078 3.85599 6.52708C5.51601 5.86477 7.17149 5.20707 8.83151 4.54934C9.75446 4.1822 10.6785 3.81507 11.6026 3.44794L11.6036 3.44754L11.6046 3.44713L11.6065 3.44639C12.5193 3.08374 13.4321 2.72109 14.3438 2.35843C15.0635 2.07259 15.7842 1.78677 16.505 1.50095L16.5068 1.50021L16.5095 1.49914L16.512 1.49818C17.2301 1.21338 17.9483 0.928588 18.6653 0.643788C19.0623 0.48956 19.4593 0.330803 19.8563 0.172038L19.869 0.167056C20.2104 0.033222 20.4883 -0.0756697 20.8938 0.0677091C21.4203 0.252398 21.9385 0.466335 22.4555 0.679751L22.4556 0.679795C22.7004 0.780848 22.9449 0.881784 23.1898 0.979442C23.9904 1.29641 24.7909 1.61453 25.5915 1.93266C26.3833 2.24731 27.1751 2.56196 27.9669 2.87548C28.8864 3.24171 29.807 3.60682 30.7277 3.97193L30.728 3.97206L30.7284 3.9722L30.7291 3.9725C31.6552 4.33977 32.5813 4.70703 33.5063 5.07544C35.0309 5.67878 36.5601 6.28659 38.0893 6.89442C38.4067 7.02119 38.7242 7.14683 39.0416 7.27247L39.0416 7.27249L39.0429 7.273ZM22.0601 18.2391L21.8648 18.3255C21.8649 18.6137 21.8624 18.9022 21.8598 19.1909L21.8598 19.1914C21.8573 19.4786 21.8548 19.7661 21.8548 20.0536V25.3381V31.4482V36.5195V36.5535C21.9603 36.5075 22.0655 36.4615 22.1706 36.4151C23.3967 35.8752 24.6203 35.3327 25.8453 34.7895L26.9566 34.2968C27.8759 33.888 28.7964 33.4802 29.7168 33.0725C30.6346 32.666 31.5523 32.2595 32.4689 31.8518C33.9981 31.176 35.5229 30.5001 37.0475 29.8242L38.2755 29.2813C38.2754 28.9879 38.2775 28.6942 38.2795 28.4003C38.2815 28.113 38.2836 27.8255 38.2836 27.5381V22.2536V16.1435V11.0721V11.0497L38.1183 11.123L37.4759 11.4078C36.6367 11.7806 35.7975 12.1523 34.9583 12.5239C34.133 12.8894 33.3076 13.2549 32.4823 13.6215L31.8774 13.8892V18.8651C31.8774 19.6272 31.2594 20.1942 30.5242 20.2259C29.7934 20.2577 29.1709 19.5773 29.1709 18.8651V18.1348V15.0889C28.4388 15.4136 27.7066 15.7381 26.9745 16.0619C26.2572 16.3807 25.5388 16.6984 24.8204 17.0161L24.8185 17.0169L24.8179 17.0172L24.8173 17.0174L24.8167 17.0177C24.0951 17.3368 23.3735 17.6559 22.653 17.9761C22.4546 18.0645 22.2574 18.1518 22.0601 18.2391ZM29.941 11.2554L30.5458 11.5063C31.1856 11.2228 31.8253 10.9391 32.4644 10.6548C33.6912 10.1127 34.9151 9.57043 36.1385 9.02822C34.804 8.50014 33.4694 7.96945 32.1349 7.43874L26.6135 5.24783C25.4247 4.77249 24.2331 4.29991 23.0431 3.82794L22.0485 3.4334C21.7305 3.30643 21.4126 3.18059 21.0947 3.05476C20.9017 2.97836 20.7087 2.90197 20.5157 2.82532C20.0912 3.00396 19.659 3.16912 19.2277 3.33396L19.2277 3.33398C18.9883 3.42545 18.7493 3.51683 18.5119 3.61034C17.3122 4.0841 16.1124 4.56037 14.9126 5.03728C15.5758 5.31121 16.2383 5.58566 16.9005 5.85997C17.5626 6.13423 18.2244 6.40836 18.8862 6.68171C19.8184 7.06674 20.7495 7.45179 21.6806 7.83684L21.6822 7.8375L21.6824 7.83759C22.5934 8.21434 23.5044 8.59109 24.4166 8.96784C25.1718 9.28019 25.926 9.59254 26.6802 9.90487L26.6803 9.90493L26.681 9.90521C27.449 10.2233 28.217 10.5413 28.9861 10.8594C29.3052 10.9914 29.6231 11.1234 29.941 11.2554ZM26.9521 13.0998L27.1384 13.017C26.4314 12.725 25.7251 12.4325 25.0192 12.1401L25.0172 12.1392L25.0172 12.1392C24.3551 11.865 23.6934 11.5909 23.0316 11.3175C22.1002 10.9328 21.1699 10.5481 20.2396 10.1634L20.2353 10.1616L20.235 10.1615C19.3241 9.7848 18.4132 9.40809 17.5012 9.03139C16.7457 8.71894 15.9913 8.40651 15.2369 8.09407L15.2367 8.09397C14.4687 7.77592 13.7008 7.45787 12.9317 7.13982C12.6127 7.00787 12.2948 6.87592 11.977 6.74397L11.3106 6.46753L8.19993 7.70186C7.08666 8.14698 5.97099 8.58968 4.85644 9.03172C5.93119 9.50574 7.0043 9.98158 8.0785 10.4579L9.18772 10.9496C10.1068 11.3584 11.0271 11.766 11.9473 12.1737L11.9482 12.1741L11.9491 12.1745L11.95 12.1749C12.8671 12.5811 13.7841 12.9873 14.7001 13.3946C16.2292 14.0705 17.754 14.7463 19.2787 15.4222L20.4775 15.9523C20.7987 15.8075 21.123 15.6684 21.4468 15.5295L21.4469 15.5295L21.447 15.5294C21.6874 15.4263 21.9276 15.3233 22.166 15.2182C23.3925 14.6781 24.6164 14.1354 25.8417 13.5921L25.8419 13.592L25.8422 13.5919L25.8424 13.5918L25.8426 13.5917L26.9521 13.0998Z" fill="#2C302E"/>
</svg>
