<svg width="41" height="40" viewBox="0 0 41 40" fill="none" xmlns="http://www.w3.org/2000/svg">
<path d="M21.1822 37.4632C20.5462 37.182 19.9101 36.9007 19.2741 36.6195C17.7494 35.9436 16.2247 35.2677 14.6955 34.5919C12.8595 33.7754 11.0191 32.9634 9.18317 32.1469C7.58633 31.4393 5.99395 30.7317 4.39712 30.0286C3.62575 29.6884 2.85893 29.3164 2.07854 28.9989C2.065 28.9944 2.05598 28.9898 2.04696 28.9853C2.27251 29.3754 2.49354 29.77 2.71908 30.1601V28.0464V22.975V16.8649V11.5804C2.71908 10.7185 2.74164 9.85674 2.71908 8.99942V8.96313C2.04245 9.35323 1.36129 9.74787 0.684664 10.138C1.3207 10.4192 1.95675 10.7004 2.5928 10.9817C4.11746 11.6576 5.6422 12.3334 7.1714 13.0093C9.00736 13.8258 10.8478 14.6377 12.6837 15.4542C14.2806 16.1619 15.8729 16.8695 17.4698 17.5726C18.2411 17.9128 19.008 18.2847 19.7884 18.6023C19.8019 18.6068 19.8109 18.6113 19.8199 18.6159C19.5944 18.2258 19.3734 17.8311 19.1478 17.441V19.5548V24.6262V30.7362V36.0207C19.1478 36.8826 19.1298 37.7444 19.1478 38.6017V38.638C19.1478 39.3502 19.7703 40.0306 20.5011 39.9988C21.2364 39.9671 21.8543 39.4001 21.8543 38.638V36.5243V31.4529V25.3428V20.0583C21.8543 19.1964 21.8724 18.3346 21.8543 17.4773V17.441C21.8543 17.0056 21.6062 16.4522 21.1822 16.2662C20.5462 15.985 19.9101 15.7037 19.2741 15.4225C17.7494 14.7466 16.2247 14.0707 14.6955 13.3949C12.8595 12.5784 11.0191 11.7664 9.18313 10.9499C7.5863 10.2423 5.99392 9.53471 4.39708 8.83159C3.62571 8.48685 2.84982 8.14664 2.0785 7.8019C2.06948 7.79737 2.05595 7.79283 2.04693 7.7883C1.59133 7.58418 1.13571 7.52067 0.680143 7.7883C0.269646 8.0287 0.00801941 8.48232 0.00801941 8.96313V11.0769V16.1483V22.2583V27.5428C0.00801941 28.4047 -0.0100243 29.2665 0.00801941 30.1238V30.1601C0.00801941 30.5956 0.256119 31.149 0.680143 31.335C1.31618 31.6162 1.95223 31.8974 2.58828 32.1787C4.11294 32.8545 5.63768 33.5304 7.16688 34.2063C9.00284 35.0228 10.8433 35.8347 12.6792 36.6512C14.276 37.3589 15.8684 38.0665 17.4653 38.7696C18.2366 39.1143 19.0125 39.4545 19.7838 39.7993C19.7929 39.8038 19.8064 39.8083 19.8154 39.8129C20.1582 39.9671 20.4785 40.0533 20.8575 39.9489C21.1732 39.8628 21.5115 39.6178 21.6649 39.323C21.8318 39.0054 21.913 38.6244 21.8002 38.2751C21.7055 37.9621 21.498 37.5993 21.1822 37.4632L21.1822 37.4632Z" fill="#2C302E"/>
<path d="M38.9554 28.9807C38.3194 29.2619 37.6833 29.5431 37.0473 29.8244C35.5226 30.5002 33.9979 31.1761 32.4687 31.852C30.6327 32.6685 28.7923 33.4804 26.9564 34.2969C25.3595 35.0046 23.7672 35.7121 22.1703 36.4153C21.3989 36.7555 20.6141 37.0821 19.8517 37.445C19.8427 37.4495 19.8292 37.454 19.8202 37.4586C20.4968 37.8487 21.178 38.2433 21.8546 38.6334V36.5196V31.4483V25.3382V20.0537C21.8546 19.1918 21.8771 18.33 21.8546 17.4727V17.4364C21.629 17.8265 21.408 18.2211 21.1825 18.6112C21.8185 18.33 22.4545 18.0488 23.0906 17.7675C24.6152 17.0916 26.14 16.4158 27.6692 15.7399C29.5051 14.9234 31.3456 14.1115 33.1815 13.295C34.7784 12.5873 36.3707 11.8797 37.9676 11.1766C38.7389 10.8364 39.5238 10.5098 40.2862 10.1469C40.2952 10.1424 40.3087 10.1379 40.3177 10.1333C39.6411 9.74323 38.9599 9.34859 38.2833 8.95849V11.0723V16.1436V22.2537V27.5382C38.2833 28.4001 38.2653 29.2619 38.2833 30.1192V30.1555C38.2833 30.8676 38.9058 31.5481 39.6366 31.5163C40.3718 31.4845 40.9898 30.9175 40.9898 30.1555V28.0417V22.9704V16.8603V11.5758C40.9898 10.7139 41.0079 9.8521 40.9898 8.99478V8.95849C40.9898 8.47767 40.7327 8.02403 40.3177 7.78366C39.8621 7.51603 39.4065 7.57954 38.9509 7.78366C38.3149 8.06489 37.6788 8.34613 37.0428 8.62738C35.5181 9.30325 33.9934 9.97913 32.4642 10.655C30.6282 11.4715 28.7878 12.2834 26.9518 13.0999C25.355 13.8076 23.7626 14.5152 22.1658 15.2183C21.3944 15.5585 20.605 15.876 19.8472 16.248C19.8382 16.2525 19.8247 16.257 19.8156 16.2616C19.3916 16.4475 19.1435 17.0009 19.1435 17.4364V19.5502V24.6215V30.7316V36.0161C19.1435 36.878 19.1255 37.7398 19.1435 38.5971V38.6334C19.1435 39.1142 19.4006 39.5679 19.8156 39.8082C20.2712 40.0759 20.7269 40.0123 21.1824 39.8082C21.8185 39.527 22.4545 39.2458 23.0906 38.9645C24.6152 38.2886 26.14 37.6128 27.6692 36.9369C29.5051 36.1204 31.3455 35.3085 33.1815 34.4919C34.7783 33.7843 36.3707 33.0767 37.9675 32.3736C38.7389 32.0334 39.5283 31.7159 40.2861 31.3439C40.2951 31.3394 40.3087 31.3349 40.3177 31.3303C40.6064 31.2033 40.859 30.8087 40.9402 30.5184C41.0304 30.1918 40.9898 29.7608 40.8049 29.4705C40.6199 29.1802 40.3403 28.9262 39.9974 28.8445C39.6185 28.7584 39.3072 28.8264 38.9554 28.9806L38.9554 28.9807Z" fill="#2C302E"/>
<path d="M38.955 7.78802C38.319 8.06926 37.6829 8.35049 37.0469 8.63174C35.5222 9.30761 33.9975 9.9835 32.4683 10.6593C30.6323 11.4758 28.7919 12.2878 26.956 13.1043C25.3591 13.8119 23.7667 14.5195 22.1699 15.2226C21.3985 15.5628 20.6137 15.8894 19.8513 16.2523C19.8423 16.2569 19.8288 16.2614 19.8198 16.2659H21.1865C20.5505 15.9847 19.9144 15.7035 19.2784 15.4222C17.7537 14.7463 16.229 14.0705 14.6998 13.3946C12.8638 12.5781 11.0234 11.7662 9.18748 10.9496C7.59064 10.242 5.99826 9.53444 4.40143 8.83131C3.63006 8.49111 2.86324 8.12369 2.08285 7.80163C2.06931 7.7971 2.06029 7.79256 2.05127 7.78802C1.94301 8.61814 1.83475 9.44825 1.72648 10.2738C2.36252 10.0198 2.99857 9.7703 3.63462 9.51628C5.15482 8.91299 6.67948 8.30968 8.19969 7.70186C10.0401 6.97155 11.8806 6.24128 13.7211 5.51095C15.3179 4.87591 16.9148 4.24089 18.5117 3.61034C19.283 3.30643 20.0725 3.02519 20.8303 2.68949C20.8393 2.68495 20.8528 2.68042 20.8618 2.67588H20.1401C20.7761 2.9299 21.4122 3.17938 22.0482 3.4334C23.5684 4.03669 25.0931 4.64 26.6133 5.24783C28.4537 5.97813 30.2942 6.70841 32.1347 7.43874C33.7315 8.07378 35.3284 8.70879 36.9253 9.33934C37.6967 9.64326 38.4635 9.98346 39.2439 10.2602C39.2529 10.2647 39.2664 10.2693 39.2754 10.2738C39.5822 10.3963 40.0468 10.2965 40.3175 10.1377C40.5972 9.97442 40.8678 9.64784 40.94 9.32577C41.0167 8.9765 41.0031 8.58639 40.8047 8.27792C40.6017 7.9604 40.34 7.78803 39.9972 7.65195C39.3612 7.39793 38.7251 7.14844 38.0891 6.89442C36.5599 6.28659 35.0307 5.67878 33.506 5.07544C31.6611 4.34059 29.8116 3.61029 27.9666 2.87548C26.3743 2.24497 24.782 1.60991 23.1896 0.979442C22.4272 0.675523 21.6694 0.33986 20.8935 0.0677091C20.483 -0.0774448 20.2033 0.035957 19.856 0.172038C19.459 0.330803 19.0621 0.48956 18.6651 0.643788C17.2261 1.21533 15.7826 1.78685 14.3436 2.35843C12.5076 3.08874 10.6672 3.81901 8.83126 4.54934C7.17125 5.20707 5.51576 5.86477 3.85575 6.52708C2.94907 6.88543 2.04239 7.24832 1.14016 7.6067C1.09956 7.62484 1.05897 7.63845 1.01386 7.6566C0.499614 7.86071 0.120709 8.20546 0.0439976 8.78606C-0.0191557 9.27142 0.201883 9.92465 0.689058 10.1424C1.32961 10.4236 1.97014 10.7094 2.60618 10.9907L7.2073 13.0319C9.05225 13.8483 10.8972 14.6649 12.7422 15.4859C14.3301 16.189 15.9179 16.892 17.5103 17.5996C18.2726 17.9353 19.035 18.28 19.7974 18.6112C20.0906 18.7382 20.3522 18.8289 20.686 18.7835C20.8754 18.7563 21.0423 18.6883 21.2183 18.6112C21.2995 18.5749 21.3852 18.5386 21.4664 18.5023C21.8633 18.3254 22.2558 18.153 22.6528 17.9761C24.0917 17.3365 25.5352 16.7015 26.9742 16.0619C28.8102 15.2499 30.6462 14.4334 32.482 13.6215C34.1466 12.8821 35.8111 12.1473 37.4756 11.4078C38.3868 11.0041 39.2935 10.6004 40.2047 10.2012C40.2453 10.1831 40.2859 10.165 40.331 10.1468C40.6197 10.0198 40.8723 9.62516 40.9535 9.33485C41.0438 9.00826 41.0032 8.57733 40.8182 8.28701C40.6333 7.99668 40.3536 7.74268 40.0108 7.66103C39.6183 7.56124 39.3071 7.62928 38.9552 7.78803L38.955 7.78802Z" fill="#2C302E"/>
<path d="M29.1709 12.9546V18.1348V18.8651C29.1709 19.5773 29.7934 20.2577 30.5242 20.2259C31.2594 20.1942 31.8774 19.6272 31.8774 18.8651V13.6849V12.9546C31.8774 12.2425 31.2549 11.5621 30.5242 11.5938C29.7934 11.6256 29.1709 12.1881 29.1709 12.9546Z" fill="#2C302E"/>
<path d="M11.0283 6.35043C11.6644 6.61352 12.2959 6.87662 12.9319 7.1397C14.4566 7.77022 15.9768 8.40072 17.5015 9.03127C19.3464 9.79332 21.1869 10.5554 23.0319 11.3174C24.6242 11.9751 26.2165 12.6374 27.8135 13.2951C28.5848 13.6127 29.3516 13.9665 30.1366 14.2568C30.1456 14.2613 30.1591 14.2659 30.1682 14.2704C30.4704 14.3974 30.944 14.2931 31.2102 14.1343C31.4899 13.971 31.7605 13.6444 31.8327 13.3224C31.9094 12.9731 31.8959 12.583 31.6974 12.2745C31.4944 11.957 31.2328 11.7937 30.8899 11.6486C30.2539 11.3855 29.6224 11.1224 28.9863 10.8593C27.4617 10.2288 25.9415 9.59827 24.4168 8.96772C22.5718 8.20566 20.7313 7.4436 18.8864 6.68159C17.294 6.02386 15.7017 5.3616 14.1048 4.70384C13.3334 4.38632 12.5666 4.0325 11.7817 3.74218C11.7727 3.73764 11.7591 3.7331 11.7501 3.72857C11.4479 3.60156 10.9742 3.70589 10.7081 3.86465C10.4284 4.02795 10.1577 4.35454 10.0856 4.67661C10.0089 5.02588 10.0224 5.41599 10.2209 5.72445C10.4239 6.04197 10.6855 6.20528 11.0283 6.35043Z" fill="#2C302E"/>
</svg>
