<svg width="32" height="32" viewBox="0 0 32 32" fill="none" xmlns="http://www.w3.org/2000/svg">
<path d="M20.5029 2.25195C22.7194 2.8468 24.7404 4.01417 26.3631 5.63689C27.9858 7.25962 29.1532 9.28063 29.7481 11.4971" stroke="#D8315B" stroke-width="1.5" stroke-linecap="round" stroke-linejoin="round"/>
<path d="M19.1472 7.29907C20.4803 7.65311 21.6961 8.35325 22.6714 9.32854C23.6466 10.3038 24.3468 11.5196 24.7008 12.8527" stroke="#D8315B" stroke-width="1.5" stroke-linecap="round" stroke-linejoin="round"/>
<path d="M9.57542 16.1033C10.9201 18.8801 13.1655 21.1197 15.9457 22.4572C16.1508 22.5544 16.3777 22.5964 16.6039 22.5792C16.8302 22.562 17.0481 22.4862 17.2361 22.3592L21.3197 19.6314C21.5001 19.5091 21.7086 19.4344 21.9256 19.4144C22.1427 19.3944 22.3613 19.4297 22.5611 19.5171L30.2054 22.8003C30.4667 22.909 30.685 23.1006 30.8267 23.3456C30.9683 23.5906 31.0255 23.8753 30.9895 24.156C30.7472 26.0471 29.8242 27.7851 28.3931 29.0448C26.962 30.3045 25.121 30.9996 23.2144 31C17.3228 31 11.6725 28.6596 7.50646 24.4935C3.34044 20.3275 1 14.6772 1 8.78557C1.00043 6.87904 1.69553 5.038 2.95524 3.60692C4.21495 2.17584 5.95294 1.25281 7.84401 1.01052C8.12469 0.974463 8.40944 1.03168 8.65442 1.17335C8.89939 1.31502 9.091 1.53329 9.19974 1.79456L12.4829 9.45527C12.5683 9.65185 12.604 9.86641 12.5869 10.08C12.5698 10.2937 12.5004 10.4998 12.3849 10.6803L9.65709 14.8292C9.53565 15.0169 9.46437 15.2325 9.45008 15.4556C9.43578 15.6786 9.47893 15.9016 9.57542 16.1033V16.1033Z" stroke="#D8315B" stroke-width="1.5" stroke-linecap="round" stroke-linejoin="round"/>
</svg>
