<svg width="13" height="17" viewBox="0 0 13 17" fill="none" xmlns="http://www.w3.org/2000/svg">
<path d="M7.99041 9.97767C10.7555 9.97767 13 7.73851 13 4.97988C13 2.22118 10.7556 0 7.99041 0H3.68108C3.08854 0 2.60368 0.483689 2.60368 1.07486V7.82814H1.0774C0.484864 7.82814 0 8.31183 0 8.903C0 9.49417 0.484832 9.97786 1.0774 9.97786H2.60368V11.7871H1.0774C0.484864 11.7871 0 12.2708 0 12.8619C0 13.4531 0.484832 13.9368 1.0774 13.9368H2.60368V15.9251C2.60368 16.5163 3.08851 17 3.68108 17C4.27364 17 4.75847 16.5163 4.75847 15.9251L4.75835 13.9365H8.6547C9.24723 13.9365 9.73209 13.4528 9.73209 12.8617C9.73209 12.2705 9.24726 11.7868 8.6547 11.7868L4.7763 11.7869V9.97773L7.99041 9.97767ZM4.77636 2.14959H8.00836C9.57046 2.14959 10.8453 3.42149 10.8453 4.97988C10.8453 6.53826 9.57043 7.81017 8.00836 7.81017H4.77636V2.14959Z" fill="#CCD0D4"/>
</svg>
