<svg width="30" height="30" viewBox="0 0 30 30" fill="none" xmlns="http://www.w3.org/2000/svg">
<path d="M11.7857 0C5.2875 0 0 5.2875 0 11.7857C0 18.2839 5.2875 23.5714 11.7857 23.5714C18.2839 23.5714 23.5714 18.2839 23.5714 11.7857C23.5714 5.2875 18.2839 0 11.7857 0ZM11.7857 21.4286C6.46929 21.4286 2.14286 17.1032 2.14286 11.7857C2.14286 6.46929 6.46929 2.14286 11.7857 2.14286C17.1032 2.14286 21.4286 6.46929 21.4286 11.7857C21.4286 17.1032 17.1032 21.4286 11.7857 21.4286Z" fill="white"/>
<path d="M29.6856 28.171L23.256 21.7424C22.837 21.3235 22.1599 21.3235 21.741 21.7424C21.322 22.1613 21.322 22.8385 21.741 23.2574L28.1706 29.686C28.3795 29.8949 28.6538 29.9999 28.9281 29.9999C29.2024 29.9999 29.4767 29.8949 29.6856 29.686C30.1045 29.2671 30.1045 28.5899 29.6856 28.171Z" fill="white"/>
</svg>
