<svg width="26" height="26" viewBox="0 0 26 26" fill="none" xmlns="http://www.w3.org/2000/svg">
<path d="M12.0767 1.21993C12.4183 0.398638 13.5817 0.398636 13.9233 1.21993L16.733 7.97517C16.877 8.32141 17.2026 8.55798 17.5764 8.58795L24.8692 9.17261C25.7559 9.24369 26.1154 10.3502 25.4399 10.9289L19.8835 15.6885C19.5987 15.9325 19.4743 16.3152 19.5614 16.68L21.2589 23.7966C21.4653 24.6618 20.5241 25.3457 19.765 24.882L13.5213 21.0684C13.2012 20.8729 12.7988 20.8729 12.4787 21.0684L6.23505 24.882C5.47595 25.3457 4.53469 24.6618 4.74108 23.7966L6.43865 16.68C6.52565 16.3152 6.40128 15.9325 6.11649 15.6885L0.560109 10.9289C-0.115428 10.3502 0.244097 9.24369 1.13075 9.17261L8.42361 8.58795C8.7974 8.55798 9.12301 8.32141 9.26701 7.97517L12.0767 1.21993Z" fill="currentColor"/>
</svg>
