<svg width="40" height="40" viewBox="0 0 40 40" fill="none" xmlns="http://www.w3.org/2000/svg">
<path d="M20 40C31.0457 40 40 31.0457 40 20C40 8.9543 31.0457 0 20 0C8.9543 0 0 8.9543 0 20C0 31.0457 8.9543 40 20 40Z" fill="url(#paint0_linear_1277_408)"/>
<path d="M29.7344 11.5078L26.164 29.5156C26.164 29.5156 25.664 30.7656 24.289 30.164L16.0469 23.8437L13.0469 22.3984L7.99998 20.7031C7.99998 20.7031 7.22654 20.4297 7.14841 19.8281C7.07029 19.2265 8.02341 18.9062 8.02341 18.9062L28.0859 11.039C28.0859 11.0312 29.7344 10.3047 29.7344 11.5078Z" fill="white"/>
<path d="M15.4062 29.3125C15.4062 29.3125 15.1641 29.2891 14.8672 28.3437C14.5703 27.3984 13.0469 22.3984 13.0469 22.3984L25.1641 14.7031C25.1641 14.7031 25.8672 14.2812 25.8359 14.7031C25.8359 14.7031 25.9609 14.7813 25.5859 15.125C25.2109 15.4766 16.0703 23.6953 16.0703 23.6953" fill="#D2E4F0"/>
<path d="M19.2031 26.2656L15.9453 29.2422C15.9453 29.2422 15.6875 29.4375 15.4141 29.3125L16.0391 23.7891" fill="#B5CFE4"/>
<defs>
<linearGradient id="paint0_linear_1277_408" x1="20" y1="0" x2="20" y2="39.8541" gradientUnits="userSpaceOnUse">
<stop stop-color="#41BCE7"/>
<stop offset="1" stop-color="#22A6DC"/>
</linearGradient>
</defs>
</svg>
