<svg width="42" height="40" viewBox="0 0 42 40" xmlns="http://www.w3.org/2000/svg">
<path d="M29.9205 19.7511C31.8285 17.6519 33 14.8874 33 11.8519C33 5.31704 27.6165 0 21 0C14.3835 0 9 5.31704 9 11.8519C9 18.3867 14.3835 23.7037 21 23.7037C23.3325 23.7037 25.5045 23.0326 27.3495 21.8904C33.8745 24.3185 38.367 30.2163 38.9385 37.037H3.063C3.4515 32.4459 5.6325 28.1644 9.18 25.1096C9.8055 24.5719 9.87 23.637 9.3255 23.0193C8.7825 22.403 7.8345 22.3378 7.209 22.8756C2.6265 26.8193 0 32.52 0 38.5185C0 39.3378 0.672 40 1.5 40H40.5C41.3295 40 42 39.3378 42 38.5185C42 30.3911 37.23 23.1333 29.9205 19.7511ZM12 11.8519C12 6.94963 16.0365 2.96296 21 2.96296C25.9635 2.96296 30 6.94963 30 11.8519C30 16.7541 25.9635 20.7407 21 20.7407C16.0365 20.7407 12 16.7541 12 11.8519Z" fill="#2C302E"/>
</svg>
