<svg width="40" height="40" viewBox="0 0 40 40" fill="none" xmlns="http://www.w3.org/2000/svg">
<path d="M20 40C31.0457 40 40 31.0457 40 20C40 8.9543 31.0457 0 20 0C8.9543 0 0 8.9543 0 20C0 31.0457 8.9543 40 20 40Z" fill="#4D76A1"/>
<path fill-rule="evenodd" clip-rule="evenodd" d="M19.2421 28.7734H20.8125C20.8125 28.7734 21.289 28.7187 21.5312 28.4609C21.7578 28.2187 21.75 27.7734 21.75 27.7734C21.75 27.7734 21.7187 25.664 22.6953 25.3594C23.6562 25.0547 24.8984 27.3906 26.2109 28.2969C27.2031 28.9765 27.9531 28.8281 27.9531 28.8281L31.4609 28.7812C31.4609 28.7812 33.2968 28.6719 32.4218 27.2265C32.3515 27.1094 31.914 26.1562 29.8125 24.2109C27.6171 22.1719 27.9062 22.5 30.5546 18.9687C32.1718 16.8203 32.8125 15.5078 32.6093 14.9453C32.414 14.4062 31.2343 14.5547 31.2343 14.5547L27.2812 14.5781C27.2812 14.5781 26.9921 14.539 26.7734 14.664C26.5625 14.789 26.4218 15.0859 26.4218 15.0859C26.4218 15.0859 25.7968 16.75 24.9609 18.164C23.2031 21.1484 22.5 21.3047 22.2109 21.125C21.539 20.6875 21.7109 19.3906 21.7109 18.4609C21.7109 15.5703 22.1484 14.3594 20.8593 14.0469C20.4296 13.9453 20.1171 13.875 19.0156 13.8672C17.6093 13.8515 16.414 13.8672 15.7343 14.2031C15.289 14.4219 14.9375 14.914 15.1484 14.9375C15.4062 14.9687 16 15.1015 16.3125 15.5234C16.7187 16.0703 16.7031 17.3125 16.7031 17.3125C16.7031 17.3125 16.9375 20.7187 16.1562 21.1406C15.625 21.4297 14.8906 20.8359 13.3281 18.1328C12.5234 16.7422 11.9218 15.2109 11.9218 15.2109C11.9218 15.2109 11.8046 14.9219 11.5937 14.7734C11.3359 14.5859 10.9843 14.5312 10.9843 14.5312L7.23433 14.5547C7.23433 14.5547 6.67183 14.5703 6.46089 14.8125C6.28121 15.0312 6.44527 15.4844 6.44527 15.4844C6.44527 15.4844 9.38277 22.3594 12.7109 25.8203C15.7812 28.9844 19.2421 28.7734 19.2421 28.7734Z" fill="white"/>
</svg>
